<svg xmlns="http://www.w3.org/2000/svg" viewBox="0 0 500 500" xmlns:v="https://vecta.io/nano"><style><![CDATA[.B{fill:#fff}.C{fill:#407bff}.D{fill:#263238}.E{opacity:.2}.F{opacity:.4}.G{fill:#fab27b}.H{opacity:.8}.I{opacity:.3}.J{opacity:.6}]]></style><path d="M416.78 398.49h33.12v.25h-33.12zm-94.25 2.72h8.69v.25h-8.69zm74.06-12h19.19v.25h-19.19zm-344.13 1.68h43.19v.25H52.46zm52.1 0h6.33v.25h-6.33zm26.91 4.22h93.68v.25h-93.68zM237 337.8H43.92a5.71 5.71 0 0 1-5.71-5.71V60.66A5.71 5.71 0 0 1 43.92 55H237a5.71 5.71 0 0 1 5.71 5.71v271.38a5.71 5.71 0 0 1-5.71 5.71zM43.92 55.2a5.47 5.47 0 0 0-5.46 5.46v271.43a5.47 5.47 0 0 0 5.46 5.46H237a5.47 5.47 0 0 0 5.46-5.46V60.66A5.47 5.47 0 0 0 237 55.2zm409.39 282.6h-193.1a5.72 5.72 0 0 1-5.71-5.71V60.66a5.72 5.72 0 0 1 5.71-5.66h193.1a5.71 5.71 0 0 1 5.69 5.66v271.43a5.71 5.71 0 0 1-5.69 5.71zM260.21 55.2a5.47 5.47 0 0 0-5.46 5.46v271.43a5.47 5.47 0 0 0 5.46 5.46h193.1a5.47 5.47 0 0 0 5.46-5.46V60.66a5.47 5.47 0 0 0-5.46-5.46zM0 382.4h500v.25H0z" fill="#ebebeb"/><g class="D"><path d="M255.2 280.83A5.82 5.82 0 1 1 261 275a5.83 5.83 0 0 1-5.8 5.83zm0-8.64A2.82 2.82 0 1 0 258 275a2.83 2.83 0 0 0-2.8-2.81z"/><path d="M257.111 279.209l2.123-2.12 6.889 6.899-2.123 2.12z"/></g><circle cx="416.02" cy="104.08" r="29.98" transform="matrix(.160226 -.98708 .98708 .160226 246.64 498.06)" fill="#e0e0e0"/><g class="B"><path d="M416.1,134.73a30.66,30.66,0,0,1,0-61.31v1.35a29.31,29.31,0,0,0,0,58.61Z"/><path d="M416.1,134.73v-1.35a29.31,29.31,0,1,0,0-58.61V73.42a30.66,30.66,0,1,1,0,61.31Z"/><path d="M431.77 104.08h-1.35c0-9.93-5-23.23-14.68-29.41l.73-1.14c10.04 6.47 15.3 20.25 15.3 30.55z"/><path d="M416.47 133.72l-.73-1.14c9.64-6.18 14.68-19.48 14.68-29.41h1.35c0 10.3-5.26 24.1-15.3 30.55zm-14.68-29.64h-1.35c0-10.31 5.25-24.11 15.3-30.55l.73 1.13c-9.64 6.19-14.68 19.48-14.68 29.42z"/><path d="M415.74,133.71c-10.05-6.45-15.3-20.25-15.3-30.55h1.35c0,9.94,5,23.23,14.68,29.41Z"/><path d="M415.43 74.09h1.35v59.96h-1.35z"/><path d="M390.73 87.43h50.76v1.35h-50.76zm-4.59 16.48h59.94v1.35h-59.94zm5.26 16.47h49.41v1.35H391.4z"/></g><path d="M95.59 93a20.16 20.16 0 0 0-.88-6l5.23-4.59-3.29-5.7L90.06 79a20.55 20.55 0 0 0-10.31-6l-1.37-6.81h-6.57L70.45 73a20.58 20.58 0 0 0-10.32 6l-6.59-2.23-3.28 5.7 5.22 4.59a20.59 20.59 0 0 0 0 11.91l-5.22 4.58 3.28 5.7 6.59-2.25a20.58 20.58 0 0 0 10.32 6l1.36 6.82h6.57l1.37-6.82a20.55 20.55 0 0 0 10.31-6l6.59 2.23 3.29-5.7L94.71 99a20.27 20.27 0 0 0 .88-6zM75.1 104.08a10.66 10.66 0 1 1 10.65-10.66 10.65 10.65 0 0 1-10.65 10.66zm48.69 17.26a15.76 15.76 0 0 0-.67-4.53l4-3.5-2.5-4.33-5 1.7a15.58 15.58 0 0 0-7.85-4.54l-1-5.19h-5l-1 5.19a15.61 15.61 0 0 0-7.86 4.54l-5-1.7-2.51 4.33 4 3.5a15.68 15.68 0 0 0 0 9.07l-4 3.49 2.51 4.34 5-1.7a15.61 15.61 0 0 0 7.86 4.54l1 5.19h5l1-5.19a15.58 15.58 0 0 0 7.85-4.54l5 1.7 2.5-4.34-4-3.49a15.83 15.83 0 0 0 .67-4.54zm-15.61 8.43a8.12 8.12 0 1 1 8.11-8.11 8.11 8.11 0 0 1-8.11 8.11z" fill="#e0e0e0"/><g fill="#ebebeb"><use href="#B"/><use href="#C"/><path d="M246.94 95.56l2.65-5.39 2.66 5.38 5.94.86-4.29 4.19 1.02 5.91-5.31-2.79-5.31 2.8 1.01-5.91-4.3-4.19 5.93-.86z"/><use href="#B" x="72.5"/><use href="#C" x="72.5"/></g><ellipse cx="245.18" cy="412.39" rx="193.89" ry="11.32" fill="#f5f5f5"/><path d="M179.66 402.43l-.2 2.3a2.34 2.34 0 0 0 .09.84h0a1.46 1.46 0 0 0 .16.36 3.33 3.33 0 0 0 .24.32 1.59 1.59 0 0 0 .3.27 2 2 0 0 0 1.16.37h82.4a1.9 1.9 0 0 0 .58-.09 2.5 2.5 0 0 0 .38-.15 2.18 2.18 0 0 0 1-1 2.08 2.08 0 0 0 .23-.78l.19-2.21a1.7 1.7 0 0 0-.09-.78 1.66 1.66 0 0 0-.15-.33 1.76 1.76 0 0 0-.64-.63 2.72 2.72 0 0 0-.35-.16 1.84 1.84 0 0 0-.57-.09h-20.52a3.8 3.8 0 0 1-.77-.07h0l-.29-.08a.05.05 0 0 1 0 0h0a2.08 2.08 0 0 1-.32-.12 1 1 0 0 1-.28-.14 2.85 2.85 0 0 1-.41-.26 3.32 3.32 0 0 1-.43-.41l-.21-.27-.14-.2-.05-.08h0a1.59 1.59 0 0 1-.15-.29l-.12-.27a.14.14 0 0 0 0-.06.14.14 0 0 0 0-.07 1.05 1.05 0 0 1-.06-.24 1.86 1.86 0 0 1 0-.34 0 0 0 0 1 0 0v-.32-.32-.13a3.11 3.11 0 0 1 0-.32c0-.12.05-.22.07-.33h0l8.06-30.92 1.55-5.94 1.21-4.65h-46.8l-2.51 4.65-3.2 5.94-18.2 33.74-.19.36a0 0 0 0 1 0 0l-.18.41-.16.42-.09.28a8.46 8.46 0 0 0-.54 1.79z" class="D"/><path d="M266.16 402.68l-.19 2.23a2.21 2.21 0 0 1-2.16 2h-82.38a2 2 0 0 1-2-2.16l.2-2.3a8.29 8.29 0 0 1 .36-1.81 9.29 9.29 0 0 1 .64-1.49l23.92-44.33h46.8l-10.82 41.51a3.21 3.21 0 0 0-.13.73 3.37 3.37 0 0 0 2.67 3.58 3.14 3.14 0 0 0 .77.08h20.49a1.79 1.79 0 0 1 1.83 1.96z" class="B E"/><path d="M178 399.13l23.91-44.34h2.65l-23.92 44.34a8.53 8.53 0 0 0-1 3.3l-.2 2.3a1.94 1.94 0 0 0 2 2.15h-2.65a1.94 1.94 0 0 1-2-2.15l.2-2.3a8.38 8.38 0 0 1 1.01-3.3z" class="D"/><path d="M204.58 354.79h46.79l-2.76 10.6h-49.75l5.72-10.6z" class="I"/><path d="M125.18 207.88v144.27a7.29 7.29 0 0 0 7.29 7.3h199.67a7.29 7.29 0 0 0 7.29-7.3V207.88a7.29 7.29 0 0 0-7.3-7.3H132.49a7.3 7.3 0 0 0-4.44 1.51 5.27 5.27 0 0 0-.51.43 6.85 6.85 0 0 0-1.26 1.53 6.32 6.32 0 0 0-.6 1.19 7.46 7.46 0 0 0-.5 2.64z" class="D"/><use href="#D" class="C"/><use href="#D" class="B J"/><path d="M132.62 332.14H332a4 4 0 0 0 4-4V209a4 4 0 0 0-4-4H132.62a4 4 0 0 0-4 4v119.18a4 4 0 0 0 4 3.96z" class="C"/><use href="#E" class="D"/><g class="E B"><use href="#E"/></g><g class="B"><path d="M337.18,280.92c-5.14-1-13.28,2.33-14.8,7.33a8,8,0,0,0-3.85-7.76c-2.65-1.53-6.12-2.61-8.56-.77a27.18,27.18,0,0,0-9.06-27.11c-7.82-6.33-19.23-7-28.26-2.59a19.37,19.37,0,0,0-11.34-27.41,82.5,82.5,0,0,0-39.15-3.71c-7.61,1.12-15.37,3.5-20.9,8.84s-7,15-3.28,21.73a24.69,24.69,0,0,0-24.9,5.89,24.38,24.38,0,0,0-5.43,24.83,8.23,8.23,0,0,0-7.85-.3,8,8,0,0,0-4.35,6.43,16.53,16.53,0,0,0-27,.92v44.9H336Z" opacity=".5"/><rect x="174.16" y="261.21" width="126.62" height="19.7" rx="9.85"/></g><g class="D"><path d="M183.4 274.83a5.82 5.82 0 1 1 5.82-5.82 5.83 5.83 0 0 1-5.82 5.82zm0-8.64a2.82 2.82 0 1 0 2.82 2.82 2.83 2.83 0 0 0-2.82-2.82z"/><path d="M185.305 273.198l2.123-2.12 6.889 6.899-2.123 2.12z"/></g><g opacity=".1" class="B"><path d="M268.47 204.99h7.66l15.91 127.15h-7.67l-15.9-127.15zm31.32 127.15l-15.9-127.15h28.81l15.9 127.15h-28.81z"/></g><path d="M193.87 402.7l-.18 2.11a1.87 1.87 0 0 0 1.89 2.08h68.23a2.21 2.21 0 0 0 2.16-2l.19-2.21a1.78 1.78 0 0 0-1.81-2h-20.49a3.16 3.16 0 0 1-.76-.09h-47a2.32 2.32 0 0 0-2.23 2.11z" class="B E"/><path d="M180 400.62h63.1a3.34 3.34 0 0 1-2.66-3.58H182z" class="E"/><path d="M212.27 249.39l1.38-3.07a10.37 10.37 0 0 0 5.81 1.84c2.41 0 3.39-.81 3.39-1.89 0-3.29-10.23-1-10.23-7.56 0-3 2.41-5.48 7.41-5.48a11.79 11.79 0 0 1 6.11 1.56l-1.26 3.09a9.9 9.9 0 0 0-4.88-1.38c-2.41 0-3.34.9-3.34 2 0 3.24 10.23 1 10.23 7.46 0 2.94-2.44 5.46-7.47 5.46a12.51 12.51 0 0 1-7.15-2.03zm31.04-1.53v3.26h-13.62v-17.59H243v3.27h-9.25v3.82h8.17v3.17h-8.17v4.07zm2.09-5.53c0-5.23 4.07-9.1 9.62-9.1s9.63 3.85 9.63 9.1-4.1 9.1-9.63 9.1-9.62-3.87-9.62-9.1zm15.13 0A5.51 5.51 0 1 0 255 248a5.37 5.37 0 0 0 5.53-5.67z" class="D"/><g class="B"><rect x="186.17" y="293.84" width="49.9" height="16.62" rx="3.85" class="H"/><rect x="247.37" y="293.84" width="49.9" height="16.62" rx="3.85" class="H"/></g><use href="#F" class="C"/><use href="#F" class="I"/><path d="M223.8 218.73l-1.21-4.94h-4.34l-1.2 4.94a8.82 8.82 0 0 0 6.75 0z" class="D"/><g class="B"><use href="#G" class="E"/><path d="M217.67 216.18l-.23.93a10 10 0 0 0 6 0l-.22-.93a14 14 0 0 1-5.55 0z" class="F"/></g><g class="C"><path d="M225,213.44a12,12,0,0,1-9.16,0v-36.7a15.59,15.59,0,0,1,4.58-11.06A15.59,15.59,0,0,1,225,176.74Z"/><use href="#H"/></g><use href="#H" class="B F"/><use href="#I" class="C"/><use href="#I" class="B J"/><use href="#J" class="C"/><use href="#J" class="B H"/><use href="#K" class="C"/><use href="#K" class="B F"/><path d="M253.27 218.73l-1.2-4.94h-4.34l-1.21 4.94a8.82 8.82 0 0 0 6.75 0z" class="D"/><g class="B"><use href="#G" x="29.48" class="E"/><path d="M247.14 216.18l-.22.93a10 10 0 0 0 6 0l-.23-.93a14 14 0 0 1-5.55 0z" class="F"/></g><g class="C"><path d="M254.48,213.44a12,12,0,0,1-9.16,0v-36.7a15.59,15.59,0,0,1,4.58-11.06,15.59,15.59,0,0,1,4.58,11.06Z"/><use href="#H" x="29.48"/></g><use href="#H" x="29.48" class="B F"/><use href="#I" x="29.48" class="C"/><use href="#I" x="29.48" class="B J"/><use href="#J" x="29.48" class="C"/><use href="#J" x="29.48" class="B H"/><use href="#K" x="29.48" class="C"/><use href="#K" x="29.48" class="B F"/><path d="M240.61 221.56l-2-8h-7l-1.95 8a14.15 14.15 0 0 0 10.95 0z" class="D"/><g class="B"><path d="M231.66 213.59l-.46 1.86a14.13 14.13 0 0 0 7.92 0l-.46-1.87z" class="E"/><path d="M230.71 217.46l-.36 1.5a16.26 16.26 0 0 0 9.62 0l-.36-1.5a23 23 0 0 1-8.9 0z" class="F"/></g><g class="C"><path d="M242.56,213a19.22,19.22,0,0,1-14.8,0V153.78a25.17,25.17,0,0,1,7.4-17.85,25.17,25.17,0,0,1,7.4,17.85Z"/><use href="#L"/></g><use href="#L" class="B F"/><use href="#M" class="C"/><use href="#M" class="B J"/><use href="#N" class="C"/><use href="#N" class="B H"/><use href="#O" class="C"/><use href="#O" opacity=".1" class="B"/><g class="C"><path d="M239.47 165.63a4.31 4.31 0 1 1-4.31-4.3 4.31 4.31 0 0 1 4.31 4.3z"/><use href="#P"/></g><use href="#P" class="I"/><circle cx="235.16" cy="165.63" r="3.05" class="B"/><g class="C"><use href="#Q"/><use href="#R"/></g><g opacity=".7" class="B"><use href="#Q"/><use href="#R"/></g><path d="M345.57 281.26l-1.15.25a2.52 2.52 0 0 0-2 2.14l-.1.81a2.5 2.5 0 0 0 .82 2.19c1.89 1.65 6.35 4.71 11.75 2.74l4.31-3.25-.71-5.82-9-1.3a2.51 2.51 0 0 0-1.49.56zm13.66 4.88l11.97-.6-1.85-6.51-10.83 1.29.71 5.82z" class="G"/><g class="C"><path d="M366.36 279.08a4.66 4.66 0 0 0-.48 3 9.19 9.19 0 0 0 1.93 4.54h0a13.28 13.28 0 0 0-5.8 1.43l-.1.05c-6.24-4.26-2.64-9.31-2.64-9.31l.41.06a32.46 32.46 0 0 0 6.68.23z"/><path d="M390.87 284.45c-11.12 2.56-24.95 2.31-24.95 2.31a4.32 4.32 0 0 1-.59-2.55c.1-1.86.35-4.19 1-5.13s5.46-1.44 5.46-1.44 9.29-4.31 11.05-5.72 1.69-8 1.36-12.33c-1.77-23.27 2.32-25 6-26.07 7.8-2.17 10.51 48.66.67 50.93z"/><use href="#S"/></g><use href="#S" class="E"/><use href="#T" class="C"/><use href="#T" class="F"/><use href="#U" class="D"/><use href="#U" class="B H"/><path d="M407.82 288.07l.88 13.86c.75 24.05-18.88 25.88-33.32 23.23l-52.3-14.62c-2.07 6.95-26.25 45.22-26.25 45.22l-12.71-7.3 21.69-53.58c4.85-12.55 44.38-3.87 58.94-1.28 4.42 1.19 3.57-5.72 3.57-5.72z" class="D"/><path d="M293.59 355.04l-4.86 8.09-9.05-4.5 4.71-9.21 9.2 5.62z" class="G"/><g class="C"><path d="M274.86 357c-1.19-.55-2.33-1.33-2.49-2a1 1 0 0 1 .47-1 1.31 1.31 0 0 1 1-.2c1.81.29 4.29 3.74 4.39 3.89a.24.24 0 0 1 0 .29.28.28 0 0 1-.27.1 18.61 18.61 0 0 1-3.1-1.08zm-.67-2.57a1.53 1.53 0 0 0-.46-.14.69.69 0 0 0-.59.11c-.3.21-.31.37-.28.48.16.83 2.58 1.95 4.47 2.55a11.5 11.5 0 0 0-3.14-3.03z"/><path d="M277.89 358a.12.12 0 0 1-.09 0c-.91-1-2.27-4.17-1.57-5.16.14-.25.48-.48 1.14-.25a1.88 1.88 0 0 1 1.09 1c.76 1.57-.17 4.28-.21 4.4a.24.24 0 0 1-.2.16.25.25 0 0 1-.16-.15zm-.57-5l-.12-.07c-.43-.16-.53 0-.57.05-.36.62.41 2.94 1.28 4.19a5.9 5.9 0 0 0 .07-3.53 1.29 1.29 0 0 0-.66-.64z"/></g><path d="M279.52 357.15l10.48 4.79a.93.93 0 0 1 .53 1l-2 9.4a1.54 1.54 0 0 1-1.83 1.2 1.24 1.24 0 0 1-.31-.1c-3.75-1.79-7-3.54-11.73-5.68-5.55-2.54-4.45-1.23-11-4.13-4-1.75-2.63-6.55-.87-6 8.08 2.54 9.93.59 14.13-.79a3.61 3.61 0 0 1 2.6.31z" class="D"/><path d="M291.12 359.15l2.47-4.11-9.2-5.62-2.28 4.45 9.01 5.28z" class="E"/><path d="M298.85 355l-15.76-9.83a4 4 0 0 0-2 4.13l15.16 9.7s2.03-.13 2.6-4z" class="C"/><path d="M320.41 395.29l-1.91 8.97-9.74-1.28 1.42-9.96 10.23 2.27z" class="G"/><g class="C"><path d="M303.81 403c-1.27-.13-2.56-.49-2.93-1.08a.91.91 0 0 1 .12-1 1.28 1.28 0 0 1 .82-.49c1.75-.3 5.12 2.08 5.27 2.19a.24.24 0 0 1 .09.26.26.26 0 0 1-.22.18 18.41 18.41 0 0 1-3.15-.06zm-1.43-2.15a1.48 1.48 0 0 0-.47 0 .69.69 0 0 0-.51.29c-.21.29-.16.44-.1.53.41.71 3 1 4.91.93a11.23 11.23 0 0 0-3.83-1.77z"/><path d="M306.93 403a.16.16 0 0 1-.1 0c-1.17-.67-3.41-3.12-3.08-4.25.05-.28.29-.59 1-.59a1.77 1.77 0 0 1 1.3.54c1.2 1.2 1.2 4 1.2 4.11a.23.23 0 0 1-.13.21.18.18 0 0 1-.19-.02zm-2.1-4.38h-.13c-.44 0-.49.17-.51.23-.13.69 1.31 2.58 2.5 3.45a5.68 5.68 0 0 0-1.05-3.26 1.3 1.3 0 0 0-.81-.39z"/></g><path d="M308.15 401.66l11.15 1.1a.9.9 0 0 1 .81.79l1.13 9.27a1.51 1.51 0 0 1-1.3 1.68 1.69 1.69 0 0 1-.32 0l-12.57-1.52c-5.91-.58-4.48.27-11.44-.31-4.19-.36-4.49-5.19-2.69-5.25 8.22-.22 9.31-2.59 12.72-5.19a3.65 3.65 0 0 1 2.51-.57z" class="D"/><path d="M309.43 398.26l10.18.79.8-3.76-10.23-2.27-.75 5.24z" class="E"/><path d="M323.3 391.74l-.29 1.13-14.93-1.18.16-1.13 15.06 1.18z" class="D"/><path d="M323.91 396.42l-3.68-.33-10.36-.93-3.34-.3a3.91 3.91 0 0 1-.15-4.45l1.86.15 15.06 1.18 1.08.09c1.25 3.59-.47 4.59-.47 4.59z" class="C"/><use href="#V" class="D"/><use href="#V" opacity=".1"/><path d="M316.23 327.31a2.32 2.32 0 0 1 0-.27v.27zm1.01-7.31l-.15 1.11a9.82 9.82 0 0 1 .15-1.11z" class="D"/><path d="M365.06 231.59l4.15 6.06 9.33-7.98-5.83-7.16-7.65 9.08z" class="G"/><path d="M367.14,234.46c1.8-2.65,1-6.76,1-6.76l-1.64,2.09-1.42,1.8Z" class="E"/><path d="M349.1 218.24c.2.59.68 1 1.07.82s.56-.77.35-1.34-.67-1-1.07-.81-.54.74-.35 1.33z" class="D"/><path d="M351.26,218.42l-1.32,5.66a4.4,4.4,0,0,0,3.8-1Z" fill="#ed893e"/><path d="M348.51 214.11a.34.34 0 0 1 .31 0 2.58 2.58 0 0 0 2.35-.18.31.31 0 0 1 .45.07.34.34 0 0 1-.08.46 3.15 3.15 0 0 1-3 .27.33.33 0 0 1-.19-.43h0a.44.44 0 0 1 .16-.19z" class="D"/><path d="M371.27 208c3 7.73 4.49 10.94 2.43 16.65-4.05 6.75-13.38 10.85-18.7 4.23-4.78-6-8.93-17.57-2.87-24.2a11.53 11.53 0 0 1 16.21-1 11 11 0 0 1 2.93 4.32z" class="G"/><path d="M378.59 210.3a62.31 62.31 0 0 0-.77 7.84 12.2 12.2 0 0 1-7.93 11.07h0s-10.9-.13-15.53-13.84a7.84 7.84 0 0 1-8.24-10.08c.89-2.92 4.58-4.74 7.63-4.85a10 10 0 0 1 8.56-3.88 20.65 20.65 0 0 1 9.29 3.08 15.7 15.7 0 0 1 6.2 5.58 8 8 0 0 1 .79 5.08z" class="D"/><path d="M356.63 217a6.39 6.39 0 0 0-.12 4.93c.84 2.09 3.08 1.74 4.37 0 1.17-1.59 2.12-4.57.54-6.11s-3.92-.72-4.79 1.18z" class="G"/><g class="C"><use href="#W"/><use href="#W"/><use href="#X"/><use href="#X"/></g><use href="#X" class="I"/><path d="M312 276.8h-1.12a2.41 2.41 0 0 0-2.21 1.7l-.23.74a2.38 2.38 0 0 0 .4 2.2c1.51 1.87 5.19 5.49 10.6 4.53l4.61-2.34.3-5.6-8.22-2.71a2.43 2.43 0 0 0-1.5.28zm12.07 6.87l11.36 1.43-.66-6.44-10.4-.59-.3 5.6z" class="G"/><g class="C"><path d="M332 278.21a4.52 4.52 0 0 0-1 2.78 8.86 8.86 0 0 0 1.06 4.6h0a12.65 12.65 0 0 0-5.7.38h-.1c-5.16-5.05-.93-9.2-.93-9.2l.38.12a31 31 0 0 0 6.29 1.32z"/><path d="M354.12 287.34c-10.89.56-23.86-2-23.86-2a4.15 4.15 0 0 1-.14-2.5c.41-1.74 1-3.89 1.83-4.66s5.38-.44 5.38-.44 9.46-2.52 11.35-3.55 2.92-7.19 3.32-11.35c2.21-22.2 6.35-23.16 10-23.53 7.65-.76 1.76 47.54-7.88 48.03z"/></g><g class="D"><path d="M390,413.8l-7.55-63.1a12.7,12.7,0,0,0-12.61-11.19H344.93a12.65,12.65,0,0,0-12.54,10.67L322.23,413l-2-.32,10.17-62.8a14.64,14.64,0,0,1,14.51-12.35h24.95a14.72,14.72,0,0,1,14.6,12.95l7.55,63.1Z"/><path d="M424.94,413.8l-7.55-63.1a12.7,12.7,0,0,0-12.61-11.19H379.83a12.64,12.64,0,0,0-12.54,10.67L357.12,413l-2-.32,10.17-62.8a14.63,14.63,0,0,1,14.51-12.35h24.95a14.72,14.72,0,0,1,14.6,12.95l7.55,63.1Z"/><path d="M323.91 395.42h34.35v2h-34.35zm59.58-45.84H419v2h-35.51z"/></g><use href="#Y" class="C"/><use href="#Y" opacity=".7" class="B"/><g class="C"><path d="M364.09 177.94h0v-.11a.41.41 0 0 1 0 .11z"/><use href="#Z"/></g><use href="#Z" class="B J"/><use href="#a" class="C"/><use href="#a" opacity=".5" class="B"/><use href="#b" class="C"/><use href="#b" class="B F"/><use href="#c" class="C"/><use href="#c" class="B I"/><use href="#d" class="C"/><use href="#d" class="B E"/><use href="#e" class="C"/><use href="#e" opacity=".1" class="B"/><g class="C"><path d="M364.1 177.83a.41.41 0 0 1 0 .11 33.6 33.6 0 0 1-2.37 9.1l-7.21-1.63.58-2.75.13-1.08h0v-.22h0a21.94 21.94 0 0 0 0-3.89l8.9.1v.15a.37.37 0 0 1-.03.11z"/><use href="#f"/></g><use href="#f" opacity=".7" class="B"/><g class="D"><path d="M363.52,185l-.76,1.88-1.54-.34-14.35-3.25-6.18-1.4a8.25,8.25,0,0,0,1.06-1.81,7.52,7.52,0,0,0,.56-2.37l13.7,4.71h0Z"/><path d="M342.31,177.73a7.72,7.72,0,0,1-1.62,4.18l-5.55-1.26,1.75-4.78Z"/></g><path d="M342.31 177.73a7.72 7.72 0 0 1-1.62 4.18 8 8 0 0 1-2.54 2.13c-3.57 1.91-7.78.71-9.39-2.7a7.52 7.52 0 0 1 3.54-9.63c3.57-1.91 7.78-.7 9.4 2.7a6.64 6.64 0 0 1 .61 3.32zm-227.83-4.23h5.73v4.8h-6.3l-.88 7h-5l.88-7h-6.47l-.88 7h-4.9l.88-7h-5.77v-4.8h6.34l.92-7.13h-5.76v-4.8h6.34l.88-7h4.93l-.88 7H111l.88-7h4.93l-.88 7h5.72v4.8h-6.34zm-5 0l.92-7.13H104l-1 7.13zm26.7-18.98v30.82h-7.13v-25.09h-6.16v-5.73z" class="C"/><path d="M60.15 282.69h49.31v33.95H60.15z" class="D"/><path d="M60.15 282.69h49.31v3.11H60.15z" class="C"/><path d="M69.18 301.47l8.07 4.47a2.66 2.66 0 0 1 .8.6 1.08 1.08 0 0 1 .2.68 1.26 1.26 0 0 1-.37.91 1.2 1.2 0 0 1-.88.38 2.36 2.36 0 0 1-1-.36l-10.4-5.79a1 1 0 0 1 0-1.78l10.4-5.79a2.47 2.47 0 0 1 1-.35 1.28 1.28 0 0 1 1.26 1.27 1 1 0 0 1-.2.68 2.5 2.5 0 0 1-.8.61zm20.75-8.33l-8 17.19a2.35 2.35 0 0 1-.55.84 1.17 1.17 0 0 1-.76.26 1.23 1.23 0 0 1-.88-.37 1.11 1.11 0 0 1-.37-.82 2.64 2.64 0 0 1 .29-1l8-17.18a2.5 2.5 0 0 1 .54-.84 1.24 1.24 0 0 1 1.63.1 1.1 1.1 0 0 1 .37.82 2.64 2.64 0 0 1-.27 1zm10.07 8.33L91.9 297a2.45 2.45 0 0 1-.81-.61 1.1 1.1 0 0 1-.2-.68 1.19 1.19 0 0 1 .38-.89 1.2 1.2 0 0 1 .88-.38 2.42 2.42 0 0 1 1 .35l10.4 5.79a1 1 0 0 1 0 1.78l-10.4 5.79a2.33 2.33 0 0 1-1 .36 1.23 1.23 0 0 1-.89-.38 1.3 1.3 0 0 1-.37-.91 1.14 1.14 0 0 1 .2-.68 2.61 2.61 0 0 1 .81-.6z" class="B"/><defs ><path id="B" d="M198.61 95.56l2.65-5.39 2.66 5.38 5.94.86-4.3 4.19 1.02 5.91-5.31-2.79-5.3 2.8 1.01-5.91-4.3-4.19 5.93-.86z"/><path id="C" d="M222.78 95.56l2.65-5.39 2.66 5.38 5.93.86-4.29 4.19 1.02 5.91-5.31-2.79-5.31 2.8 1.01-5.91-4.3-4.19 5.94-.86z"/><path id="D" d="M339.43,336.55v15.6a7.3,7.3,0,0,1-7.3,7.3H132.49a7.3,7.3,0,0,1-7.3-7.3v-15.6Z"/><path id="E" d="M128.07 200.58h4.42a7.3 7.3 0 0 0-7.3 7.3v144.27a7.3 7.3 0 0 0 7.3 7.3h-4.42a7.3 7.3 0 0 1-7.3-7.3V207.88a7.3 7.3 0 0 1 7.3-7.3z"/><path id="F" d="M209.92 210.66l24.79-44a1 1 0 0 1 1.74 0l24.79 44a1 1 0 0 1-.87 1.48H210.8a1 1 0 0 1-.88-1.48z"/><path id="G" d="M218.25,213.79l-.28,1.15a8.69,8.69,0,0,0,4.9,0l-.28-1.15Z"/><path id="H" d="M215.84 176.74v34.59a13.9 13.9 0 0 0 9.16 0v-34.59a15.59 15.59 0 0 0-4.58-11.06 15.59 15.59 0 0 0-4.58 11.06z"/><path id="I" d="M215.84 176.74v26a16.67 16.67 0 0 0 9.16 0v-26a15.59 15.59 0 0 0-4.58-11.06 15.59 15.59 0 0 0-4.58 11.06z"/><path id="J" d="M215.84 176.74v13.6a16.58 16.58 0 0 0 9.16 0v-13.6a15.59 15.59 0 0 0-4.58-11.06 15.59 15.59 0 0 0-4.58 11.06z"/><path id="K" d="M215.84 176.74v1.59a16.67 16.67 0 0 0 9.16 0v-1.59a15.59 15.59 0 0 0-4.58-11.06 15.59 15.59 0 0 0-4.58 11.06z"/><path id="L" d="M227.76 153.78v55.85a22.61 22.61 0 0 0 14.8 0v-55.85a25.17 25.17 0 0 0-7.4-17.85 25.17 25.17 0 0 0-7.4 17.85z"/><path id="M" d="M227.76 153.78v41.94a27 27 0 0 0 14.8 0v-41.94a25.17 25.17 0 0 0-7.4-17.85 25.17 25.17 0 0 0-7.4 17.85z"/><path id="N" d="M227.76 153.78v22a27 27 0 0 0 14.8 0v-22a25.17 25.17 0 0 0-7.4-17.85 25.17 25.17 0 0 0-7.4 17.85z"/><path id="O" d="M227.76 153.78v2.57a27 27 0 0 0 14.8 0v-2.57a25.17 25.17 0 0 0-7.4-17.85 25.17 25.17 0 0 0-7.4 17.85z"/><path id="P" d="M235.16 169.94a4.29 4.29 0 0 1-4.29-4v.32a4.31 4.31 0 0 0 8.62 0v-.32a4.3 4.3 0 0 1-4.33 4z"/><path id="Q" d="M235 168.66l1.25-5.86a2.88 2.88 0 0 0-1-.2l-1.25 5.85a2.85 2.85 0 0 0 1 .21z"/><path id="R" d="M236.14 168.51l1.08-5.11a3 3 0 0 0-.45-.34l-1.19 5.58a3.5 3.5 0 0 0 .56-.13z"/><path id="S" d="M314.68 289.44h31.08c1 0 1.47-.82 1-1.83L339 270.08a3.22 3.22 0 0 0-2.65-1.83h-31.09c-1 0-1.47.82-1 1.83l7.8 17.53a3.21 3.21 0 0 0 2.62 1.83z"/><path id="T" d="M303.91 268.25h1.35c-1 0-1.47.82-1 1.83l7.8 17.53a3.21 3.21 0 0 0 2.64 1.83h-1.34a3.22 3.22 0 0 1-2.65-1.83l-7.79-17.53c-.47-1.01-.02-1.83.99-1.83z"/><path id="U" d="M315.26 287.43h28.13l-7.63-17.17h-28.13l7.63 17.17z"/><path id="V" d="M384.53 334.08c-13.51 1.19-44.67 1.69-48.89 1.07l-12.34 56.59-15.06-1.18s1.59-48.93 8.23-69.16c5.34-16.26 90.76-12.89 90.76-12.89l.3 4.58c.59 15.78-7.53 19.62-23 20.99z"/><path id="W" d="M378.62 225.16c-3 .13-7.43 2.16-13.35 6.24a2.41 2.41 0 0 0-.8 2.2c.07.8.87 1.55 1.63 1.3.39 1 .65 2.1 1 3.06a41.37 41.37 0 0 1 5.74-2.4 77 77 0 0 1 9.15-3c-.83-1.27-1.94-2.51-2.27-4a1.64 1.64 0 0 0 .93-1.88 2.48 2.48 0 0 0-2.03-1.52z"/><path id="X" d="M369.84,301.76a399,399,0,0,1-16.17-46.61c-4.64-17.32,8.61-17.62,24.6-21.92,12.68-3.41,18.1-.36,21.72,6.07s9.46,60.85,9.46,60.85Z"/><path id="Y" d="M390,339.94h26.13a19.31,19.31,0,0,0,19.25-17.79l3.72-46.94a13.09,13.09,0,0,0-13-14.12H411.6a38.1,38.1,0,0,0-36.51,27.21l-10,33.51a13.25,13.25,0,0,1-12.71,9.47H334.1a8.66,8.66,0,0,0-8.65,8.66H390Z"/><path id="Z" d="M317 165.28a25.78 25.78 0 0 0-7.25 11.64h-1.83a30.33 30.33 0 0 1 5.47-13.92z"/><path id="a" d="M327.6,159.29a25.84,25.84,0,0,0-10.6,6L313.39,163a32.17,32.17,0,0,1,11.32-9.83Z"/><path id="b" d="M338.83,149.8l-.89,8.93a22.21,22.21,0,0,0-3.87-.33,24.11,24.11,0,0,0-6.47.89l-2.89-6.1a29.68,29.68,0,0,1,13.7-3.39Z"/><path id="c" d="M352.21 153.59l-5.83 8.55a21 21 0 0 0-8.44-3.41l.89-8.93a26.17 26.17 0 0 1 13.38 3.79z"/><path id="d" d="M361.46 163.67l-9.1 4.87a20.43 20.43 0 0 0-6-6.4l5.83-8.55a25 25 0 0 1 9.27 10.08z"/><path id="e" d="M364.12 177.57l-8.9-.1a21.31 21.31 0 0 0-2.86-8.93l9.1-4.87a26.43 26.43 0 0 1 2.66 13.9z"/><path id="f" d="M309 186.47l-.53.12-.43-2.1a27.87 27.87 0 0 1-.24-6.55h0v-.11a.45.45 0 0 1 0-.11c0-.27.05-.55.09-.82h1.83a24.21 24.21 0 0 0-.86 4.44v.11.11a23.88 23.88 0 0 0-.05 2.67l.19 2.24z"/></defs></svg>