<svg xmlns="http://www.w3.org/2000/svg" width="860.131" height="551.741" xmlns:v="https://vecta.io/nano"><style><![CDATA[.B{fill:#e6e6e6}.C{fill:#2f2e41}.D{fill:#6c63ff}.E{fill:#ffb6b6}.F{fill:#cacaca}.G{fill:#f2f2f2}]]></style><path d="M804 487.5H586.652c-16.465-.018-29.807-13.361-29.826-29.825V114.832c.019-16.465 13.361-29.807 29.826-29.826H804c16.465.019 29.807 13.361 29.826 29.826v342.843c-.019 16.465-13.361 29.807-29.826 29.825z" class="B"/><path d="M807.605 102.803H586.242a9.35 9.35 0 0 0-9.337 9.337v347.313c.008 5.153 4.184 9.329 9.337 9.337h221.363a9.35 9.35 0 0 0 9.337-9.337V112.14a9.35 9.35 0 0 0-9.337-9.337z" fill="#fff"/><g class="B"><path d="M591.965 85.006c.001-1.26 1.022-2.28 2.282-2.282h15.516a2.28 2.28 0 1 1 0 4.563h-15.516c-1.26-.002-2.28-1.022-2.282-2.282z"/><use href="#B"/><use href="#B" x="153.331"/></g><path d="M727.599 461.634l-.155 7.155H586.242c-5.153-.008-9.329-4.184-9.337-9.337V284.637c86.856 14.033 150.695 89.015 150.693 176.997z" class="G"/><rect x="665.804" y="192.056" width="61.339" height="14.092" rx="4.339" class="D"/><g class="B"><rect x="632.335" y="220.241" width="128.277" height="14.092" rx="4.339"/><rect x="632.335" y="248.426" width="128.277" height="14.092" rx="4.339"/></g><path d="M735.793 445.054a3.35 3.35 0 0 1-2.426-5.803l.229-.912q-.045-.11-.091-.219a8.99 8.99 0 0 0-16.584.062c-2.712 6.533-6.166 13.077-7.016 19.984-.374 3.053-.217 6.148.467 9.147-6.371-13.897-9.679-29.001-9.7-44.289-.001-3.836.212-7.67.638-11.482q.529-4.688 1.467-9.309a107.87 107.87 0 0 1 21.392-45.718c5.153-2.811 9.32-7.135 11.939-12.387a21.9 21.9 0 0 0 1.991-5.984 27.23 27.23 0 0 1-1.753.162l-.553.029-.068.003c-1.305.059-2.523-.654-3.111-1.821s-.437-2.569.386-3.583q.376-.463.753-.926l1.153-1.42a1.65 1.65 0 0 0 .124-.143l1.315-1.62a9.59 9.59 0 0 0-3.144-3.04c-4.393-2.573-10.453-.791-13.626 3.183-3.183 3.973-3.783 9.548-2.678 14.512a38.44 38.44 0 0 0 5.317 11.854l-.724.905c-4.355 5.599-8.15 11.612-11.332 17.952a45.13 45.13 0 0 0-2.694-20.963c-2.579-6.222-7.413-11.462-11.67-16.84-5.113-6.461-15.599-3.641-16.499 4.549q-.013.119-.026.238.948.535 1.857 1.136a4.54 4.54 0 0 1-1.831 8.264l-.093.014c.225 2.279.623 4.537 1.191 6.756 3.325 12.52 11.72 23.087 23.164 29.157l1.105.562c-3.197 9.059-5.202 18.495-5.965 28.071-.432 5.65-.407 11.325.076 16.97l-.029-.2c-1.22-6.278-4.569-11.942-9.481-16.037-7.296-5.994-17.604-8.201-25.475-13.018a5.21 5.21 0 0 0-7.983 5.071q.016.105.032.21a30.51 30.51 0 0 1 3.421 1.648q.948.535 1.857 1.136a4.54 4.54 0 0 1-1.831 8.264l-.093.014-.19.029c2.005 4.787 4.819 9.193 8.318 13.026 8.738 9.376 20.953 14.736 33.769 14.817h.01c1.721 7.48 4.215 14.761 7.442 21.725h26.585c.095-.295.181-.6.267-.896-2.461.155-4.931.008-7.356-.438l5.917-7.28a1.65 1.65 0 0 0 .124-.143l3.011-3.707.001-.002c.053-3.797-.382-7.585-1.296-11.271zm-30.443-59.887l.014-.019-.014.038zm-5.889 53.084l-.229-.514a22.04 22.04 0 0 0 0-1.124c0-.105-.019-.21-.019-.315l.257 1.972z" fill="#ccc"/><path d="M796.54 133.466H597.307a1.65 1.65 0 0 1-1.613-1.649 1.65 1.65 0 0 1 1.613-1.649H796.54a1.65 1.65 0 0 1 1.613 1.649 1.65 1.65 0 0 1-1.613 1.649z" class="F"/><g fill="#3f3d56"><ellipse cx="607.937" cy="120.446" rx="4.846" ry="4.954"/><ellipse cx="624.678" cy="120.446" rx="4.846" ry="4.954"/><ellipse cx="641.42" cy="120.446" rx="4.846" ry="4.954"/><use href="#C"/><use href="#C" y="3.083"/><use href="#C" y="6.161"/></g><path d="M465.498 284.768h-115.51c-3.403.005-6.157 2.767-6.154 6.17v182.472h127.833V290.937c.001-1.637-.649-3.206-1.806-4.364s-2.727-1.807-4.364-1.806zm-57.366 103.678c-7.518-.035-13.605-6.121-13.64-13.64V353.76c.006-7.528 6.111-13.628 13.64-13.628s13.633 6.1 13.64 13.628v21.047c-.035 7.518-6.121 13.605-13.64 13.64z" class="B"/><path d="M343.438 467.573v17.605a3.45 3.45 0 0 0 3.442 3.442h121.743a3.46 3.46 0 0 0 3.442-3.442v-17.605z" fill="#ccc"/><path d="M656.773 0h-493.76c-8.832.014-15.989 7.171-16.003 16.003v333.192a16.02 16.02 0 0 0 16.003 16.003h493.76a16.02 16.02 0 0 0 16.003-16.003V16.003C672.762 7.171 665.605.014 656.773 0z" class="B"/><path d="M652.651 11.559H167.138a8.58 8.58 0 0 0-8.558 8.576v324.933c.008 4.723 3.835 8.55 8.558 8.558h485.513c4.723-.008 8.55-3.835 8.558-8.558V20.135a8.58 8.58 0 0 0-8.558-8.576z" fill="#fff"/><path d="M661.209 20.135v324.933c-.008 4.723-3.835 8.55-8.558 8.558H481.448a210.09 210.09 0 0 1-45.834-61.67q-1.121-2.242-2.135-4.537c-10.348-22.455-16.614-46.573-18.505-71.225-.125-1.512-.231-3.025-.302-4.555a201.49 201.49 0 0 1-.338-11.868 209.13 209.13 0 0 1 14.75-77.417 143.41 143.41 0 0 1 1.851-4.555c19.68-46.239 55.24-83.919 100.263-106.241h121.454a8.58 8.58 0 0 1 8.558 8.576z" class="D"/><path d="M628.245 56.327H173.952c-.983-.021-1.769-.824-1.769-1.807s.786-1.786 1.769-1.807h454.293c.983.021 1.769.824 1.769 1.807s-.786 1.786-1.769 1.807z" class="F"/><g fill="#3f3d56"><ellipse cx="204.877" cy="32.666" rx="10.588" ry="10.823"/><ellipse cx="241.452" cy="32.666" rx="10.588" ry="10.823"/><ellipse cx="278.027" cy="32.666" rx="10.588" ry="10.823"/><use href="#D"/><use href="#D" y="7.384"/><use href="#D" y="14.759"/></g><rect x="245.183" y="161.871" width="72.207" height="15.441" rx="4.339" class="D"/><g class="B"><rect x="208.512" y="192.752" width="145.55" height="15.441" rx="4.339"/><rect x="208.512" y="223.633" width="145.55" height="15.441" rx="4.339"/></g><path d="M220.392 334.997a53.05 53.05 0 0 1-3.345 18.629h-49.909c-4.723-.008-8.55-3.835-8.558-8.558v-62.773c2.789-.451 5.609-.677 8.434-.676 14.157-.001 27.735 5.623 37.745 15.633s15.634 23.588 15.633 37.745z" class="D"/><path d="M661.654 122.355V117.8h-76.349V65.008h-4.537V117.8h-87.505V65.008h-4.537V117.8h-57.791l-1.851 4.555h59.642v89.285h-74.054l.302 4.555h73.751v71.225h-55.247q1.014 2.295 2.135 4.537h53.112v59.873h4.537v-59.873h87.505v59.873h4.537v-59.873h76.349v-4.537h-76.349 0c0-18.89 7.504-37.006 20.861-50.364s31.474-20.861 50.364-20.861h5.124v-4.555h-76.349v-89.284zm-80.886 165.064h-87.505v-71.225h87.505zm0-75.78h-87.505v-1.779c0-48.328 39.177-87.505 87.505-87.505h0z" opacity=".2"/><path d="M600.182 319.916c-1.995.092-3.835-1.073-4.605-2.915s-.307-3.97 1.159-5.326l.326-1.295q-.064-.156-.129-.311c-4.377-10.438-19.213-10.366-23.553.088-3.852 9.278-8.757 18.572-9.964 28.382-.532 4.336-.308 8.732.663 12.991-9.048-19.737-13.746-41.188-13.776-62.9-.002-5.448.301-10.892.907-16.307q.751-6.658 2.084-13.221a153.2 153.2 0 0 1 30.381-64.93 40.77 40.77 0 0 0 16.956-17.592 31.1 31.1 0 0 0 2.828-8.499c-.825.108-1.664.176-2.49.23l-.785.041-.097.004a4.71 4.71 0 0 1-3.869-7.675q.535-.658 1.07-1.315l1.637-2.016c.062-.064.121-.132.176-.203l1.868-2.301a13.62 13.62 0 0 0-4.466-4.317c-6.239-3.654-14.845-1.123-19.352 4.52-4.52 5.643-5.372 13.56-3.803 20.61 1.34 6.036 4.263 11.57 7.551 16.835l-1.029 1.286a154.19 154.19 0 0 0-16.093 25.496 64.1 64.1 0 0 0-3.827-29.772c-3.663-8.836-10.528-16.278-16.574-23.917-7.262-9.175-22.153-5.171-23.433 6.46q-.019.169-.036.338 1.347.76 2.637 1.613a6.45 6.45 0 0 1-2.6 11.737l-.132.02c.32 3.236.885 6.444 1.692 9.595 4.722 17.782 16.645 32.789 32.898 41.41l1.57.798a157.38 157.38 0 0 0-8.471 39.867 149.27 149.27 0 0 0 .108 24.102l-.041-.284c-1.732-8.916-6.488-16.96-13.465-22.775-10.362-8.512-25.002-11.647-36.181-18.489-5.381-3.294-12.277.963-11.338 7.201q.022.149.046.299a43.33 43.33 0 0 1 4.858 2.341q1.347.76 2.637 1.613a6.45 6.45 0 0 1-2.6 11.737l-.132.02-.271.041c2.847 6.799 6.844 13.056 11.814 18.499a66.13 66.13 0 0 0 47.96 21.043h.014c2.445 10.623 5.987 20.964 10.569 30.854h37.756c.135-.42.257-.853.379-1.272-3.495.22-7.003.011-10.447-.622l8.404-10.339c.062-.064.121-.132.176-.203l4.276-5.264.001-.002c.076-5.393-.543-10.772-1.841-16.007zm-43.236-85.052l.02-.027-.02.054zm-8.363 75.39l-.325-.731a31.3 31.3 0 0 0 0-1.597c0-.149-.027-.298-.027-.447l.365 2.801z" class="C"/><path d="M263.977 231.612h0v-50.743c0-16.22-13.149-29.369-29.369-29.369H127.101c-16.22 0-29.369 13.149-29.369 29.369V459.25a29.37 29.37 0 0 0 29.369 29.369h107.507a29.37 29.37 0 0 0 29.369-29.369V267.732h0a1.85 1.85 0 0 0 1.852-1.852v-32.415c0-1.023-.829-1.852-1.852-1.852z" class="B"/><path d="M257.726 181.07v277.98c.001 12.017-9.673 21.795-21.69 21.92-.08.008-.16.012-.24.01h-108.03c-12.111-.001-21.929-9.819-21.93-21.93V181.07c.001-12.111 9.819-21.929 21.93-21.93h13.11a10.43 10.43 0 0 0 9.65 14.36h61.59c3.467-.01 6.703-1.74 8.635-4.619s2.309-6.529 1.005-9.741h14.04c12.111.001 21.929 9.819 21.93 21.93z" fill="#fff"/><path d="M236.306 472.4q0 4.32-.27 8.57c-.08.008-.16.012-.24.01h-108.03c-12.111-.001-21.929-9.819-21.93-21.93V335.17c73.102 3.686 130.479 64.035 130.47 137.23z" class="G"/><use href="#E" class="B"/><rect x="164.178" y="246.426" width="35.207" height="15.441" rx="4.339" class="D"/><g class="B"><rect x="127.507" y="277.307" width="108.55" height="15.441" rx="4.339"/><rect x="127.507" y="308.188" width="108.55" height="15.441" rx="4.339"/></g><path d="M207.687 465.161a2.23 2.23 0 0 1-1.617-3.867l.153-.608q-.03-.073-.061-.146a5.99 5.99 0 0 0-11.053.041c-1.808 4.354-4.109 8.715-4.676 13.319-.25 2.035-.144 4.098.311 6.096a71.07 71.07 0 0 1-6.465-29.517c-.001-2.557.141-5.111.425-7.652q.352-3.124.978-6.204a71.89 71.89 0 0 1 14.257-30.469 19.13 19.13 0 0 0 7.957-8.256c.633-1.258 1.08-2.602 1.327-3.988a18.13 18.13 0 0 1-1.168.108l-.368.019-.046.002a2.21 2.21 0 0 1-1.816-3.602q.251-.309.502-.617l.768-.946a1.1 1.1 0 0 0 .083-.095l.876-1.08a6.39 6.39 0 0 0-2.096-2.026c-2.928-1.715-6.966-.527-9.081 2.121-2.121 2.648-2.521 6.363-1.784 9.672a25.62 25.62 0 0 0 3.544 7.9l-.483.603c-2.902 3.732-5.432 7.739-7.552 11.964a30.08 30.08 0 0 0-1.796-13.971c-1.719-4.147-4.941-7.639-7.778-11.223-1.535-1.969-4.104-2.82-6.511-2.157s-4.177 2.711-4.486 5.188q-.009.079-.017.158.632.357 1.238.757c1.038.693 1.543 1.953 1.274 3.171s-1.26 2.146-2.494 2.337l-.062.01c.15 1.519.415 3.024.794 4.502 2.216 8.344 7.811 15.387 15.438 19.432l.737.375c-2.13 6.037-3.467 12.326-3.975 18.708a70.05 70.05 0 0 0 .051 11.31l-.019-.133a18.51 18.51 0 0 0-6.319-10.688c-4.863-3.994-11.732-5.465-16.978-8.676-1.138-.731-2.597-.734-3.739-.009s-1.759 2.047-1.581 3.388l.021.14c.782.319 1.543.685 2.28 1.099q.632.357 1.238.757c1.038.693 1.543 1.953 1.274 3.171s-1.26 2.146-2.494 2.337l-.062.009-.127.019a30.14 30.14 0 0 0 5.544 8.681c5.823 6.249 13.965 9.821 22.506 9.875h.006a73.83 73.83 0 0 0 4.96 14.479h17.718c.064-.197.121-.4.178-.597a20.13 20.13 0 0 1-4.903-.292l3.944-4.852a1.1 1.1 0 0 0 .083-.095l2.007-2.47v-.001c.036-2.531-.255-5.055-.864-7.512zm-20.289-39.912l.009-.013-.009.025zm-3.925 35.378l-.152-.343a14.67 14.67 0 0 0 0-.749c0-.07-.013-.14-.013-.21l.171 1.315z" fill="#ccc"/><use href="#E" x="-0.5" y="-33" class="B"/><path d="M164.326 162c.002-1.38 1.12-2.498 2.5-2.5h17a2.5 2.5 0 1 1 0 5h-17c-1.38-.002-2.498-1.12-2.5-2.5z" fill="#fff"/><use href="#E" y="29" class="B"/><circle cx="193.326" cy="162" r="2.5" fill="#fff"/><path d="M858.941 488.613l-857.75.307a1.19 1.19 0 0 1-1.187-1.191 1.19 1.19 0 0 1 1.187-1.191l857.75-.307a1.19 1.19 0 1 1 0 2.381z" class="F"/><path d="M366.773 226.106l-4.512.967c-.03-1.887-.265-3.766-.701-5.602a16.82 16.82 0 0 1-2.54 6.294l-25.876 5.526-24.843-26.218c-.038-13.109 7.242-23.071 20.293-23.071.787 0 1.602.038 2.426.114 14.657-2.453 28.625 7.137 31.601 21.696 9.251 9.109 5.896 14.464 4.152 20.293z" class="C"/><path d="M379.495 532.711h9.386l4.466-36.205-13.854.001.002 36.204z" class="E"/><path d="M377.167 528.081l14.838-.886v6.357l14.107 9.743a3.97 3.97 0 0 1-2.256 7.239H386.19l-3.045-6.288-1.189 6.288h-6.66z" class="C"/><path d="M269.531 522.494l8.164 4.632 21.75-29.285-12.049-6.836-17.865 31.489z" class="E"/><path d="M269.791 517.318l13.342 6.552-3.137 5.529 7.461 15.435a3.97 3.97 0 0 1-5.535 5.182l-15.364-8.717.455-6.972-4.137 4.882-5.793-3.287z" class="C"/><path d="M414.19 232.449c-2.435.352-4.588 1.765-5.882 3.858s-1.593 4.651-.819 6.986l-14.363 12.432 5.426 10.571 20.037-17.841a8.36 8.36 0 0 0-4.4-16.005z" class="E"/><g class="C"><path d="M399.726 275.199c-4.791 7.256-15.529 14.264-31.465 20.477a6.84 6.84 0 0 1-5.498-.18c-6.014-2.737-9.868-12.912-10.23-13.899l-11.648-15.713c-.207-.229-5.654-6.411-5.031-12.488a8.88 8.88 0 0 1 3.823-6.362c8.817-6.536 28.579 16.165 31.143 19.183l12.897-7.858 9.397-4.193 7.586-9.231 10.681 10.921-9.606 15.283a18.42 18.42 0 0 1-2.048 4.058zm-33.498 27.84S393.826 347 388.826 352s-12.781 6.313-12.781 6.313L358.826 336z"/><path d="M341.826 243l13.007 8.799c12.422 8.403 17.759 24.03 13.072 38.276l-3.662 11.13zm-23 120l-1.739 6.057-5.934 73.041-29.646 55.25 14.149 10.106 40.427-52.555 15.99-52.183 25.111 115.519 18.866-1.348-13.103-160.165-24.863-45.083L318.826 363z"/></g><path d="M339.614 245.213l18.104 14.795c3.973 3.247 6.834 7.653 8.184 12.603h0c.613 2.248.904 4.571.865 6.901l-.539 32.127L382.826 356s-45 17-51 2 7.788-112.787 7.788-112.787z" class="D"/><path d="M345.029 365.786l-28.314.097-.356-.072v-13.521L321.826 328c-.639-7.541-2.136-17.485-2-26 .49-30.775-1.023-60.837-1.023-60.837l11.898-10.983 5.405 3.517 10.026 10.026c11.654 28.682 20.902 55.684 20.961 57.418l.733 29.858-3 12c-13.571 9.58-1.171 22.786-19.797 22.786z" class="C"/><path opacity=".2" d="M323.846 267.973l-2.733 17.058 18.501 7.631-15.768-24.689z"/><circle cx="342.484" cy="208.867" r="18.114" class="E"/><path d="M312.133 300.773h0c9.916 11.482 26.343 14.802 39.94 8.073l3.942-1.951z" opacity=".2"/><path d="M375.164 296.603c-1.636-1.838-4.001-2.856-6.46-2.782s-4.759 1.234-6.281 3.167l-18.289-5.134-5.831 10.353 25.929 6.888a8.36 8.36 0 0 0 10.931-12.492z" class="E"/><path d="M331.52 308.093c-8.695.001-20.461-5.097-34.427-14.972a6.84 6.84 0 0 1-2.88-4.687c-1.03-6.527 5.336-15.35 5.96-16.196l6.692-18.379c.077-.299 2.234-8.25 7.648-11.08 2.307-1.183 5.016-1.299 7.415-.316 10.313 3.756 2.26 32.756 1.155 36.559l13.664 6.431 8.677 5.531 11.883 1.243-3.226 14.931-18.047.406a18.42 18.42 0 0 1-4.515.527zm32.685-111.143c-1.45 1.886-6.445 3.554-12.379 4.9.009-.123.009-.246.009-.37a26.04 26.04 0 0 0-.701-5.602 16.82 16.82 0 0 1-2.54 6.294l-.294.427c-5.09 1.005-10.474 1.782-14.692 2.303 2.9 10.445 14.019 19.014 12.815 25.365l-32.578 6.654a25.54 25.54 0 0 0-.626-7.867 16.93 16.93 0 0 1-4.72 8.957l-2.768.569-.825-4.066c-7.147-17.166 2.815-34.739 19.137-43.829a19.84 19.84 0 0 1 12.569-8.436l4.066-.834c5.18-1.06 10.569-.018 14.98 2.895s7.486 7.46 8.545 12.64z" class="C"/><path d="M442.027 525.336l.482-10.832c5.022-2.684 10.623-4.102 16.317-4.131-7.837 6.407-6.858 18.758-12.171 27.375-3.399 5.418-9.077 8.996-15.431 9.724l-6.558 4.015a35.26 35.26 0 0 1 7.432-28.573 34.06 34.06 0 0 1 6.26-5.816c1.571 4.142 3.669 8.237 3.669 8.237z" class="G"/><path d="M457.927 551.741H229.545a1.19 1.19 0 1 1 0-2.381h228.382a1.19 1.19 0 0 1 1.034 1.787 1.19 1.19 0 0 1-1.034.594z" class="F"/><defs ><path id="B" d="M617.52 85.006c.001-1.26 1.022-2.28 2.282-2.282h15.516a2.28 2.28 0 1 1 0 4.563h-15.516c-1.26-.001-2.28-1.022-2.282-2.282z"/><path id="C" d="M788.752 117.406h-10.845a.82.82 0 0 0-.805.821.82.82 0 0 0 .805.821h10.845a.82.82 0 0 0 .805-.821.82.82 0 0 0-.805-.821z"/><path id="D" d="M606.224 24.526h-25.981a1.97 1.97 0 0 0-1.929 1.967 1.97 1.97 0 0 0 1.929 1.967h25.981a1.97 1.97 0 0 0 1.929-1.967 1.97 1.97 0 0 0-1.929-1.967z"/><path id="E" d="M98.326 260c-1.38-.002-2.498-1.12-2.5-2.5v-17a2.5 2.5 0 1 1 5 0v17c-.002 1.38-1.12 2.498-2.5 2.5z"/></defs></svg>