<svg xmlns="http://www.w3.org/2000/svg" viewBox="0 0 500 500" xmlns:v="https://vecta.io/nano"><style><![CDATA[.B{stroke-miterlimit:10}.C{stroke:#263238}.D{fill:#fff}.E{fill:#263238}.F{fill:#92e3a9}.G{fill:none}.H{stroke-linejoin:round}]]></style><defs><clipPath id="A"><path d="M69.52 81.58h362.16v261.56H69.52z" class="C D H"/></clipPath><path id="B" d="M333.11,35.89S259.66,14.26,187.13,58,77.62,183.33,45.89,248.78,31.75,378.36,86.71,405.29s92.77-18.61,170.17-24.54,98.14,3.71,162.63-41.6S496.27,193.69,446.1,122.5,333.11,35.89,333.11,35.89Z"/><path id="C" d="M69.52 81.58h362.16v261.56H69.52z"/><path id="D" d="M289.34 361.77h42.3v38.81h-42.3z"/><path id="E" d="M251.07 381.6h96.44v72.71h-96.44z"/><path id="F" d="M276.16 381.6h71.34v72.71h-71.34z"/><path id="G" d="M321.88 407.53a5.26 5.26 0 1 1-5.26-5.26 5.26 5.26 0 0 1 5.26 5.26z"/></defs><use href="#B" class="F"/><use href="#B" opacity=".7" class="D"/><path d="M166.16 74.17L156.03 58H66.79v16.17 5.82V349h367.3V74.17H166.16z" class="E"/><use href="#C" class="D"/><g clip-path="url(#A)"><path d="M425.04 79.34h8.41v265.78h-8.41z" opacity=".17"/><path d="M425.04 240.04h8.41v102.93h-8.41z" opacity=".17"/><path d="M68.08 78.05h364.07v14.23H68.08z" class="B C F"/></g><use href="#C" class="C G H"/><g opacity=".17"><path d="M258.21 106h-25.34a2.23 2.23 0 0 1-2.23-2.24h0a2.23 2.23 0 0 1 2.23-2.23h25.34a2.23 2.23 0 0 1 2.23 2.23h0a2.23 2.23 0 0 1-2.23 2.24zm50.67 0h-25.34a2.23 2.23 0 0 1-2.23-2.24h0a2.23 2.23 0 0 1 2.23-2.23h25.34a2.23 2.23 0 0 1 2.24 2.23h0a2.24 2.24 0 0 1-2.24 2.24zm50.67 0h-25.33a2.24 2.24 0 0 1-2.24-2.24h0a2.23 2.23 0 0 1 2.24-2.23h25.33a2.23 2.23 0 0 1 2.24 2.23h0a2.24 2.24 0 0 1-2.24 2.24zm50.68 0h-25.34a2.24 2.24 0 0 1-2.24-2.24h0a2.23 2.23 0 0 1 2.24-2.23h25.34a2.23 2.23 0 0 1 2.23 2.23h0a2.23 2.23 0 0 1-2.23 2.24z"/></g><g class="C G"><g class="B"><path d="M79.57 117.35h215.74v126.68H79.57zm1.07 139.73h61.88m-61.88 13.05h61.88m-61.88 13.05h61.88m-61.88 13.06h61.88"/><path d="M90.75 121.69a7.15 7.15 0 1 0 7.15 7.15 7.15 7.15 0 0 0-7.15-7.15zm1 8.83l-3.07 1.78v-7.1l3.03 1.8 3.08 1.78zm215.07-13.17h95.97v76.78h-95.97z"/><path d="M402.79 171.46L388.2 156.5l-18.42 9.22-34.55-29.18-28.41 30.9v26.69h95.97v-22.67z"/></g><circle cx="370.93" cy="134.62" r="8.83"/><g class="B"><path d="M306.82 210.25h95.97v76.78h-95.97z"/><path d="M402.79 264.36L388.2 249.4l-18.42 9.22-34.55-29.18-28.41 30.9v26.68h95.97v-22.66z"/></g><circle cx="370.93" cy="227.52" r="8.83" transform="matrix(.16 -.99 .99 .16 86.78 557.09)"/></g><path d="M80.32,419.17s-26.49-46.52-20.38-58.35,21.74,9.46,21.74,9.46S68.09,326.91,75.57,308s20.37,0,21.05,13.41-2.71,36.27-2.71,36.27,5.43-47.31,18.34-33.12-16.31,61.51-16.31,61.51,19.7-11,19,3.16S91.19,416,91.19,416" class="F"/><g class="B C G"><path d="M80.55 410.5S56 387.63 68 377.38s18.22 11 18.22 11S73 323 94.38 320.6s5.62 56.78 5.62 56.78 18.23-25.24 17-4.73-28.28 37.85-28.28 37.85m3.87-4.16l-16.57-17.95"/><path d="M89.14 407.72l4.48-52.47"/><path d="M88.45 403.92l14.84-19.68"/></g><path d="M109.92 400.26H64.09l4.58 54.05h36.66l4.59-54.05z" class="E"/><g class="B C"><path d="M347.44 381.6l12.75 32.72h-26.77l-11.08-32.72h25.1z" class="F"/><g class="D"><use href="#D"/><use href="#D" x="-7.19" y="8.71"/><use href="#D" x="-18.18" y="16.29"/><use href="#D" x="-36.96" y="23"/></g><g class="F"><use href="#E"/><use href="#F"/><path d="M276.16 381.6l-10.46 32.72h-26.76l12.13-32.72h25.09z"/></g><path d="M288.27 395.29h44.01v45.15h-44.01z" class="D"/><g class="E"><path d="M332.28 428.48l-8.24-8.58-7.23 4.18-12.68-12.17-15.73 12.55-.13.29v15.69h44.01v-11.96z"/><use href="#G"/></g><g class="D"><use href="#D" x="112"/><use href="#D" x="104.81" y="8.71"/><use href="#D" x="93.82" y="16.29"/><use href="#D" x="75.04" y="23"/></g><g class="F"><use href="#E" x="112"/><use href="#F" x="112"/></g></g><path d="M421 388.5v.57a2.59 2.59 0 0 0-1.33.3 2.75 2.75 0 0 0-1 1.1 16.5 16.5 0 0 0-1 2.57l-5.84 16.88h-.61l-4.78-13.39-4.74 13.39h-.55L395 392.53l-.88-2.3a2 2 0 0 0-.84-.87 3.09 3.09 0 0 0-1.44-.29v-.57h7.75v.57h-.37a1.85 1.85 0 0 0-1.25.38 1.12 1.12 0 0 0-.44.89 10.89 10.89 0 0 0 .68 2.49l4.13 11.75 3.47-10-.61-1.76-.5-1.41a7.87 7.87 0 0 0-.72-1.36 1.94 1.94 0 0 0-.5-.49 2.58 2.58 0 0 0-.77-.4 3.42 3.42 0 0 0-.93-.1v-.57h8.16v.57h-.56a1.82 1.82 0 0 0-1.27.38 1.31 1.31 0 0 0-.4 1 9.8 9.8 0 0 0 .7 2.75l4 11.38 4-11.54a9.78 9.78 0 0 0 .68-2.65 1.13 1.13 0 0 0-.23-.67 1.18 1.18 0 0 0-.56-.43 4.59 4.59 0 0 0-1.53-.22v-.57z" class="E"/><path d="M422.67 392.45h25.11m-25.11 5.83h25.11m-25.11 5.82h25.11m-25.11 5.82h25.11" class="B C G"/><use href="#D" x="75.04" y="-49.68" class="B C D"/><g class="F B C"><use href="#E" x="112" y="-72.68"/><use href="#F" x="112" y="-72.68"/></g><path d="M400.27 322.62h44.01v45.15h-44.01z" class="B C D"/><g class="E B C"><path d="M444.28 355.8l-8.24-8.58-7.23 4.18-12.68-12.17-15.73 12.56-.13.28v15.69h44.01V355.8z"/><use href="#G" x="112" y="-72.68"/></g><path d="M284.74 177.49L310 217.25l-33.8-.28s.85-32.95 1.7-36.64 5.99-3.97 6.84-2.84z" class="B C D"/><path d="M136.62 202.992l203.296 13.289-7.312 111.861-203.296-13.289z" class="B C F"/><path d="M130.55 296.035l203.296 13.289-1.229 18.8-203.296-13.289z" class="B C D"/><path d="M135.243 303.517l192.958 12.613-.305 4.67-192.958-12.613z" class="E"/><g class="C"><path d="M140 306.24a2.2 2.2 0 1 0-2.34 2.06 2.2 2.2 0 0 0 2.34-2.06z" class="B D"/><path d="M163.05 220.72a10.94 10.94 0 1 1-10.2-11.63 10.93 10.93 0 0 1 10.2 11.63z" class="E H"/></g><path d="M147.82 213.23l10.77 7.2-11.62 5.73.85-12.93z" class="F"/><g class="B C"><path d="M215.25 130.17s-4.21 11.78-3.93 14 1.4 3.09 0 4.49-5.89 4.77-5.33 6.73 3.37 4.21 3.37 4.21 3.08 12.34 6.17 13.74 7.85.28 7.85.28l3.36 9 23.56-5.89-1.4-14.31s7-13.46 5.33-21.59-16.27-16-25.8-16-12.34 3.1-13.18 5.34z" class="D"/><path d="M215.4,163s3.67-.48,4.79-2.71" class="G"/></g><path d="M215.72 148.62c0 1-.33 1.76-.72 1.76s-.72-.79-.72-1.76.32-1.76.72-1.76.72.79.72 1.76z" class="E"/><g class="B C"><path d="M214,144.63s2.08-2.56,3.35.64" class="G"/><path d="M220.85 134.66s-9.25.56-9.81-8.14 12.06-13.46 16.83-13.46 1.4 4.77 1.4 4.77 11.78-3.37 14.86-.28.57 5.61.57 5.61 15.42 6.45 15.42 17.67-8.12 22.17-9.53 24.4-4.77 4.21-10.94 4.49-9.82-2.81-11.22-7l-1.4-4.2s4.76-5.05 2.52-9.26-3.65-1.68-4.21 0 .56 3.37-.56 3.37-.28-1.4-3.36-4.49-5.61-4.49-4.49-7.57a19.13 19.13 0 0 1 3.92-5.91z" class="E"/><path d="M220.02 181.26l-3.34 7.39 42.58-9.68-4.92-6.16-34.32 8.45zm-33.1 81.86S178.31 276 175 282.72s-12.9 19.83-15.13 21.1-9.25.64-9.88 1.12-6.06 6.53-7.49 8.28.32 2.4 1.59 2.55 2.71-.63 4.3-2.07a6.85 6.85 0 0 1 3.83-1.59c.64-.16-4.3 6.69-4.14 7.81a3.61 3.61 0 0 0 3.18 2.39c1.12-.16 4-2.23 4-2.23s8 1.11 10.35-.8 5.74-12.75 6.38-14.18 18.63-17.92 25.48-23.34 11-10.36 11-14.5-21.55-4.14-21.55-4.14zm50.2 170.93s-12.68 3-20.07 3-10.6-.38-10.6 2.08 11.74 7 18.55 9.66 20.07 6.44 21.21 6.06 3.41-14.2 3.41-14.2z" class="D"/><path d="M207.2 437.72a1.55 1.55 0 0 0-.75 1.44c0 2.46 11.74 7 18.55 9.66s20.07 6.44 21.21 6.06c.26-.09.58-.88.92-2.05-13.26-2.64-34.46-12.5-39.93-15.11zm7.2-165.56s-.19 14.77 1.14 27.46l8 77.06c.62 8.71 13.63 57.37 13.63 57.37l12.5 6.63s6.25-54.15 6.25-63.24v-15.15l14.39-53.2c3.39-10.2 5.11-30.49 4.73-41.85a98 98 0 0 1-31.24 6.63c-17.66.75-29.4-1.71-29.4-1.71z" class="E"/><path d="M283.6,193.68l-5.11,40.9s-2,31-2.55,33.8-3.13,4.26-14.77,8.23-43.17,1.14-45.73-1.42-3.12-27.55-3.12-27.55-3.41,14.49-6,16.48-12.21,1.13-16.75-3.13.85-53.11.56-57.65S218,187.72,218,187.72s39.07-9,41.26-8.75,23.78-4.32,25.48-1.48,2.84,4.55,2.84,4.55" class="D"/><path d="M212.32 247.64l-7.67-37.2m49.16-13.9l-17.66 52.96m12.84-18.46l-12.84 32.1" class="G"/><path d="M187.55 249.1a3.53 3.53 0 0 0-.63 2.07c0 1.27-2.55 11.47-1.44 13.54s5.74 4.78 13.23 5.1 10.36-.8 11-2.71 2.4-11.31 2.24-12.43-1.12-.48-1.12-.48a29 29 0 0 1-14.66-.79c-7.5-2.55-8.62-4.3-8.62-4.3z" class="D"/><path d="M215.35 283l1.13 50.55c.75 18.74 3.79 35 4.93 38.82s26.88 36.73 32.75 43.73 17.23 17.61 17.23 17.61l12.83-7S267.61 403 262.3 392l-14.58-29.16 5.87-52.45 9.66-5.3" class="E"/></g><path d="M261.18 307.68l-7.91 5.27-5.55 49.91 8.15 14.58" stroke="#696969" class="B G"/><g class="C B"><path d="M271.6,433.18s-6.09,9-8.41,11.15-11.35,7.56-12.61,8.83,5.68,2.31,10.72,2.31,11.35-1.05,14.51-3,14.92-10.3,16.39-11.77-8-14.08-8-14.08Z" class="D"/><path d="M292.2 440.75c.51-.5-.26-2.29-1.49-4.44-4.6 4.84-14.78 15.14-19.11 16.42-4.74 1.41-16.83.47-20.67.12a3 3 0 0 0-.35.31c-1.26 1.26 5.68 2.31 10.72 2.31s11.35-1.05 14.51-3 14.92-10.25 16.39-11.72z" class="E"/><path d="M481 454.31H48.9" class="G"/></g></svg>