<svg xmlns="http://www.w3.org/2000/svg" viewBox="0 0 750 500" xmlns:v="https://vecta.io/nano"><style><![CDATA[.B{fill:#263238}.C{fill:#407bff}.D{fill:#fff}.E{opacity:.2}.F{opacity:.5}.G{fill:#fdaa6d}.H{opacity:.3}.I{fill:#af6f5b}.J{opacity:.4}]]></style><path d="M673.734 321.925H492.988a5.87 5.87 0 0 1-5.862-5.862V52.789a5.87 5.87 0 0 1 5.862-5.862h180.746a5.87 5.87 0 0 1 5.862 5.862v263.274a5.87 5.87 0 0 1-5.862 5.862zM492.988 47.177a5.62 5.62 0 0 0-5.612 5.612v263.274a5.62 5.62 0 0 0 5.612 5.612h180.746a5.62 5.62 0 0 0 5.612-5.612V52.789a5.62 5.62 0 0 0-5.612-5.612H492.988zm-27.682 274.748H284.559a5.87 5.87 0 0 1-5.862-5.862V52.789a5.87 5.87 0 0 1 5.862-5.862h180.747a5.87 5.87 0 0 1 5.862 5.862v263.274a5.87 5.87 0 0 1-5.862 5.862zM284.559 47.177a5.62 5.62 0 0 0-5.612 5.612v263.274a5.62 5.62 0 0 0 5.612 5.612h180.747a5.62 5.62 0 0 0 5.612-5.612V52.789a5.62 5.62 0 0 0-5.612-5.612H284.559zm-27.547 274.748H76.266a5.87 5.87 0 0 1-5.862-5.862V52.789a5.87 5.87 0 0 1 5.862-5.862h180.746a5.87 5.87 0 0 1 5.862 5.862v263.274a5.87 5.87 0 0 1-5.862 5.862zM76.266 47.177a5.62 5.62 0 0 0-5.612 5.612v263.274a5.62 5.62 0 0 0 5.612 5.612h180.746a5.62 5.62 0 0 0 5.612-5.612V52.789a5.62 5.62 0 0 0-5.612-5.612H76.266zM0 382.994h750v.12H0z" fill="#e0e0e0"/><path d="M653.626 412.37h55.729v.421h-55.729zm-158.582 4.566h14.627v.42h-14.627zM40.645 399.573h72.675v.421H40.645zm87.654 0h10.655v.421h-10.655zm45.287 7.104h157.613v.421H173.586z" fill="#ebebeb"/><g fill="#e0e0e0"><path d="M476.485 82.819c-2.202 3.353-3.682 7.036-4.471 10.834l-6.05.57v11.717l6.051.57c.788 3.798 2.269 7.481 4.471 10.835l-3.865 4.667 8.285 8.285 4.668-3.864c3.354 2.202 7.036 3.683 10.835 4.471l.57 6.051h11.717l.57-6.05c3.799-.789 7.482-2.27 10.835-4.471l4.667 3.864 8.285-8.285-3.864-4.668c2.201-3.354 3.682-7.036 4.471-10.835l6.05-.57V94.223l-6.049-.57c-.789-3.798-2.27-7.481-4.472-10.834l3.864-4.668-8.285-8.285-4.667 3.864c-3.354-2.202-7.037-3.683-10.835-4.472l-.57-6.05h-11.717l-.57 6.051c-3.798.789-7.481 2.269-10.834 4.471l-4.668-3.865-8.285 8.286 3.865 4.668zm37.568 6.047c6.194 6.194 6.194 16.238 0 22.432s-16.239 6.194-22.432 0-6.194-16.237 0-22.432 16.237-6.194 22.432 0zM88.578 262.265c-2.617 3.985-4.377 8.363-5.315 12.878l-7.191.677v13.927l7.192.677c.936 4.514 2.697 8.892 5.314 12.878l-4.594 5.548 9.848 9.848 5.548-4.593c3.986 2.617 8.363 4.377 12.878 5.314l.677 7.192h13.927l.678-7.191a37.22 37.22 0 0 0 12.879-5.315l5.548 4.593 9.848-9.848-4.593-5.548c2.616-3.986 4.377-8.363 5.314-12.878l7.19-.677V275.82l-7.19-.678c-.937-4.514-2.698-8.892-5.315-12.877l4.593-5.548-9.848-9.848-5.548 4.593c-3.986-2.617-8.364-4.378-12.878-5.315l-.677-7.191h-13.927l-.677 7.192c-4.515.938-8.892 2.697-12.877 5.314l-5.548-4.593-9.848 9.848 4.594 5.548zm44.653 7.187a18.86 18.86 0 0 1 0 26.663c-7.363 7.363-19.301 7.362-26.663 0a18.86 18.86 0 0 1 0-26.663c7.362-7.363 19.3-7.363 26.663 0zm61.871-200.516c-2.202 3.353-3.682 7.036-4.471 10.835l-6.05.57v11.717l6.051.57c.788 3.798 2.269 7.481 4.471 10.835l-3.865 4.667 8.285 8.285 4.667-3.864c3.354 2.202 7.036 3.683 10.835 4.471l.57 6.051h11.717l.57-6.05c3.799-.789 7.482-2.27 10.835-4.471l4.667 3.864 8.285-8.285-3.864-4.668c2.201-3.354 3.682-7.036 4.471-10.835l6.05-.57V80.341l-6.049-.57c-.789-3.798-2.27-7.481-4.472-10.834l3.864-4.668-8.285-8.285-4.667 3.864c-3.354-2.202-7.037-3.683-10.835-4.472l-.57-6.05h-11.717l-.57 6.051c-3.798.789-7.481 2.269-10.834 4.471l-4.668-3.865-8.285 8.286 3.865 4.668zm37.568 6.047c6.194 6.194 6.194 16.238 0 22.432s-16.239 6.194-22.432 0-6.194-16.237 0-22.432 16.237-6.194 22.432 0zm204.77-29.335c-1.046 1.592-1.749 3.342-2.124 5.146l-2.874.271v5.565l2.874.271c.374 1.804 1.078 3.553 2.124 5.146l-1.836 2.217 3.935 3.935 2.217-1.835a14.85 14.85 0 0 0 5.146 2.123l.271 2.874h5.565l.271-2.874c1.804-.375 3.554-1.078 5.146-2.124l2.217 1.835 3.935-3.935-1.835-2.217a14.87 14.87 0 0 0 2.123-5.146l2.873-.271v-5.565l-2.873-.271c-.375-1.804-1.078-3.553-2.124-5.146l1.835-2.217-3.935-3.935-2.217 1.835c-1.593-1.046-3.342-1.75-5.146-2.124l-.271-2.874h-5.565l-.271 2.874c-1.804.375-3.553 1.078-5.146 2.124l-2.217-1.836-3.935 3.936 1.836 2.217zm17.844 2.872c2.942 2.942 2.942 7.713 0 10.655s-7.713 2.942-10.655 0-2.942-7.712 0-10.655 7.712-2.942 10.655 0zM254.343 33.096c-1.046 1.593-1.749 3.342-2.124 5.146l-2.874.271v5.565l2.874.271c.374 1.804 1.078 3.553 2.124 5.146l-1.836 2.217 3.935 3.935 2.217-1.835a14.85 14.85 0 0 0 5.146 2.123l.271 2.874h5.565l.271-2.874c1.804-.375 3.554-1.078 5.147-2.124l2.217 1.835 3.935-3.935-1.835-2.217a14.87 14.87 0 0 0 2.123-5.146l2.874-.271v-5.565l-2.873-.271c-.375-1.804-1.078-3.553-2.124-5.146l1.835-2.217-3.935-3.935-2.217 1.835c-1.593-1.046-3.342-1.75-5.146-2.124l-.271-2.874h-5.565l-.271 2.874c-1.804.375-3.553 1.078-5.146 2.124l-2.217-1.836-3.935 3.936 1.836 2.217zm17.844 2.872c2.942 2.942 2.942 7.713 0 10.655s-7.713 2.942-10.655 0-2.942-7.712 0-10.655 7.712-2.942 10.655 0zM73.408 343.605c-1.046 1.593-1.749 3.342-2.124 5.146l-2.874.271v5.565l2.874.271c.374 1.804 1.078 3.553 2.124 5.146l-1.836 2.217 3.936 3.935 2.217-1.835c1.593 1.046 3.342 1.749 5.146 2.124l.271 2.874h5.565l.271-2.874c1.804-.375 3.554-1.078 5.146-2.124l2.217 1.835 3.936-3.935-1.835-2.217a14.87 14.87 0 0 0 2.123-5.146l2.874-.271v-5.565l-2.873-.271c-.375-1.804-1.078-3.553-2.124-5.146l1.835-2.217-3.935-3.935-2.217 1.835c-1.593-1.046-3.342-1.75-5.146-2.124l-.271-2.874h-5.566l-.271 2.874c-1.804.375-3.553 1.078-5.146 2.124l-2.217-1.836-3.936 3.936 1.836 2.217zm17.844 2.872c2.942 2.942 2.942 7.713 0 10.655s-7.713 2.942-10.655 0-2.942-7.713 0-10.655 7.713-2.942 10.655 0zm570.986-194.246c-1.046 1.592-1.749 3.342-2.124 5.146l-2.874.271v5.565l2.874.271c.374 1.804 1.078 3.553 2.124 5.146l-1.836 2.217 3.935 3.935 2.217-1.835a14.85 14.85 0 0 0 5.146 2.123l.271 2.874h5.565l.271-2.874c1.804-.375 3.554-1.078 5.146-2.124l2.217 1.835 3.935-3.935-1.835-2.217a14.87 14.87 0 0 0 2.123-5.146l2.873-.271v-5.565l-2.873-.271c-.375-1.804-1.078-3.553-2.124-5.146l1.835-2.217-3.935-3.935-2.217 1.835a14.86 14.86 0 0 0-5.146-2.124l-.271-2.874h-5.566l-.271 2.874c-1.804.375-3.553 1.078-5.146 2.124l-2.217-1.836-3.935 3.936 1.836 2.217zm17.844 2.872c2.942 2.942 2.942 7.713 0 10.655s-7.713 2.942-10.655 0-2.942-7.712 0-10.655 7.712-2.942 10.655 0zm-615.617-17.08c-1.046 1.592-1.749 3.342-2.124 5.146l-2.874.271v5.565l2.874.271c.374 1.804 1.078 3.553 2.124 5.146l-1.836 2.217 3.935 3.935 2.217-1.835c1.593 1.046 3.342 1.749 5.146 2.124l.271 2.874h5.565l.271-2.874c1.804-.375 3.554-1.078 5.146-2.124l2.217 1.835 3.935-3.935-1.835-2.217a14.85 14.85 0 0 0 2.123-5.146l2.874-.271v-5.565l-2.873-.271c-.375-1.804-1.078-3.553-2.124-5.146l1.835-2.217-3.935-3.935-2.217 1.835c-1.593-1.046-3.342-1.75-5.146-2.124l-.271-2.874h-5.566l-.271 2.874c-1.804.375-3.553 1.078-5.146 2.124l-2.217-1.836-3.935 3.936 1.836 2.217zm17.844 2.872c2.942 2.942 2.942 7.713 0 10.655s-7.713 2.942-10.655 0-2.942-7.713 0-10.655 7.713-2.942 10.655 0zm574.708 276.824c-.015-.481-1.632-48.2-9.394-55.748-7.549-7.339-16.214-.273-16.578.031l-.778-.933c.098-.083 9.877-8.065 18.204.031 8.111 7.887 9.697 54.596 9.761 56.581l-1.214.038z"/><path d="M657.684 427.098c-.056-.57-5.305-57.288 15.408-81.059l.916.797c-20.369 23.378-15.169 79.579-15.115 80.143l-1.209.119z"/><path d="M656.918 421.098l-1.212-.081c.043-.643 4.054-64.479-11.14-78.454l.822-.895c15.619 14.367 11.704 76.779 11.53 79.429zm1.978-.036l-1.215-.009c.015-1.758.501-43.119 12.25-49.851 2.612-1.498 5.169-1.748 7.602-.742 7.104 2.939 10.625 15.582 10.771 16.118l-1.172.32c-.034-.126-3.51-12.607-10.065-15.316-2.066-.853-4.263-.628-6.532.673-11.148 6.389-11.635 48.384-11.639 48.808zm-4.576.03l-1.212-.069c.018-.326 1.772-32.685-6.961-44.086-2.116-2.762-4.413-4.079-6.839-3.909-5.722.4-10.52 8.773-10.568 8.857l-1.058-.598c.208-.368 5.165-9.025 11.539-9.471 2.851-.203 5.509 1.274 7.89 4.382 9.007 11.758 7.286 43.546 7.208 44.892z"/><path d="M656.235 425.494c-.238-3.139-5.709-77.024 3.917-90.044l.976.721c-9.36 12.66-3.74 88.466-3.683 89.23l-1.211.093z"/></g><path d="M680.15 377.948s-5.775 2.129-4.058 7.155 19.978 13.298 19.978 13.298 7.648-7.01.624-18.41-16.388-5.64-16.544-2.043zm-25.105-9.568s6.149-.258 6.499 5.042-13.322 19.962-13.322 19.962-9.756-3.527-7.661-16.752 12.956-11.512 14.484-8.252zm-5.206-25.369s4.1-.44 3.77-2.938-15.938-8.925-25.146 1.468c0 0 5.896 10.129 14.42 10.261s6.957-8.792 6.957-8.792zm7.64-6.064s-3.712 1.795-4.753-.499 8.806-16.003 22.118-12.053c0 0 .353 11.714-6.811 16.335s-10.554-3.782-10.554-3.782zm-19.411 38.981s2.829-2.285-.224-3.4-18.037-.798-18.193 14.044c0 0 17.451 2.9 19.611-2.753s-1.193-7.891-1.193-7.891zm35.585-33.289s-2.83-2.285.224-3.4 18.037-.798 18.193 14.044c0 0-17.451 2.9-19.611-2.754s1.194-7.89 1.194-7.89zm-9.226 11.956s-.249-2.777 1.993-1.689 10.053 9.515 1.956 17.512c0 0-10.899-8.072-8.935-12.276s4.985-3.547 4.985-3.547zm-28.889 3.958s1.692-2.217-.786-2.491-13.579 2.688-10.993 13.771c0 0 13.524-1.017 14.104-5.62s-2.325-5.659-2.325-5.659z" fill="#ebebeb"/><path d="M670.265 442.47h-27.28l-7.256-33.468h41.103l-6.567 33.468z" fill="#f0f0f0"/><path d="M633.254 408.517H679.2v9.624h-45.946z" fill="#e6e6e6"/><path d="M591.809,450.672c0,6.71-93.517,12.149-208.875,12.149s-208.875-5.439-208.875-12.149,93.516-12.149,208.875-12.149,208.875,5.439,208.875,12.149Z" fill="#f5f5f5"/><path d="M108.579 121.007L94.734 98.134l16.84-25.728 27.259 4.037 26.59 44.258-5.893 8.685-50.951-8.379z" fill="#e6e6e6"/><path d="M85.391 91.846l16.842-25.742 9.407 6.39L94.8 98.222l-9.409-6.376z" class="C"/><g class="B"><path d="M117.653 95.745l1.247-1.837 44.346 30.107-1.247 1.837z"/><path d="M118.601 101.064c-2.318-1.577-2.919-4.734-1.342-7.052s4.734-2.919 7.052-1.342 2.919 4.734 1.342 7.052l-.005.008c-1.579 2.312-4.731 2.909-7.046 1.334z"/></g><g class="G"><path d="M205.397 138.95l3.329 5.549a2.22 2.22 0 0 0 1.987 1.11 28.63 28.63 0 0 1 5.138.078c1.687.355 1.887-6.659 1.887-6.659l-12.341-.078z"/><path d="M202.889 139.028a7.18 7.18 0 0 1 5.893-3.085h3.995l4.961 3.085h-14.849z"/></g><rect x="190.66" y="90.904" width="370.649" height="267.86" rx="19.724" class="B"/><rect x="190.66" y="90.904" width="370.649" height="267.86" rx="19.724" class="D H"/><rect x="205.497" y="105.598" width="340.824" height="234.706" rx="11.672" class="C"/><path d="M217.32 105.596h317.479a11.68 11.68 0 0 1 11.673 11.673v211.362a11.68 11.68 0 0 1-11.672 11.672H217.32a11.68 11.68 0 0 1-11.672-11.672V117.268a11.68 11.68 0 0 1 11.672-11.672z" opacity=".7" class="D"/><path d="M212.785,105.598h323.249c5.678,0,10.288,4.61,10.288,10.288v7.345H205.497v-10.345c0-4.022,3.266-7.288,7.288-7.288Z" class="C"/><g class="D"><path d="M533.196 114.414a3.75 3.75 0 0 1-3.747 3.747c-2.07 0-3.746-1.677-3.746-3.747s1.677-3.747 3.746-3.747a3.75 3.75 0 0 1 3.747 3.747zm-10.648 0a3.75 3.75 0 0 1-3.746 3.747 3.75 3.75 0 0 1-3.747-3.747c0-2.07 1.677-3.747 3.747-3.747s3.746 1.677 3.746 3.747z"/><circle cx="508.154" cy="114.414" r="3.747"/></g><path d="M294.468 98.245h-29.401a.5.5 0 1 1 0-1h29.401a.5.5 0 1 1 0 1zm14.221 0h-6.123a.5.5 0 1 1 0-1h6.123a.5.5 0 1 1 0 1z" class="C"/><use href="#B" class="B"/><use href="#B" class="D H"/><path d="M339.801 359.324h91.195l1.539 10.721h-93.973l1.239-10.721z" class="H"/><g class="C"><path d="M299.005 242.575c0 8.081-6.822 12.785-19.606 12.785h-26.098v-46.367h24.773c12.784 0 18.746 5.1 18.746 12.122 0 4.305-2.186 7.882-6.425 10.002 5.432 1.987 8.611 5.961 8.611 11.459zm-30.337-22.653v6.889h7.286c3.511 0 5.1-1.192 5.1-3.444s-1.589-3.444-5.1-3.444h-7.286zm14.572 20.865c0-2.385-1.722-3.643-5.166-3.643h-9.406v7.286h9.406c3.444 0 5.166-1.259 5.166-3.643zm41.139 2.914h-4.239v11.659h-15.632v-46.367h22.323c12.916 0 21.13 6.756 21.13 17.487 0 6.69-3.18 11.724-8.744 14.572l9.737 14.308h-16.692l-7.882-11.659zm1.457-22.653h-5.697v10.863h5.697c4.305 0 6.359-2.054 6.359-5.432s-2.054-5.432-6.359-5.432z"/><path d="M385.455 247.278h-17.619l-3.113 8.082h-15.897l20.268-46.367h15.368l20.269 46.367h-16.162l-3.113-8.082zm-4.306-11.261l-4.504-11.658-4.504 11.658h9.008zm71.808-27.025v46.367h-12.851l-17.619-21.064v21.064h-15.235v-46.367h12.85l17.619 21.064v-21.064h15.235zm7.555 0h22.853c15.5 0 26.164 8.81 26.164 23.183s-10.664 23.184-26.164 23.184h-22.853v-46.367zm22.19 34.179c6.558 0 11.062-3.908 11.062-10.996s-4.504-10.996-11.062-10.996h-6.558v21.991h6.558z"/><path d="M359.197 246.718v.429c-.008.207.035.399.129.578.06.186.164.347.31.483.136.146.297.25.483.31.179.094.371.137.578.129l.399-.054c.254-.071.475-.2.662-.386l.235-.304a1.49 1.49 0 0 0 .205-.757v-.429c.008-.207-.035-.399-.129-.578-.06-.186-.164-.347-.31-.483-.136-.146-.297-.25-.483-.31-.179-.094-.371-.137-.578-.129l-.399.054c-.254.071-.475.2-.662.386l-.235.304a1.49 1.49 0 0 0-.205.757h0z"/></g><g class="B"><path d="M515.027,267.966H249.299v-71.548h265.728v71.548Zm-264.728-1h263.728v-69.548H250.299v69.548Z"/><path d="M246.641 192.736h6.317v6.316h-6.317zm-.455 72.496h6.317v6.317h-6.317zm134.479-71.472h6.317v6.316h-6.317z"/><use href="#C"/><use href="#C" x="131.593" y="-70.548"/><use href="#C" x="131.593"/></g><use href="#D" class="C"/><g class="D"><use href="#D" opacity=".1"/><use href="#D" class="F"/></g><use href="#E" class="B"/><use href="#E" opacity=".6" class="D"/><use href="#E" x="-40.861" y="41.792" class="B"/><use href="#E" x="-40.861" y="41.792" class="D J"/><use href="#E" x="-81.721" y="83.584" class="B"/><use href="#E" x="-81.721" y="83.584" class="D E"/><use href="#F" class="C"/><use href="#F" class="D H"/><use href="#G" class="C"/><use href="#G" opacity=".6" class="D"/><use href="#G" x="-22.101" y="54.107" class="C"/><use href="#G" x="-22.101" y="54.107" class="D J"/><use href="#G" x="-44.201" y="108.215" class="C"/><use href="#G" x="-44.201" y="108.215" opacity="0" class="D"/><use href="#H" class="C"/><use href="#H" class="D F"/><use href="#I" class="C"/><use href="#I" opacity=".6"/><use href="#I" y="58.448" class="C"/><use href="#I" y="58.448" class="J"/><use href="#I" y="116.895" class="C"/><use href="#I" y="116.895" class="E"/><circle cx="560.543" cy="370.561" r="8.901" transform="matrix(.220085 -.975481 .975481 .220085 75.698 835.802)" class="B"/><use href="#J" class="C"/><use href="#J" class="D J"/><path d="M636.067,86.199h-51.693c-2.13,0-3.856-1.726-3.856-3.856h0c0-2.13,1.726-3.856,3.856-3.856h51.693c2.13,0,3.856,1.726,3.856,3.856h0c0,2.13-1.726,3.856-3.856,3.856Z" class="B"/><path d="M590.894,81.884c0,3.026-2.453,5.478-5.478,5.478s-5.478-2.453-5.478-5.478,2.453-5.478,5.478-5.478,5.478,2.453,5.478,5.478Z" class="C"/><path d="M636.067,102.848h-51.693c-2.13,0-3.856-1.726-3.856-3.856h0c0-2.13,1.726-3.856,3.856-3.856h51.693c2.13,0,3.856,1.726,3.856,3.856h0c0,2.13-1.726,3.856-3.856,3.856Z" class="B"/><path d="M631.415,98.533c0,3.026-2.453,5.478-5.478,5.478s-5.478-2.453-5.478-5.478,2.453-5.478,5.478-5.478,5.478,2.453,5.478,5.478Z" class="C"/><path d="M636.067,120.355h-51.693c-2.13,0-3.856-1.727-3.856-3.856h0c0-2.13,1.726-3.856,3.856-3.856h51.693c2.13,0,3.856,1.726,3.856,3.856h0c0,2.13-1.726,3.856-3.856,3.856Z" class="B"/><path d="M609.257,116.039c0,3.026-2.453,5.478-5.478,5.478s-5.478-2.453-5.478-5.478,2.453-5.478,5.478-5.478,5.478,2.453,5.478,5.478Z" class="C"/><rect x="357.228" y="90.55" width="94.741" height="88.686" rx="4.936" class="E"/><rect x="350.314" y="77.945" width="94.741" height="94.583" rx="4.936" class="C"/><rect x="350.314" y="77.945" width="94.741" height="94.583" rx="4.936" class="D F"/><path d="M354.941 77.945h85.569a4.55 4.55 0 0 1 4.546 4.546v7.202h-94.741v-7.12a4.63 4.63 0 0 1 4.627-4.627z" class="C"/><g class="D"><path d="M435.265,83.986c0,1.374-1.114,2.488-2.488,2.488s-2.488-1.114-2.488-2.488,1.114-2.488,2.488-2.488,2.488,1.114,2.488,2.488Z"/><use href="#K"/><use href="#K" x="-7.072"/></g><path d="M422.059 104.184v13.838h-1.357c-.805-3.192-1.696-5.486-2.677-6.881s-2.325-2.507-4.034-3.337c-.956-.452-2.627-.679-5.015-.679h-3.809v39.439c0 2.615.144 4.248.434 4.902s.854 1.225 1.697 1.715 1.991.735 3.45.735h1.696v1.395h-26.77v-1.395h1.697c1.482 0 2.677-.264 3.582-.792.653-.351 1.168-.955 1.546-1.809.276-.604.414-2.187.414-4.751v-39.439h-3.694c-3.444 0-5.945.73-7.504 2.187-2.186 2.036-3.569 4.94-4.147 8.71h-1.433v-13.838h45.924z" class="B"/><rect x="261.128" y="63.453" width="70.277" height="70.16" rx="4.936" class="C"/><rect x="261.128" y="63.453" width="70.277" height="70.16" rx="4.936" class="D F"/><path d="M265.755 63.453h61.104a4.55 4.55 0 0 1 4.546 4.546v4.168h-70.277V68.08a4.63 4.63 0 0 1 4.627-4.627z" class="C"/><g class="D"><use href="#L"/><use href="#L" x="-5.246" y="-0.072"/><use href="#L" x="-10.492" y="-0.072"/><path d="M277.469 82.877h37.595v37.595h-37.595z"/></g><path d="M278.423 83.889h35.228v35.228h-35.228z" class="C"/><path d="M296.267 119.627l18.004-14.83v14.83h-18.004z" class="D"/><g class="B"><path d="M430.823 317.483s-1.856 2.712-2 7.033c-.067 2.006-1.441 26.798-1.441 26.798l-19.451-20.459-8.567 4.094s18.179 26.019 25.908 29.044 13.297 1.626 15.051-.7 3.678-33.879 3.678-33.879l-13.179-11.932z"/><path d="M393.144 333.423l-3.866-16.479-7.668 2.313a2.45 2.45 0 0 1-3.137-2.636l5.001-41.633c.248-2.066 2.798-2.9 4.219-1.38l29.257 31.299a2.45 2.45 0 0 1-1.081 4.015l-8.811 2.658 6.237 16.688c.614 1.642-.35 3.451-2.056 3.857l-14.581 3.467c-1.57.373-3.144-.599-3.513-2.17z"/></g><path d="M448.212 455.512l-9.34 1.974-9.981-16.408 9.34-1.973 9.981 16.407z" class="I"/><path d="M436.991 453.529h10.456c.351.005.653.248.734.589l1.715 7.667a1.27 1.27 0 0 1-.982 1.498h-.279c-3.379-.052-5.848-.258-10.095-.258-2.614 0-10.508.269-14.114.269s-4.133-3.565-2.604-3.895c6.623-1.447 11.624-3.451 13.742-5.352a2.07 2.07 0 0 1 1.426-.517z" class="B"/><g class="C"><path d="M434.14 455.037a2.5 2.5 0 0 1-1.643-.434 1.21 1.21 0 0 1-.434-1.095c-.004-.242.133-.464.351-.568.94-.496 3.73 1.209 4.04 1.405.073.041.114.123.103.207s-.075.15-.155.176c-.741.185-1.499.289-2.263.31zm-1.312-1.725a.49.49 0 0 0-.269 0c-.052 0-.134.072-.134.238a.86.86 0 0 0 .279.734c.974.452 2.086.508 3.1.155-.908-.567-1.919-.95-2.976-1.126z"/><path d="M436.351 454.737h-.093c-.889-.486-2.604-2.376-2.428-3.286a.65.65 0 0 1 .651-.537c.313-.043.629.051.868.258.992.816 1.219 3.286 1.219 3.41-.001.075-.04.145-.103.186a.23.23 0 0 1-.114-.031zm-1.271-3.317c-.121-.105-.274-.167-.434-.176h-.103c-.289 0-.289.145-.289.207-.114.589.982 1.994 1.87 2.655-.065-.979-.425-1.916-1.033-2.686h-.01zm38.829-38.043c-.506 0-1.033-.062-1.54-.103-10.57-.878-21.646-3.627-30.17-6.199-8.803-2.655-14.889-5.166-14.889-5.166 4.358 8.019 16.924 42.993 16.924 42.993l-17.846 4.257s-40.883-53.645-22.45-73.556c13.773-14.724 51.124 1.364 51.124 1.364l51.083.372s3.74 37.95-32.237 36.039z"/></g><path d="M542.587 438.02l.806 8.565-19.776 2.573-.806-8.576 19.776-2.562z" class="I"/><path d="M542.515 447.866l-1.033-10.415c-.028-.349.185-.673.517-.785l7.522-2.428a1.27 1.27 0 0 1 1.591.836h0c.032.09.049.185.052.28.269 3.368.289 5.838.692 10.074.238 2.604 1.25 10.436 1.591 14.031s-3.172 4.391-3.637 2.955c-2.066-6.468-4.515-11.252-6.613-13.184-.393-.351-.637-.839-.682-1.364z" class="B"/><g class="C"><path d="M544.261 450.532c.101.577.003 1.171-.279 1.684-.231.343-.62.545-1.033.537a.64.64 0 0 1-.599-.3c-.579-.878.868-3.813 1.033-4.133.028-.076.105-.123.186-.114.084 0 .159.054.186.134a10.16 10.16 0 0 1 .506 2.191zm-1.632 1.498c.002.092.031.182.083.258 0 .052.083.103.248.103.277.013.541-.115.703-.341a4.14 4.14 0 0 0-.134-3.1c-.492.96-.797 2.005-.899 3.079z"/><path d="M543.838 448.393v.103c-.455.92-2.18 2.81-3.1 2.717a.65.65 0 0 1-.589-.599c-.074-.308-.01-.632.176-.889.713-1.064 3.162-1.529 3.275-1.529.074 0 .144.03.196.083.025.033.039.073.041.114zm-3.368 2.005v.103c.021.269.176.269.238.269.558.103 1.891-1.126 2.469-2.066-.969.147-1.871.587-2.583 1.261-.086.128-.129.28-.124.434zm-71.614-67.501c-3.1 4.66-14.345 67.584.275 75.513 13.897 9.847 61.471-7.01 61.471-7.01l-.971-14.248-41.029 1.818c-.891.279 15.498-38.477 16.532-47.797s-36.277-8.276-36.277-8.276z"/></g><path d="M410.561 318.382s-12.109-8.359-14.021-8.628-2.635 8.865-1.219 12.957c.816 2.377 5.683 2.283 10.735 3.182l4.505-7.512z" class="I"/><path d="M506.125 377.338c-17.245 6.986-34.21 9.199-50.721 3.647 0 0-7.873-48.159-24.58-63.482a41.08 41.08 0 0 1 8.627-7.109 52.26 52.26 0 0 1 22.927-7.935c6.221-.593 12.496-.21 18.598 1.137 0 0 22.958 26.678 25.149 73.742z" class="B"/><path d="M430.823 317.483c7.336 6.737 12.977 19.817 16.997 32.361 1.736 5.445 3.172 10.797 4.298 15.498 2.211 9.072 3.286 15.643 3.286 15.643 16.357 5.039 33.271 3.747 50.721-3.647a142.6 142.6 0 0 0-10.456-47.87c-1.095-2.666-2.221-5.166-3.327-7.398-1.973-4.04-3.895-7.439-5.579-10.188l-2.066-3.244a59.04 59.04 0 0 0-3.72-5.042c-6.102-1.346-12.378-1.73-18.598-1.137 3.1 3.709-.62 11.273-13.205 12.853-7.233.909-10.105-1.953-9.723-4.918-3.185 1.959-6.088 4.344-8.627 7.088z" class="D E"/><path d="M477.205 331.752s8.958-3.647 15.137-9.681c-1.973-4.04-3.895-7.439-5.579-10.188l-2.066-3.244-7.491 23.113zm-29.375 18.112c1.736 5.445 3.172 10.797 4.298 15.498 8.555-3.451 16.366-18.846 16.366-18.846l-20.665 3.348z" class="E"/><use href="#M" class="B"/><use href="#M" opacity=".15" class="D"/><path d="M460.575 303.377c1.56 5.61-14.589 13.484-20.251 7.883 3.1-2.314 3.854-4.722 3.472-7.067a10.78 10.78 0 0 0-1.663-3.999 21.8 21.8 0 0 0-1.405-1.984l6.871-14.227c1.364 6.261 4.588 20.396 12.977 19.394z" class="I"/><path d="M424.067 271.813s-2.066 9.65 3.906 14.61 7.408-17.069 7.408-17.069l-11.314 2.459z" class="B"/><path d="M449.882 278.874c.034 8.638.232 13.508-3.949 18.204-6.289 7.065-17.223 3.994-19.915-4.463-2.423-7.612-2.072-20.459 6.376-24.427 8.323-3.908 17.454 2.047 17.488 10.685z" class="I"/><path d="M450.309 268.453c-1.532-4.651-13.747-3.822-16.995-1.155-.485.399 6.984 3.411 6.535 3.287l3.482.9c.517-.151 1.587.371 2.227 1.917 0 0 .497 13.212 4.594 16.752 2.989-1.687 2.818-6.925 3.583-10.107 1.139-4.74 2.431-11.656-3.427-11.593zm-11.917 12.839c.059.88-.374 1.623-.966 1.66s-1.121-.646-1.18-1.526.373-1.623.966-1.66 1.121.646 1.18 1.526zm-8.856 1.738c.059.88-.373 1.623-.966 1.661s-1.121-.646-1.18-1.526.373-1.623.966-1.66 1.121.646 1.18 1.526z" class="B"/><path d="M431.385 282.385l-3.369 6.426c1.333 1.016 3.469.349 3.469.349l-.099-6.775z" fill="#a24e3f"/><path d="M439.326 277.962a.44.44 0 0 1-.429-.027c-1.571-1.027-3.025-.454-3.04-.448a.43.43 0 0 1-.557-.219c-.091-.209.013-.45.228-.539.076-.031 1.898-.75 3.847.525.195.127.245.383.113.571-.043.061-.099.107-.163.138z" class="B"/><path d="M447.812 286.676h-.012a.25.25 0 0 1-.238-.262 4.5 4.5 0 0 1 .73-2.238c.297-.454.81-1.047 1.57-1.287.749-.239 1.576-.026 2.009.514.086.107.068.266-.039.352a.25.25 0 0 1-.352-.039c-.301-.377-.918-.522-1.468-.35-.619.196-1.05.697-1.303 1.084-.391.598-.614 1.285-.648 1.988a.25.25 0 0 1-.25.238z" class="E"/><path d="M424.366 279.649c-.08-.011-.157-.044-.222-.1-.175-.152-.191-.413-.036-.584 1.557-1.714 3.485-1.44 3.573-1.439.231.034.391.245.356.47s-.248.38-.478.349c-.08-.015-1.568-.207-2.818 1.169-.098.108-.24.154-.376.135z" class="B"/><path d="M425.272 289.832a28.67 28.67 0 0 0 .889 3.203l.496 1.157a11.9 11.9 0 0 0 6.468 6.003c4.33 1.778 9.794.465 12.808-3.116 1.136-3.441 1.502-10.667-.864-14.944 0 0-2.25 6.335-3.066 6.572s-1.467-2.886-5.693-.861-5.778 4.776-11.037 1.987z" class="H"/><path d="M452.161 286.784c1.488-7.584.155-15.695-1.808-17.927s-11.82 3.523-11.82 3.523c2.304-.61 4.618 1.323 3.875 3.637-1.033 3.224 1.033 8.018 3.575 9.826 0 0 0-1.364 1.168-1.106s2.082 7.28.026 10.803c-.01 0 3.487-1.184 4.985-8.757z" class="B"/><path d="M452.801 285.286c-.74 2.014-2.249 3.652-4.195 4.556-2.583 1.188-4.319-1.033-3.978-3.699.331-2.377 2.066-5.92 4.825-5.951s4.226 2.604 3.348 5.094z" class="I"/><g class="B"><path d="M424.206 271.813s2.624 3.1 10.26 2.335c-1.762-.15-3.497-.521-5.166-1.105 0 0 10.239 1.415 15.126-.424s6.075-3.761 6.075-3.761-.837-5.166-12.151-4.515-14.909 5.548-14.145 7.47z"/><use href="#N"/><path d="M433.223 292.563a24.64 24.64 0 0 1 2.527 2.52l.534-.334c2.41-1.523 3.03-3.023 2.97-4.228a3.75 3.75 0 0 0-.517-1.667c-.163-.29-.365-.556-.6-.791-.796 1.572-2.926 3.162-4.104 3.964l-.811.536z"/></g><path d="M433.999 292.018l.767.723c2.26-1.437 3.662-2.744 3.938-3.897-.162-.29-.365-.556-.6-.79-.799 1.586-2.926 3.162-4.104 3.965z" class="D"/><path d="M436.249 294.739c2.41-1.524 3.03-3.024 2.97-4.228a9.18 9.18 0 0 0-2.341 2.218 3.45 3.45 0 0 0-.629 2.01z" fill="#f54948"/><use href="#N" class="D H"/><path d="M202.225 156.373h38.376v166.683a5.98 5.98 0 0 1-5.977 5.977h-32.399v-172.66h0z" class="E"/><path d="M86.55 227.782s3.93.797 4.408 1.434 7.127 4.675 7.127 4.675l-4.472 8.812-3.338-2.558s-2.884.708-4.871-.04-1.072-11.908-1.072-11.908l2.219-.416z" class="G"/><path d="M84.151 229.439s6.57 1.323 7.311 2.856-1.688 1.45-1.688 1.45 2.666.256 2.711 1.403c.053 1.376-2.49 1.278-2.49 1.278s2.168.298 2.14 1.321c-.03 1.061-2.909 1.154-2.909 1.154s1.487.499 1.065 1.198-6.529 1.014-8.344-.103-1.425-8.778-.946-10.46c.564-1.981 1.981-2.698 3.671-2.425l-.52 2.33h0z" class="E"/><path d="M85.128 241.765l-1.702-.518a2.06 2.06 0 0 1-1.414-2.232l1.861-13.624 4.642 1.431-.754 13.11c-.053 1.116-1.001 1.978-2.117 1.925a1.97 1.97 0 0 1-.516-.093zm11.157-17.745l.702-2.363a13.44 13.44 0 0 0-4.237-3.936l-1.56 4.721-1.364 4.784a13.53 13.53 0 0 0 5.721-.866l.739-2.34z" class="B"/><use href="#O" class="C"/><use href="#O" opacity=".6" class="D"/><use href="#P" class="C"/><use href="#P" class="D J"/><path d="M62.197 213.501c-2.78 9.015-6.66 15.818-8.656 15.207s-1.372-8.373 1.405-17.436 6.66-15.818 8.656-15.207 1.376 8.433-1.405 17.436z" class="C"/><use href="#Q" class="B"/><use href="#Q" opacity=".7" class="D"/><path d="M83.331 229.354s6.771 1.408 7.512 2.941-1.688 1.45-1.688 1.45 2.666.256 2.711 1.403c.053 1.376-2.49 1.278-2.49 1.278s2.168.298 2.14 1.321c-.03 1.061-2.909 1.154-2.909 1.154s1.487.499 1.065 1.198-6.529 1.014-8.344-.103-1.425-8.778-.946-10.46c.564-1.981 1.6-2.943 3.291-2.669l-.34 2.49h0z" class="G"/><path d="M89.151 233.873h-.011l-4.627-.669c-.062-.009-.106-.074-.097-.144s.068-.121.128-.112l4.627.668c.062.009.106.074.097.144s-.059.115-.117.113zm.088 2.676h-.003l-4.495-.289c-.062-.004-.11-.065-.106-.136s.048-.114.121-.122l4.495.289c.063.004.11.065.106.136s-.057.124-.118.122z" class="E"/><path d="M150.601 427.436l4.006 25.037c.422 2.641-9.711 1.199-10.676.932l-6.015-27.224 12.685 1.254z" class="G"/><g class="C"><path d="M136.417 447.879c-1.498.211-2.963.189-3.496-.422a1.02 1.02 0 0 1-.133-1.199c.147-.354.437-.629.799-.755 1.853-.744 6.215 1.032 6.404 1.11.07.029.126.085.155.155.061.147-.008.316-.155.377-1.166.355-2.362.6-3.574.732zm-2.109-1.987c-.18.034-.358.078-.533.133a.88.88 0 0 0-.477.455c-.166.377-.078.533 0 .621.644.688 3.596.311 5.704-.266-1.494-.608-3.092-.921-4.706-.921l.011-.022z"/><path d="M139.869 447.135h-.122c-1.487-.444-4.55-2.586-4.55-3.918.044-.322.178-.744.932-.921.533-.155 1.106-.087 1.587.189 1.643 1.032 2.397 4.106 2.397 4.239.055.084.055.193 0 .277l-.244.133zm-2.408-4.139a1.46 1.46 0 0 0-1.01-.255h-.178c-.488.122-.488.322-.488.388-.089.788 2.131 2.519 3.673 3.196a6.47 6.47 0 0 0-1.998-3.329h0z"/></g><path d="M139.691 445.87c-2.419 3.03-5.338 6.27-13.928 9.689-1.909.755-.477 5.46 4.373 4.661s19.488-3.818 26.147-5.749c.1-.011 1.687-1.42 1.354-2.331l-3.895-8.823a.99.99 0 0 0-1.11-.633l-11.154 2.075a2.82 2.82 0 0 0-1.787 1.11z" class="B"/><g class="E"><path d="M140.513 437.291l-2.597-11.109 12.685 1.266 1.343 8.379-11.431 1.464z"/></g><path d="M243.014 396.473l17.08 18.733c1.798 2.009-7.469 6.359-8.412 6.659l-19.976-19.455 11.309-5.938z" class="G"/><g class="E"><path d="M239.973 410.279l-8.268-7.869 11.298-5.904 5.716 6.271-8.746 7.502z"/></g><g class="C"><path d="M242.359 421.432c-1.132.999-2.364 1.787-3.141 1.565a1.03 1.03 0 0 1-.777-.921c-.078-.389.015-.793.255-1.11 1.121-1.676 5.738-2.619 5.937-2.619.115-.019.231.029.3.122.062.098.062.224 0 .322a18.85 18.85 0 0 1-2.575 2.641zm-2.852-.577a3.23 3.23 0 0 0-.377.399.83.83 0 0 0-.144.644c.078.399.233.511.355.511.91.233 3.163-1.687 4.606-3.329-1.583.308-3.091.922-4.439 1.809v-.033z"/><path d="M244.868 418.835l-.111.056c-1.509.444-5.26.322-5.948-.788a1.01 1.01 0 0 1 .266-1.265c.361-.423.877-.684 1.432-.721 1.942-.056 4.228 2.131 4.328 2.22.087.049.135.145.122.244l-.089.255zm-4.317-2.12c-.361-.002-.71.133-.977.377l-.166.078c-.322.355-.189.522-.189.588.377.71 3.152.943 4.816.655a6.5 6.5 0 0 0-3.518-1.72l.033.022z"/></g><g class="B"><path d="M244.87 418.138c-1.113 3.714-2.611 7.81-9.304 14.188-1.489 1.413 1.596 5.244 5.797 2.691s16.653-10.818 22.11-15.095c.088-.048 1.034-1.948.386-2.668l-6.908-6.73a.99.99 0 0 0-1.266-.173l-9.572 6.09a2.82 2.82 0 0 0-1.243 1.697zm-82.705-148.116l18.754-10.098c2.519 3.707 4.517 6.78 5.56 11.141 1.343 5.571-1.584 15.222-.831 14.813-20.975 11.453-25.237 7.672-25.237 7.672l-6.048 3.918c-9.356 6.048-25.448 3.163-21.774-7.358 3.218-9.356 3.218-21.353 3.218-21.353 12.263 3.463 26.358 1.265 26.358 1.265z"/><path d="M152.387 277.346c-8.013-.477-14.394-2.453-16.547 3.407-12.829 34.926-18.5 70.95-15.46 91.592 1.842 12.152 9.611 61.861 19.599 61.394 3.13-.144 13.029-1.864 13.029-1.864 1.004-1.279 1.364-2.949.977-4.528-3.807-17.08-10.998-47.511-8.457-63.57 3.318-20.787 19.588-54.303 20.043-66.289.444-11.642-11.731-20.054-13.185-20.143z"/></g><path d="M155.384,330.906l7.092-21.885s-4.417-26.735-5.926-24.26c-11.575,18.989-1.165,46.146-1.165,46.146Z" class="E"/><path d="M162.176,270.033c-6.925,3.984-9.4,10.621-7.769,16.647,7.713,28.511,23.894,54.88,37.267,78.885,5.993,10.743,41.329,47.844,45.946,42.028,1.953-2.453,9.877-8.712,9.877-8.712,2.586-8.268-18.678-12.23-63.259-119.248-4.484-10.754-20.809-10.332-22.063-9.6Z" class="B"/><g class="C"><path d="M162.476 193.035c.966-.71 25.67-1.243 39.953-1.243v-.144a77.84 77.84 0 0 1 7.169-27.434l6.048-12.918a8.71 8.71 0 0 1 9.078-4.994 12.22 12.22 0 0 1 3.44 1.01l-2.752.966c.022 1.027-.063 2.054-.255 3.063l-8.368 43.726c.266 1.609-.055 4.051-1.487 7.769-1.687 4.417-26.269 9.677-39.42 10.61-3.862.266-6.714.177-7.769-.411-2.331-1.298-5.127-5.327-6.659-9.511-1.487-4.184-1.742-8.523 1.021-10.488z"/><path d="M163.674 192.979c.384-.026.769-.033 1.153-.021a11.6 11.6 0 0 1 11.221 11.962l10.858 60.107c-4.761 6.548-53.843 25.452-54.853 19.57 4.709-28.075-15.092-75.456-8.281-80.177 20.665-14.716 37.217-11.264 39.903-11.442z"/><path d="M95.907 231.525l25.86 6.31s-5.942-27.766 1.417-33.119 17.766 47.591 17.766 47.591l-6.651 9.649s-43.093-17.777-43.093-16.929 4.701-13.501 4.701-13.501z"/></g><path d="M132.053 261.031l-6.032-39.513 1.487 37.649 4.545 1.864z" class="E"/><path d="M163.591 204.493c1.52 4.184 4.317 8.213 6.659 9.511 1.11.588 4.161 1.848 7.313-.697 1.287 9.555 4.76 26.349 4.76 26.349s-15.114-16.119-18.732-35.163z" opacity=".1"/><path d="M193.004 150.314h40.762c1.607 0 2.912 1.305 2.912 2.912v165.099a4.38 4.38 0 0 1-4.376 4.376h-38.526a3.45 3.45 0 0 1-3.446-3.446V152.988c0-1.476 1.198-2.674 2.674-2.674z" class="C"/><path d="M193.087 150.314h39.311c2.362 0 4.28 1.918 4.28 4.28v163.878a4.23 4.23 0 0 1-4.229 4.229h-38.59a3.53 3.53 0 0 1-3.528-3.528V153.071a2.76 2.76 0 0 1 2.756-2.756z" class="D F"/><path d="M193.004 150.314h40.949c1.504 0 2.724 1.221 2.724 2.724v7.508H190.33v-7.559c0-1.476 1.198-2.674 2.674-2.674z" class="C"/><g class="D"><use href="#R" class="F"/><use href="#R" x="19.222" class="F"/><use href="#R" y="19.705" class="F"/><use href="#R" x="19.222" y="19.705" class="F"/><use href="#R" y="39.297" class="F"/><use href="#R" x="19.222" y="39.297" class="F"/><use href="#R" y="58.89" class="F"/><use href="#R" x="19.222" y="58.89" class="F"/><use href="#R" y="131.651" class="F"/><use href="#R" x="19.222" y="131.651" class="F"/><path d="M208.88 268.923h21.782v21.782H208.88z"/></g><path d="M197.989 256.693h21.782v21.782h-21.782z" class="C"/><path d="M212.227 150.536s1.782 5.697 3.274 6.391 1.378-1.651 1.378-1.651.284 2.573 1.393 2.6c1.331.033 1.2-2.425 1.2-2.425s.318 2.092 1.306 2.049c1.025-.044 1.074-2.827 1.074-2.827s.503 1.43 1.173 1.012.89-6.324-.216-8.063-8.704-1.789-10.351-1.407c-.527.122-3.85 2.296-4.86 4.098l4.573.053.055.169z" class="G"/><path d="M217.002 155.27v-.011l-.711-4.462c-.01-.06-.073-.101-.141-.092s-.116.068-.106.125l.711 4.462c.01.06.073.101.14.092s.11-.059.107-.114zm2.588.048v-.003l-.342-4.34c-.005-.061-.064-.105-.132-.1s-.11.048-.116.118l.341 4.34c.005.061.064.105.133.101s.119-.056.116-.116zm2.379-.799l-.162-3.232c-.003-.061-.061-.107-.13-.103s-.122.055-.119.116l.162 3.233c.003.061.061.107.13.103s.122-.055.119-.116z" class="E"/><path d="M145.296 189.139l-.263-.957-9.103 2.001c3.13 2.741 8.157 2.064 10.066.777l-.699-1.82z" class="H"/><g class="B"><path d="M131.878 191.781s12.718-.444 18.867-2.819c6.814-2.63 2.375-12.696 2.375-12.696 1.81-.649 3.336-1.909 4.317-3.562 1.387-2.442.3-5.682-1.831-7.558s-6.093-2.408-8.79-3.185c1.853-.455 2.697-2.874 1.975-4.65a6.39 6.39 0 0 0-4.373-3.329 48.18 48.18 0 0 0-5.671-.799c-2.641-.4-5.161-1.287-7.769-1.753a11.53 11.53 0 0 0-7.769.888c-1.809 1.146-3.208 2.836-3.995 4.828-.69 1.395-.923 2.971-.666 4.506.305 1.559 1.576 2.745 3.152 2.941 0 0 4.595 23.694 10.177 27.19z"/><path d="M118.527 162.659c3.873-1.609 8.601 4.461 10.532 6.958 3.554 4.34 6.538 9.118 8.878 14.217.877 2.086 1.465 4.75-.089 6.392a6.15 6.15 0 0 1-3.929 1.432 65.31 65.31 0 0 1-7.647.344c-2.419-.033-4.983-.244-6.936-1.676s-2.885-4.484-1.321-6.326c-1.92.433-3.807-1.132-4.439-2.963a12.04 12.04 0 0 1 0-5.76c.522-3.396 1.077-11.009 4.95-12.618z"/></g><path d="M146.017 190.97c.551 1.263 1.33 2.415 2.297 3.396 1.173 1.068 1.581 2.74 1.032 4.228-.766 1.92-2.475 4.728-6.248 8.357a5.55 5.55 0 0 1-9.2-2.353c-.14-.445-.211-.909-.211-1.376a5.13 5.13 0 0 1 2.064-4.04c3.396-2.575 1.609-6.626-.311-9.888l8.057-9.444c.248 3.146.848 6.254 1.787 9.267h0l.733 1.853z" class="G"/><path d="M125.608 177.93c-1.276-4.051-2.353-8.212-4.317-12.008a13.07 13.07 0 0 0-.499 2.997c-.087 1.933.265 3.861 1.032 5.638l1.554 3.673c1.853 4.339 3.274 7.081 5.849 9.2h0l.81.411c-1.956-3.068-3.448-6.407-4.428-9.911z" class="B"/><g class="G"><path d="M144.752 164.402l-.755-1.11c-2.675-3.651-6.148-6.326-10.443-6.515a12.05 12.05 0 0 0-11.819 7.48 10.2 10.2 0 0 0-.466 1.265 13.29 13.29 0 0 0-.499 2.997c-.087 1.933.265 3.861 1.032 5.638l1.554 3.673c1.853 4.339 3.274 7.081 5.849 9.2h0a16.1 16.1 0 0 0 2.397 1.62c.266.144.544.3.843.433a13.59 13.59 0 0 0 2.22.877 12.12 12.12 0 0 0 6.304.255h.067a11.1 11.1 0 0 0 8.523-12.208 32.95 32.95 0 0 0-4.805-13.606z"/><path d="M122.652,172.996c2.891,8.186,4.351,12.861,9.896,15.891,8.341,4.557,17.649-2.048,17.335-10.962-.282-8.023-4.962-20.061-14.298-20.957-9.198-.882-15.824,7.842-12.933,16.028Z"/></g><path d="M127.308 177.753c.621-.189 1.243.222 1.887.288 14.638 1.443 19.231-1.224 20.451-2.778.177.843.149 1.862.238 2.661.008 5.89-3.227 11.036-8.781 12.313h-.067c-2.087.469-4.261.381-6.304-.255-.764-.226-1.507-.52-2.22-.877-.3-.133-.577-.289-.843-.433a16.1 16.1 0 0 1-2.397-1.62h0a14.02 14.02 0 0 1-2.797-3.13c-.208-1.041-.357-2.094-.444-3.152-.067-1.199.155-2.708 1.276-3.019z" class="E"/><path d="M126.829 165.545c-.631-.972-1.684-1.589-2.841-1.665h-3.019c-.422-.067-.899-.089-1.11.233-2.816 4.338-3.054 9.863-.621 14.428 2.439 3.831 5.898 6.905 9.988 8.878-2.586-2.12-3.995-4.861-5.86-9.2a8.45 8.45 0 0 1 2.22-.3c.633-.011 2.408 2.353 2.675 1.776.821-1.765-3.241-7.802-1.432-14.15z" class="B"/><path d="M121.467 180.885c1.295 1.954 3.403 3.124 5.339 3.471 2.912.523 3.095-2.462 2.108-5.02-.889-2.302-2.415-4.983-5.252-4.347-2.794.627-3.675 3.66-2.195 5.895z" class="G"/><path d="M134.576 171.397c.242.853.903 1.41 1.476 1.244s.842-.991.6-1.843-.903-1.41-1.476-1.244-.842.991-.6 1.844zm8.969-1.352c.242.853.903 1.41 1.476 1.244s.842-.991.6-1.844-.903-1.41-1.476-1.244-.842.991-.6 1.843z" class="B"/><path d="M141.577 170.06l5.363 4.941c-.918 1.412-3.164 1.504-3.164 1.504l-2.198-6.444z" fill="#ff7e3c"/><path d="M130.678 169.398c.147.016.301-.044.396-.171 1.14-1.503 2.709-1.453 2.725-1.453.235.01.438-.167.453-.396a.41.41 0 0 0-.398-.433c-.083-.004-2.049-.067-3.463 1.798-.141.186-.103.445.086.579a.42.42 0 0 0 .201.075z" class="B"/><path d="M127.4 179.691a.25.25 0 0 1-.231-.154c-.271-.655-.716-1.23-1.288-1.663-.369-.28-.96-.619-1.6-.585-.579.021-1.114.37-1.272.828a.25.25 0 1 1-.473-.163c.226-.656.936-1.135 1.726-1.165.801-.017 1.486.357 1.921.687.642.487 1.142 1.134 1.447 1.87a.25.25 0 0 1-.135.327c-.031.013-.063.019-.096.019z" class="E"/><path d="M147.293 165.097c.072-.037.134-.095.176-.17a.41.41 0 0 0-.163-.565c-2.053-1.095-3.785-.183-3.868-.152-.207.111-.287.364-.178.566s.363.276.57.168c.071-.041 1.414-.727 3.062.153a.43.43 0 0 0 .402 0zm-3.423 14.339a24.73 24.73 0 0 0-1.539 3.239l-.619-.135c-2.796-.626-3.89-1.836-4.241-2.996a3.78 3.78 0 0 1-.075-1.753 3.61 3.61 0 0 1 .301-.951c1.285 1.219 3.839 2.003 5.225 2.363l.948.233z" class="B"/><path d="M142.951 179.183l-.481.944c-2.625-.595-4.394-1.358-5.045-2.356a3.61 3.61 0 0 1 .301-.951c1.293 1.23 3.838 2.003 5.225 2.363z" class="D"/><path d="M141.742 182.52c-2.796-.626-3.89-1.836-4.241-2.996a9.21 9.21 0 0 1 2.966 1.307 3.47 3.47 0 0 1 1.276 1.689z" fill="#f54948"/><path d="M123.388 158.076c-1.842.91-3.451 3.052-2.619 4.939.688 1.576 2.641 2.075 4.328 2.386 3.385.677 6.859 1.243 10.255.677.977-.167 2.086-.544 2.419-1.487a2.11 2.11 0 0 0-.588-2.109c-.57-.521-1.233-.931-1.953-1.21 1.92 1.024 4.026 1.65 6.193 1.842.755.153 1.538-.024 2.153-.488a1.91 1.91 0 0 0 .1-2.308 4.85 4.85 0 0 0-1.898-1.565c-5.644-3.239-12.522-3.493-18.389-.677z" class="B"/><defs ><path id="B" d="M339.975 357.822l-8.387 72.573h-20.713c-4.494 0-8.138 4.957-8.138 11.072v.795h166.058c0-7.266-4.36-13.13-9.7-13.041-8.041.133-18.112.218-17.809-.195.503-.685-11.073-72.116-10.402-71.203s-90.911 0-90.911 0z"/><path id="C" d="M379.776 264.308h6.316v6.316h-6.316z"/><path id="D" d="M677.119 212.275l47.272 46.218-133.597 136.644-47.272-46.218z"/><path id="E" d="M677.387 221.202l38.074 37.225-37.225 38.074-38.074-37.225z"/><path id="F" d="M609.475 171.541l61.202 24.999-80.544 197.19-61.202-24.999z"/><path id="G" d="M613.096 179.682l49.294 20.135-20.135 49.294-49.294-20.135z"/><path id="H" d="M527.486 167.126h66.111v227.992h-66.111z"/><path id="I" d="M533.917 175.045h53.248v53.248h-53.248z"/><path id="J" d="M578.671 62.975h63.766a4.13 4.13 0 0 1 4.129 4.129v63.766a4.13 4.13 0 0 1-4.129 4.129h-63.766c-2.279 0-4.13-1.85-4.13-4.13V67.103a4.13 4.13 0 0 1 4.129-4.129z"/><path id="K" d="M428.193,83.889c0,1.374-1.114,2.488-2.488,2.488s-2.488-1.114-2.488-2.488,1.114-2.488,2.488-2.488,2.488,1.114,2.488,2.488Z"/><path id="L" d="M324.143 67.934c0 1.019-.826 1.846-1.846 1.846s-1.846-.826-1.846-1.846.826-1.846 1.846-1.846 1.846.826 1.846 1.846z"/><path id="M" d="M479.591 303.328c-7.873-1.333-22.421 38.881-29.178 39.697s-39.852-24.642-39.852-24.642l-4.505 7.512s28.93 30.997 42.941 34.097 40.296-37.196 39.686-44.904-3.461-10.818-9.092-11.758z"/><path id="N" d="M450.931 290.69s.134-14.021-9.423-20.665c-7.419-5.166-15.013-3.368-17.141-.124 0 0-1.849-2.748 1.694-5.652 1.077-.762 2.261-1.36 3.513-1.777 0 0 11.923-7.801 23.713-1.106s3.027 12.213 3.027 12.213.961 8.421-2.066 10.56c.021-.041-1.157 6.416-3.317 6.551z"/><path id="O" d="M93.211 223.077a28.6 28.6 0 0 0 1.237-5.875l-15.226-4.7-3.506 11.379 15.238 4.711a28.74 28.74 0 0 0 2.256-5.516z"/><path id="P" d="M83.127 212.681c-.686-.219-17.685-15.996-19.525-16.616s-5.876 6.192-8.656 15.207-3.402 16.813-1.405 17.436 24.791-2.943 25.489-2.737 2.394-2.532 3.524-6.206 1.442-6.838.573-7.084z"/><path id="Q" d="M57.418 212.005l-.526 1.775a14.47 14.47 0 0 0 4.179 3.264l1.185-3.545 1.026-3.597c-1.769-.21-3.562-.092-5.289.35-.272.581-.46 1.169-.575 1.753z"/><path id="R" d="M197.707 170.898h13.733v13.733h-13.733z"/></defs></svg>