<svg xmlns="http://www.w3.org/2000/svg" viewBox="0 0 500 500" xmlns:v="https://vecta.io/nano"><style><![CDATA[.B{fill:#fff}.C{fill:#263238}.D{fill:#407bff}.E{opacity:.2}.F{opacity:.1}.G{fill:#ff8b7b}.H{fill:#f0f0f0}.I{fill:#f5f5f5}.J{fill:#e6e6e6}.K{font-family:Montserrat-ExtraBold, Montserrat}]]></style><path d="M416.78 398.49h33.12v.25h-33.12zm-94.25 2.72h8.69v.25h-8.69zm74.06-12h19.19v.25h-19.19zm-344.13 1.68h43.19v.25H52.46zm52.1 0h6.33v.25h-6.33zm26.91 4.22h93.68v.25h-93.68zM237 337.8H43.92a5.71 5.71 0 0 1-5.71-5.71V60.66A5.71 5.71 0 0 1 43.92 55H237a5.71 5.71 0 0 1 5.71 5.71v271.38a5.71 5.71 0 0 1-5.71 5.71zM43.92 55.2a5.47 5.47 0 0 0-5.46 5.46v271.43a5.47 5.47 0 0 0 5.46 5.46H237a5.47 5.47 0 0 0 5.46-5.46V60.66A5.47 5.47 0 0 0 237 55.2zm409.39 282.6h-193.1a5.72 5.72 0 0 1-5.71-5.71V60.66a5.72 5.72 0 0 1 5.71-5.66h193.1a5.71 5.71 0 0 1 5.69 5.66v271.43a5.71 5.71 0 0 1-5.69 5.71zM260.21 55.2a5.47 5.47 0 0 0-5.46 5.46v271.43a5.47 5.47 0 0 0 5.46 5.46h193.1a5.47 5.47 0 0 0 5.46-5.46V60.66a5.47 5.47 0 0 0-5.46-5.46zM0 382.4h500v.25H0z" fill="#ebebeb"/><circle cx="379.18" cy="102.99" r="27.28" class="H"/><g class="B"><path d="M379.25,130.88a27.9,27.9,0,1,1,0-55.79v1.22a26.68,26.68,0,0,0,0,53.35Z"/><path d="M379.25,130.88v-1.22a26.68,26.68,0,0,0,0-53.35V75.09a27.9,27.9,0,1,1,0,55.79Z"/><path d="M393.51 103h-1.23c0-9-4.59-21.14-13.36-26.77l.66-1c9.15 5.83 13.93 18.39 13.93 27.77z"/><path d="M379.58 130l-.66-1c8.77-5.63 13.36-17.73 13.36-26.77h1.23c0 9.3-4.78 21.87-13.93 27.77zm-13.35-27H365c0-9.38 4.78-21.94 13.92-27.81l.66 1c-8.77 5.66-13.35 17.75-13.35 26.81z"/><path d="M378.92,130c-9.14-5.86-13.92-18.42-13.92-27.8h1.23c0,9,4.58,21.14,13.35,26.77Z"/><path d="M378.64 75.7h1.23v54.57h-1.23z"/><path d="M356.16 87.84h46.19v1.23h-46.19zm-4.18 15h54.55v1.23h-54.55zm4.79 14.98h44.97v1.23h-44.97z"/></g><path d="M53.12 359.9H66.9v3.62H53.12zm106.92 0h13.78v3.62h-13.78z" class="J"/><path d="M75.01 361.71h3.62v21.3h-3.62z" fill="#e0e0e0"/><path d="M64.85 261.73h98.73v7.72H64.85zm0 96.12h98.73v7.72H64.85z" class="J"/><g class="H"><path d="M68.62 373.13l-.31.32a2.84 2.84 0 0 1-4.09 0l-.3-.32a5.09 5.09 0 0 1-1.43-3.55V263.79a5.13 5.13 0 0 1 1.43-3.55l.3-.32a2.84 2.84 0 0 1 4.09 0l.31.32a5.17 5.17 0 0 1 1.43 3.55v105.79a5.14 5.14 0 0 1-1.43 3.55zm10.55 0l-.31.32a2.84 2.84 0 0 1-4.09 0l-.3-.32a5.09 5.09 0 0 1-1.47-3.55V263.79a5.13 5.13 0 0 1 1.43-3.55l.3-.32a2.84 2.84 0 0 1 4.09 0l.31.32a5.13 5.13 0 0 1 1.43 3.55v105.79a5.09 5.09 0 0 1-1.39 3.55zm10.55 0l-.31.32a2.84 2.84 0 0 1-4.09 0l-.3-.32a5.09 5.09 0 0 1-1.43-3.55V263.79a5.13 5.13 0 0 1 1.41-3.55l.3-.32a2.84 2.84 0 0 1 4.09 0l.31.32a5.13 5.13 0 0 1 1.43 3.55v105.79a5.09 5.09 0 0 1-1.41 3.55z"/><use href="#B"/><use href="#B" x="10.55"/><use href="#C"/><use href="#C" x="10.55"/><use href="#D"/></g><path d="M146.89 361.71h3.62v21.3h-3.62z" fill="#e0e0e0"/><g class="H"><use href="#D" x="10.53"/><use href="#D" x="21.1"/></g><g class="I"><path d="M170.98 349.76h3.62v33.07h-3.62zm217.63-21.47S384 276 359.66 225.79c0 0 35.86 33.47 37.12 102.5z"/><path d="M394.27,336.39s-19.52-91-16-139.24c0,0,26.11,53.67,24.85,134.78Z"/></g><g class="J"><path d="M408.68,330.64s1.86-59.43,11.4-88.78c0,0,8,37.27-5.26,87.37Z"/><path d="M403.07,331.93s-6.29-79.25,11.32-114.76c0,0,1.89,72-2.52,114.76Z"/></g><path d="M423.17 382.61h-39.8l-5.69-58.73h51.19l-5.7 58.73z" class="H"/><g class="I"><path d="M417.94,332.38s4.65-52.29,28.94-102.51c0,0-35.86,33.48-37.12,102.51Z"/><ellipse cx="245.18" cy="412.39" rx="193.89" ry="11.32"/></g><path d="M163.89 400.72v2.92a2.74 2.74 0 0 0 2.74 2.73h104.61a2.51 2.51 0 0 0 2.52-2.52v-2.8a2.51 2.51 0 0 0-2.52-2.52h-26a4.77 4.77 0 0 1-4.7-5.58l9.13-52.72h-59.43l-25.44 56.3a10.06 10.06 0 0 0-.91 4.19z" class="C"/><path d="M273.76 401v2.82a2.5 2.5 0 0 1-2.51 2.51H166.63a2.74 2.74 0 0 1-2.74-2.73v-2.92a10 10 0 0 1 .26-2.3 10.62 10.62 0 0 1 .64-1.9l25.45-56.29h59.43L240.54 393a3.65 3.65 0 0 0-.07.93 4.75 4.75 0 0 0 3.77 4.54 4 4 0 0 0 1 .11h26a2.51 2.51 0 0 1 2.52 2.42z" class="B E"/><path d="M161.43 396.53l25.45-56.3h3.36l-25.44 56.3a10.06 10.06 0 0 0-.91 4.19v2.92a2.74 2.74 0 0 0 2.74 2.73h-3.36a2.73 2.73 0 0 1-2.74-2.73v-2.92a10.21 10.21 0 0 1 .9-4.19z" class="C"/><path d="M190.24 340.23h59.42l-2.33 13.45h-63.17l6.08-13.45z" opacity=".3"/><path d="M352.73 346.14H99.21a10.32 10.32 0 0 1-10.08-9.27l-16-183.2a8.36 8.36 0 0 1 8.46-9.27h253.49a10.31 10.31 0 0 1 10.08 9.27l16 183.2a8.36 8.36 0 0 1-8.43 9.27z" class="C"/><use href="#E" class="D"/><use href="#E" opacity=".6" class="B"/><use href="#F" class="D"/><use href="#F" opacity=".6" class="B"/><use href="#G" class="D"/><use href="#G" opacity=".3" class="B"/><path d="M300.31 278.29H159.62l-7.28-83.11h140.7l7.27 83.11z" class="C E"/><path d="M242.91 227.56a15.77 15.77 0 0 1-16 17.5 19.47 19.47 0 0 1-19-17.5 15.77 15.77 0 0 1 16-17.5 19.48 19.48 0 0 1 19 17.5z" class="B"/><path d="M235.01 228.21l-15.31-8.42 1.48 16.83 13.83-8.41z" class="C"/><path d="M297.02 261.98H160.05l-.24-2.7h136.97l.24 2.7z" class="B"/><path d="M236.83 261.98h-76.78l-.24-2.7h76.78l.24 2.7z" class="D"/><g class="B"><use href="#H"/><use href="#H" x="2.31"/><path d="M176.58 271.97h-5.19l-.45-5.19h5.19l.45 5.19zm6.89-2.6l4.27-2.59.45 5.19-4.72-2.6z"/><path d="M183.7 271.97h-1.33l-.45-5.19h1.32l.46 5.19zm14.35-2.6l-4.73-2.59.46 5.19 4.27-2.6z"/><path d="M198.27 271.97h1.33l-.46-5.19h-1.32l.45 5.19zm9.43-5.29l-2.32 3.13h5.19l-2.87-3.13zm3.17 5.39l-.12-1.33h-5.38l.11 1.33h5.39zm87.13.32h-10l-.54-6.13h10zm-9.25-.85h8.32l-.39-4.43h-8.31zm-8.15.85h-2.03l-.16-1.8.85-.07.09 1.02h1.25v.85zm4.49 0h-2.04v-.85h1.11l-.08-.95.85-.07.16 1.87zm-1.22-4.18l-.09-1.1h-1.19v-.85h1.97l.16 1.88-.85.07zm-5.67 0l-.17-1.95h2.1v.85h-1.17l.09 1.03-.85.07z"/></g><g class="F"><path d="M281.56 259.29l-.62 2.69-1.08 4.7-.99 4.33-1.67 7.28h4.15l2.63-11.61 1.07-4.7 9.98-44.01" class="B"/><path d="M281.35 278.79h-4.14a.51.51 0 0 1-.4-.19.49.49 0 0 1-.09-.42l4.35-19a.5.5 0 1 1 1 .23l-4.21 18.39H281l13.59-59.93a.5.5 0 1 1 1 .22l-13.75 60.31a.51.51 0 0 1-.49.39z" class="C"/></g><path d="M293.04 195.18h-140.7l-.65-7.52h140.69l.66 7.52z" class="D"/><g class="B"><path d="M162.31 191.47a2.09 2.09 0 0 1-2.12 2.33 2.58 2.58 0 0 1-2.52-2.33 2.1 2.1 0 0 1 2.12-2.32 2.58 2.58 0 0 1 2.52 2.32zm6.96 0a2.1 2.1 0 0 1-2.12 2.33 2.58 2.58 0 0 1-2.53-2.33 2.1 2.1 0 0 1 2.12-2.32 2.6 2.6 0 0 1 2.53 2.32zm6.95 0a2.1 2.1 0 0 1-2.12 2.33 2.6 2.6 0 0 1-2.53-2.33 2.1 2.1 0 0 1 2.12-2.32 2.6 2.6 0 0 1 2.53 2.32z"/><g class="F"><path d="M186.59 150h-9.74l-34.32 161.46h9.74L186.59 150zm-53.9 161.46L167.01 150h-36.59L96.1 311.46h36.59z"/></g><path d="M182 401.06v2.68a2.64 2.64 0 0 0 2.64 2.63h86.64a2.51 2.51 0 0 0 2.52-2.51v-2.81a2.52 2.52 0 0 0-2.52-2.52h-26a4.46 4.46 0 0 1-1-.11h-59.67a2.64 2.64 0 0 0-2.61 2.64z" class="E"/></g><path d="M164.16,398.42h80.09a4.73,4.73,0,0,1-3.78-4.55H166.2Z" class="E"/><use href="#I" class="C"/><g class="B"><use href="#J"/><use href="#J" x="7.39"/><use href="#J" x="14.86"/></g><path d="M235.1 326.01l-8.76-100.1h100.11l8.76 100.1H235.1z" class="E"/><g class="D"><path d="M340.12 319.43H240.01l-8.76-100.11h100.11l8.76 100.11z"/><path d="M310.68 277.63c1.51 17.27-8.75 24.27-22.15 24.27s-25.22-10.9-26.39-24.27 8.2-30.5 21.6-30.5c0 0 25.55 14.7 26.94 30.5z"/><path d="M294.83 280.44c.3 3.49-2.3 5.82-6.65 6.19l-.32 2.88h-2.62l.32-2.88a13.66 13.66 0 0 1-6.21-2l1.48-3.25a11.16 11.16 0 0 0 5.12 1.86l.5-4.43c-2.5-.74-5.26-1.71-5.54-4.88-.31-3.49 2.35-5.85 6.78-6.16l.32-2.89h2.62l-.32 2.92a12.15 12.15 0 0 1 5 1.49l-1.31 3.23a9.33 9.33 0 0 0-4-1.36l-.51 4.61c2.4.71 5.07 1.65 5.34 4.67zm-8-5.4l.42-3.78c-1.46.29-2.23 1.1-2.17 2.1.1.81.8 1.28 1.78 1.64zm3.78 6.08c-.07-.76-.71-1.23-1.66-1.57l-.39 3.59c1.44-.29 2.17-1.02 2.08-2.02z"/></g><ellipse cx="289.03" cy="274.71" rx="15.68" ry="17.93" transform="matrix(.05 -1 1 .05 1.4 550.87)" class="C"/><use href="#K" class="D"/><use href="#K" opacity=".4" class="B"/><path d="M275.13 276.58c.21.37.46.73.68 1.06 0 0 0 .06.05.08 3.76 5 11.2 6.86 17.33 4.19s8.89-9 6.51-14.57c0 0-.06 0-.05-.08-.18-.36-.36-.74-.58-1.11-3.37-5.81-11.48-8.19-18.09-5.31s-9.22 9.93-5.85 15.74z" class="D"/><path d="M275.81 277.64s0 .06.05.08c3.76 5 11.2 6.86 17.33 4.19s8.89-9 6.51-14.57c0 0-.06 0-.05-.08-3.75-5-11.2-6.86-17.37-4.17s-8.84 8.98-6.47 14.55z" opacity=".3" class="B"/><g opacity=".4" class="B"><path d="M291.93 274.39c.4 2.3-1.18 3.84-4 4.08l-.05 1.9h-1.73l.05-1.9a9.47 9.47 0 0 1-4.21-1.33l.78-2.14a7.94 7.94 0 0 0 3.48 1.22l.08-2.92c-1.69-.48-3.57-1.12-3.94-3.22-.4-2.3 1.21-3.85 4.12-4.06v-1.9h1.73v1.92a8.77 8.77 0 0 1 3.35 1l-.67 2.15a6.77 6.77 0 0 0-2.74-.9l-.07 3c1.65.49 3.47 1.11 3.82 3.1zm-5.57-3.56l.07-2.49c-1 .19-1.42.72-1.32 1.38s.58.85 1.25 1.11zm2.85 4c-.09-.5-.54-.81-1.19-1v2.37c.85-.2 1.3-.7 1.19-1.36z"/></g><text transform="matrix(1 0 .09 1 267.51 245.54)" font-size="12.874" font-weight="800" class="B K">Only</text><text transform="matrix(1 0 .09 1 260.97 305.29)" font-size="9.215" font-weight="800" class="B K">1$/month !!!</text><use href="#I" y="-0.55" class="C"/><g class="B"><use href="#J" y="-0.55"/><use href="#J" x="7.39" y="-0.55"/><use href="#J" x="14.86" y="-0.55"/></g><path d="M236.5 206.34l-8.19-93.66h93.67l8.19 93.66H236.5z" class="E"/><path d="M334.77 200.19H241.1l-8.19-93.67h93.66l8.2 93.67z" class="D"/><path d="M275.19 134.21l-4.46-7.21s2.47-5.29 6-5.48 7.5 2.93 7.5 2.93l4.34-1.88-2.28 12.73s-5.77 4.99-11.1-1.09z" class="B"/><use href="#L" class="D"/><use href="#L" class="B"/><path d="M293 162.7c1.14 3.27-.72 5.45-4.7 5.79l.4 2.7h-2.45l-.4-2.7a15.69 15.69 0 0 1-6.31-1.89l.58-3a13.09 13.09 0 0 0 5.25 1.74l-.62-4.14c-2.52-.69-5.34-1.6-6.38-4.57-1.14-3.26.76-5.47 4.83-5.76l-.41-2.7h2.46l.41 2.72a14.17 14.17 0 0 1 5 1.4l-.43 3a10.91 10.91 0 0 0-4.1-1.27l.65 4.32c2.51.66 5.22 1.54 6.22 4.36zm-8.79-5l-.52-3.53c-1.31.27-1.83 1-1.53 2 .29.67 1.06 1.11 2.07 1.48zm5 5.69a2.72 2.72 0 0 0-1.93-1.47l.51 3.36c1.28-.28 1.8-1.01 1.47-1.94z" class="D"/><path d="M283.56 134.76l-2.45-8.34a4 4 0 0 0-3.3-.88 3.05 3.05 0 0 0-2.25 2.09 31.15 31.15 0 0 0 3.11 6.71 2.47 2.47 0 0 1 2.31-1 3.55 3.55 0 0 1 2.58 1.42zm1.11-.98l.93-6.51-1.24.71-.32 5.79" class="F"/><path d="M327.23 114.04h-93.67l-.65-7.52h93.66l.66 7.52z" class="C"/><path d="M243.53 110.33a2.08 2.08 0 0 1-2.11 2.32 2.58 2.58 0 0 1-2.53-2.32A2.1 2.1 0 0 1 241 108a2.58 2.58 0 0 1 2.53 2.33zm6.96 0a2.1 2.1 0 0 1-2.12 2.32 2.58 2.58 0 0 1-2.53-2.32A2.1 2.1 0 0 1 248 108a2.6 2.6 0 0 1 2.49 2.33zm6.95 0a2.1 2.1 0 0 1-2.12 2.32 2.6 2.6 0 0 1-2.53-2.32 2.1 2.1 0 0 1 2.12-2.32 2.59 2.59 0 0 1 2.53 2.32z" class="B"/><g class="E"><path d="M210.9 346.51H105.25L91.47 189.04h105.65l13.78 157.47z"/></g><use href="#M" class="D"/><g class="F B"><use href="#M"/></g><path d="M155.29 225.15l11.14-12.59 5.8 17.03 16.47-4.77-3.29 16.91 17.39 4.32-11.5 12.26 13.64 12.25-16.63 4.32 6.25 16.91-17.3-4.77-2.83 17.03-13.34-12.59-11.14 12.59-5.8-17.03-16.47 4.77 3.29-16.91-17.39-4.32 11.51-12.25-13.65-12.26 16.63-4.32-6.25-16.91 17.31 4.77 2.82-17.03 13.34 12.59z" class="I"/><path d="M146.4 249.28a4.1 4.1 0 0 1 1.33 3.54 5.22 5.22 0 0 1-.91 2.62 5.56 5.56 0 0 1-2.32 1.88 8.52 8.52 0 0 1-3.67.71 11.73 11.73 0 0 1-3.24-.44 7.7 7.7 0 0 1-2.64-1.24l1.64-2.79a6.29 6.29 0 0 0 2 1.05 7.53 7.53 0 0 0 2.41.39 4 4 0 0 0 2.2-.54 1.88 1.88 0 0 0 .89-1.5 1.56 1.56 0 0 0-.71-1.53 5.51 5.51 0 0 0-2.81-.52h-4l1.43-8.84h9.59l-.21 2.92h-6.56l-.45 3h1.28q3.26.01 4.75 1.29zm5.76 7.79a5.91 5.91 0 0 1-2.19-2.8 9.78 9.78 0 0 1-.55-4.36 10.7 10.7 0 0 1 1.17-4.37 7.25 7.25 0 0 1 2.59-2.8 6.75 6.75 0 0 1 3.55-1 6.06 6.06 0 0 1 3.41 1 5.91 5.91 0 0 1 2.19 2.8 9.82 9.82 0 0 1 .56 4.37 10.65 10.65 0 0 1-1.18 4.36 7.17 7.17 0 0 1-2.59 2.8 6.73 6.73 0 0 1-3.55 1 6.08 6.08 0 0 1-3.41-1zm6-3.35a7.48 7.48 0 0 0 1.09-3.81 6.74 6.74 0 0 0-.55-3.82 2.38 2.38 0 0 0-2.17-1.24 2.78 2.78 0 0 0-2.32 1.24 7.29 7.29 0 0 0-1.09 3.82 6.72 6.72 0 0 0 .55 3.81 2.33 2.33 0 0 0 2.14 1.24 2.79 2.79 0 0 0 2.33-1.24zm7.36-4.36a4.24 4.24 0 0 1-.87-3.16 4.79 4.79 0 0 1 1.31-3.15 3.94 3.94 0 0 1 2.91-1.18 3.36 3.36 0 0 1 2.72 1.18 4.2 4.2 0 0 1 .85 3.15 4.78 4.78 0 0 1-1.3 3.16 3.91 3.91 0 0 1-2.89 1.17 3.41 3.41 0 0 1-2.73-1.17zm4.11-1.29a3.51 3.51 0 0 0 .57-1.87 3.12 3.12 0 0 0-.31-1.86 1.28 1.28 0 0 0-1.15-.63 1.5 1.5 0 0 0-1.24.64 3.38 3.38 0 0 0-.58 1.85 3 3 0 0 0 .32 1.85 1.27 1.27 0 0 0 1.14.64 1.52 1.52 0 0 0 1.25-.62zm8.59-6h2.67L169 257.76h-2.67zm-1.8 15.37a3.31 3.31 0 0 1-1.28-1.52 4.92 4.92 0 0 1-.33-2.29 5.38 5.38 0 0 1 .66-2.29 3.93 3.93 0 0 1 3.53-2 3.4 3.4 0 0 1 2.74 1.18 4.16 4.16 0 0 1 .86 3.15 4.74 4.74 0 0 1-1.31 3.15 3.91 3.91 0 0 1-2.9 1.18 3.64 3.64 0 0 1-1.97-.58zm3.35-2a3.46 3.46 0 0 0 .57-1.85 3.18 3.18 0 0 0-.31-1.85 1.27 1.27 0 0 0-1.16-.64 1.51 1.51 0 0 0-1.23.63 3.39 3.39 0 0 0-.58 1.86 3 3 0 0 0 .32 1.86 1.27 1.27 0 0 0 1.14.63 1.49 1.49 0 0 0 1.25-.62zm-41.34 24.73a7 7 0 0 1-2.87-2.9 7.55 7.55 0 0 1-.82-4.17 8.38 8.38 0 0 1 1.41-4.16 8.63 8.63 0 0 1 3.28-2.91 9.63 9.63 0 0 1 4.48-1 8.7 8.7 0 0 1 4.33 1 7.18 7.18 0 0 1 2.87 2.91 7.5 7.5 0 0 1 .83 4.16 8.46 8.46 0 0 1-1.42 4.17 8.83 8.83 0 0 1-3.28 2.9 9.49 9.49 0 0 1-4.48 1.06 8.63 8.63 0 0 1-4.33-1.06zm7.11-2.68a5 5 0 0 0 1.89-1.78 5.47 5.47 0 0 0 .82-2.61 5 5 0 0 0-.45-2.6 4.17 4.17 0 0 0-1.64-1.79 4.81 4.81 0 0 0-2.47-.64 5.27 5.27 0 0 0-2.55.64 5.15 5.15 0 0 0-1.89 1.79 5.44 5.44 0 0 0-.83 2.6 5 5 0 0 0 .46 2.61 4.07 4.07 0 0 0 1.63 1.78 4.71 4.71 0 0 0 2.47.64 5.2 5.2 0 0 0 2.56-.64zm13.12-9.33l-.29 4.16h7.27l-.21 2.92h-7.27l-.41 5.72h-3.63l1.11-15.72h11.88l-.21 2.92zm14.34 0l-.3 4.16h7.3l-.21 2.92h-7.27l-.42 5.76h-3.64l1.12-15.72h11.87l-.2 2.92z" class="D"/><path d="M204.59 191.23H98.92L98 180.69h105.66l.93 10.54z" class="C"/><path d="M112.89 186a2.93 2.93 0 0 1-3 3.25 3.62 3.62 0 0 1-3.53-3.25 2.94 2.94 0 0 1 3-3.26 3.62 3.62 0 0 1 3.53 3.26zm9.75 0a2.93 2.93 0 0 1-3 3.25 3.63 3.63 0 0 1-3.54-3.25 2.94 2.94 0 0 1 3-3.26 3.63 3.63 0 0 1 3.54 3.26zm9.75 0a2.93 2.93 0 0 1-3 3.25 3.62 3.62 0 0 1-3.54-3.25 2.94 2.94 0 0 1 3-3.26 3.63 3.63 0 0 1 3.54 3.26z" class="B"/><path d="M240.86 168.02H89.87l-2.06-23.62H238.8l2.06 23.62z" class="E"/><use href="#N" class="D"/><use href="#N" class="B F"/><path d="M238.86 80.75H87.87l-.62-7.06h151l.61 7.06z" class="C"/><path d="M97.25 77.27a2 2 0 0 1-2 2.18 2.42 2.42 0 0 1-2.37-2.18 2 2 0 0 1 2-2.18 2.43 2.43 0 0 1 2.37 2.18zm6.53 0a2 2 0 0 1-2 2.18 2.42 2.42 0 0 1-2.37-2.18 2 2 0 0 1 2-2.18 2.41 2.41 0 0 1 2.37 2.18zm6.54 0a2 2 0 0 1-2 2.18 2.41 2.41 0 0 1-2.32-2.18 2 2 0 0 1 2-2.18 2.42 2.42 0 0 1 2.32 2.18z" class="B"/><path d="M197.44 93.89l6.05-6.84 3.15 9.25 8.95-2.59-1.79 9.18 9.45 2.35-6.25 6.66 7.41 6.66-9.03 2.34 3.39 9.19-9.4-2.59-1.53 9.25-7.25-6.84-6.05 6.84-3.15-9.25-8.95 2.59 1.79-9.19-9.45-2.34 6.25-6.66-7.41-6.66 9.03-2.35-3.39-9.18 9.4 2.59 1.53-9.25 7.25 6.84z" class="I"/><path d="M193.14 112.1h1.6l.23 2.65a4.47 4.47 0 0 1-2.62.81 3.67 3.67 0 0 1-3.81-3.32 3 3 0 0 1 3.27-3.33 3.79 3.79 0 0 1 2.89 1.17l-1.06 1a2.19 2.19 0 0 0-1.61-.71 1.56 1.56 0 0 0-1.67 1.83 1.92 1.92 0 0 0 2 1.82 2.13 2.13 0 0 0 1-.21zm8.05 1.9l.13 1.39h-5.14l-.56-6.39h5l.12 1.4h-3.23l.1 1.07h2.84l.12 1.36h-2.84l.1 1.17zm2.06-3.53h-2l-.13-1.43h5.73l.12 1.43h-1.95l.43 5h-1.81zm-.8 11.91l.12 1.43h-5l-.1-1.13 2.19-2.24c.47-.47.52-.77.5-1s-.33-.66-.88-.66a1.18 1.18 0 0 0-1.09.62l-1.41-.75a2.67 2.67 0 0 1 2.54-1.33c1.47 0 2.55.76 2.65 1.94a2.34 2.34 0 0 1-.91 2l-1.06 1.12zm-9.14-17.22c.08.86-.58 1.36-1.91 1.36h-2.66l-.43-4.93h2.52c1.3 0 2 .52 2 1.28a1 1 0 0 1-.56 1.08 1.36 1.36 0 0 1 1.04 1.21zm-3.53-2.57l.08 1h1q.7 0 .66-.48c0-.31-.28-.47-.74-.47zm2.11 2.42c0-.34-.29-.5-.77-.5H190l.08 1h1.17c.43 0 .67-.16.64-.51zm2.03-.69l-.24-2.73h1.4l.23 2.69c.07.84.46 1.18 1 1.18s.9-.34.83-1.18l-.24-2.69h1.37l.24 2.73a1.9 1.9 0 0 1-2.11 2.29 2.32 2.32 0 0 1-2.48-2.29zm8.18.43l.16 1.77h-1.4l-.15-1.79-2.16-3.14H200l1.34 2 1-2h1.35zm5.9-3.16l.43 4.93H207l-.33-3.86h-.92l-.09-1.07z" class="D"/><path d="M143.13 118.4l-1-2.24c-11.37.52-13-3.78-13.26-5.15-.44-2.54 1.65-4.85 4.66-5.15 4.15-.43 7.27 3.32 8.9 5.79a12.72 12.72 0 0 1 9.06-4.74h0a4.87 4.87 0 0 1 5 3.42 3.61 3.61 0 0 1-.5 3.69c-2.39 3-10.1 2.41-12.43 2.17zm1-4.55c3.5.31 8.52.08 9.8-1.52.2-.25.41-.51.14-1.33a2.11 2.11 0 0 0-2.36-1.55h0a10.31 10.31 0 0 0-7.63 4.4zm-9.73-5.48a2.55 2.55 0 0 0-.39 0c-1.71.17-2.8 1.41-2.63 2.41s2.47 3 9.51 2.85c-1.07-1.74-3.51-5.26-6.54-5.26z" class="C"/><use href="#O" class="D"/><use href="#O" class="B F"/><path d="M170.33 148.87h-49.56l-1.95-22.28h49.56l1.95 22.28z" class="E"/><path d="M154.84 114.82h-4.02l2.98 34.05h4.02l-2.98-34.05zm-24.16 34.05h-2.95l-2.98-34.05h2.96l2.97 34.05z" class="C"/><path d="M140.46 148.87h-19.69l-2.98-34.05h19.69l2.98 34.05z" class="E"/><path d="M184.61 126.76c-1.55.17-6.69.56-8.67-1.47a2.75 2.75 0 0 1-.77-2.49 2.67 2.67 0 0 1 3-2.32h0a10.48 10.48 0 0 1 6.69 3.21c.81-1.68 2.48-4.21 5.33-3.92 2.08.2 3.77 1.77 3.77 3.49 0 .92-.61 3.83-8.36 3.48l-.45 1.52zm-6.32-4.59h0c-.85 0-1.29.28-1.41 1.06a.87.87 0 0 0 .25.91c1.05 1.08 4.48 1.23 6.81 1a8.65 8.65 0 0 0-5.65-2.97zm7.82 2.87c4.78.12 6.09-1.17 6.09-1.93s-.88-1.51-2.06-1.63h-.27c-2.05-.01-3.28 2.37-3.76 3.52z" class="C"/><use href="#P" class="D"/><use href="#P" opacity=".6" class="B"/><path d="M170.33 148.87h33.52l-1.31-15.08h-33.53l1.32 15.08z" class="F"/><path d="M190.53 148.87h13.32l-2.01-23.03h-13.32l2.01 23.03z" class="B E"/><path d="M176.77 125.84h2.73l2.01 23.03h-2.72l-2.02-23.03zm20.38 23.03h2l-2.02-23.03h-2l2.02 23.03z" class="C"/><path d="M348.3 394.71l-7.21-7.08-9.01 19.92 5.28 3.43 10.94-16.27z" class="G"/><path d="M346.85 396.84l-3.54 5.27-7.2-3.5 3.7-8.18 7.04 6.41z" class="E"/><path d="M386 415.6h-.15a10 10 0 0 1-7.1-3.77c-7.31-9.32-11.56-23.43-16.21-32.69a24.14 24.14 0 0 0-1.85-3.16 19.48 19.48 0 0 1-.65 2.16 64 64 0 0 1-13.15 21.74l-9.26-6.17 12.82-31.28c10.12-22.79 34.51 4.89 43.56 21.15a56 56 0 0 1 3.24 6.66l21.64.71c1.56 12.42-3.99 26.92-32.89 24.65z" class="D"/><g opacity=".4"><path d="M386 415.6h0a10.24 10.24 0 0 1-7.28-3.86c-7.26-9.33-11.5-23.38-16.14-32.61a24.14 24.14 0 0 0-1.85-3.16 19.48 19.48 0 0 1-.65 2.16 64 64 0 0 1-13.15 21.74l-9.26-6.17 12.82-31.28c10.12-22.79 34.51 4.89 43.56 21.15a56 56 0 0 1 3.24 6.66l21.64.71c1.52 12.43-4.03 26.93-32.93 24.66z"/></g><path d="M351.93 396.94l-13.51-7.51-1.71 4.7 11.65 7 3.57-4.19zM333 402c-3.13 1-6.7 1.94-14.27.63-1.68-.31-3.11 3.65.61 5.16s19.53 6.3 19.59 6.31a1.55 1.55 0 0 0 1.9-1.05l2.07-8.34a.79.79 0 0 0-.5-.91l-7.74-1.75A2.49 2.49 0 0 0 333 402z" class="C"/><g class="D"><path d="M332.7 402.39a.23.23 0 0 0 0-.26.22.22 0 0 0-.23-.13c-.48.06-4.73.58-5.34 1.77a.72.72 0 0 0 0 .71 1.22 1.22 0 0 0 .95.69 3.53 3.53 0 0 0 2.26-.82 17.14 17.14 0 0 0 2.36-1.96zm-4.84 1.26a12.34 12.34 0 0 1 4-1.11c-1.56 1.48-2.91 2.29-3.69 2.18a.81.81 0 0 1-.62-.45.3.3 0 0 1 0-.29.92.92 0 0 1 .31-.31z"/><path d="M332.77 402.28a.22.22 0 0 0 0-.22c-.07-.08-1.7-2.1-3.26-2.25a1.67 1.67 0 0 0-1.25.38c-.49.4-.5.8-.35 1 .46 1 3.49 1.44 4.72 1.22l.08-.05a.2.2 0 0 0 .06-.08zm-4.19-1.83a1.21 1.21 0 0 1 .84-.21 5.22 5.22 0 0 1 2.66 1.76c-1.35.06-3.53-.42-3.81-1 0-.05-.09-.2.23-.47l.11-.07z"/><use href="#Q"/></g><g opacity=".3"><use href="#Q"/></g><path d="M406.13 282c8.09 33.36 2.21 30.61.2 31.65.88 1.59 3.43 2.45 4.88 1.35a5.85 5.85 0 0 0 2-4.86c-.05-1.81-1.18-20.91-4-28a2.62 2.62 0 0 0-1.15-1.55c-.59-.3-2.06.79-1.93 1.41z" class="C"/><path d="M398.84,311.36c1.47,4.25,1.85,6.77-4.29,8.81,0,0-6.95,9.88,3,23.53a125.19,125.19,0,0,0,14.43-25c-4.25-3.4-3.85-11.67-3.24-17.38Z" class="G"/><path d="M388.69,321.08a9.27,9.27,0,0,1,5.29-3.89c3.72-1.08,17.89-.45,19.22.64A7.7,7.7,0,0,1,416,322Z" class="C"/><path d="M415.71 339a54.86 54.86 0 0 0 4.88 9.64l7.18-4.73a25 25 0 0 0-2.3-3.8c-3.17-3.96-6.86-3.26-9.76-1.11z" class="E"/><g class="G"><path d="M415.8 359.15l.54-7.22.45-8.23.24-8.27.05-2.22a6.32 6.32 0 0 1 6.06-6.24h0a6.31 6.31 0 0 1 6.55 6.88l-1 10.83-.88 8.64-1.37 8.65-.24.92zm-27.96 4.08l-8.35-3.9a2.51 2.51 0 0 0-2.19 0l-7.69 4a2.46 2.46 0 0 0-1.29 1.73h0a2.48 2.48 0 0 0 2.3 3l7.39.4 11.11 2.12s3.78-4.98-1.28-7.35z"/><path d="M416.66,357.82l-28.82,5.41s.31,7.83,1.28,7.32c.66-.34,17.46-.63,28.33-.78a9.49,9.49,0,0,0,9.35-9.26h0Z"/></g><use href="#R" class="D"/><g class="F"><use href="#R"/></g><g class="C"><use href="#S"/><use href="#S" x="-4.3"/><use href="#T"/><path d="M369.12 372.1h3.11a.56.56 0 0 0 .59-.54v-3a.56.56 0 0 0-.59-.54H370a.58.58 0 0 0-.57.4l-.88 3a.55.55 0 0 0 .57.68z"/><path d="M364.84 372.1h3.1a.56.56 0 0 0 .59-.54v-3a.56.56 0 0 0-.59-.54h-2.23a.58.58 0 0 0-.57.4l-.88 3a.56.56 0 0 0 .58.68z"/><path d="M360.55 372.1h3.1a.56.56 0 0 0 .59-.54v-3a.56.56 0 0 0-.59-.54h-2.23a.59.59 0 0 0-.57.4l-.87 3a.55.55 0 0 0 .57.68z"/><use href="#U"/><use href="#S" x="-30"/><use href="#T" x="-25.73"/><path d="M343.39 372.1h3.11a.56.56 0 0 0 .59-.54v-3a.56.56 0 0 0-.59-.54h-2.23a.58.58 0 0 0-.57.4l-.88 3a.55.55 0 0 0 .57.68z"/><path d="M339.11 372.1h3.1a.56.56 0 0 0 .59-.54v-3a.56.56 0 0 0-.59-.54H340a.58.58 0 0 0-.57.4l-.88 3a.56.56 0 0 0 .56.68z"/><path d="M334.82 372.1h3.1a.56.56 0 0 0 .59-.54v-3a.56.56 0 0 0-.59-.54h-2.23a.58.58 0 0 0-.57.4l-.87 3a.55.55 0 0 0 .57.68z"/><use href="#U" x="-25.73"/><use href="#S" x="-55.76"/><path d="M322 372.1h3.11a.57.57 0 0 0 .59-.54v-3a.57.57 0 0 0-.59-.54h-2.23a.57.57 0 0 0-.57.4l-.88 3a.55.55 0 0 0 .57.68z"/><use href="#V"/></g><use href="#V" class="B E"/><path d="M318.83 372.43a2.49 2.49 0 0 0 2.58 2.36h21.74a2.42 2.42 0 0 0 1.8-2.26 2.85 2.85 0 0 0 0-.42 2.26 2.26 0 0 0-.73-1.25 3.19 3.19 0 0 0-.55-.39l-.3-.13a2.72 2.72 0 0 0-1-.18H320.7a2.41 2.41 0 0 0-1.87 2.27z" class="C"/><path d="M393.33 319a132.53 132.53 0 0 1 18.92 1 111.46 111.46 0 0 1 11.63 2l.35.08a5.69 5.69 0 0 1 3.91 7c-8.51 29.84-9 40.05-9.29 56.06l-41.63-2.4c-.71-6.71 2.17-13.55 1.35-23.59-2.1-25.63-4.64-24.87-3.94-29.86-.63-6.98 13.61-10.16 18.7-10.29z" class="D"/><g class="C"><path d="M388.93 289.89c-.5-.05-1 .54-1 1.3s.3 1.41.79 1.46 1-.51 1-1.31-.3-1.41-.79-1.45z"/><path d="M387.36 289.27l1.78.68c-.96.83-1.78-.68-1.78-.68z"/></g><path d="M388.66,297.88a3.3,3.3,0,0,1-2.52-1.17,20,20,0,0,0,3.85-4Z" fill="#a02724"/><path d="M389.34 286.93a3.59 3.59 0 0 1 2.82 1.61v.08a.45.45 0 1 0 .74-.51 4.45 4.45 0 0 0-3.53-2.08.47.47 0 0 0-.49.42.46.46 0 0 0 .2.4.42.42 0 0 0 .26.08z" class="C"/><path d="M415.68,290.73C414.32,300,414,304,408.83,308.44a13.26,13.26,0,0,1-9.77,3.33H399a11.86,11.86,0,0,1-3.08-.68,13,13,0,0,1-2.44-1.23h0a11.39,11.39,0,0,1-5-8c-1.32-8.6,1.11-22.39,10.58-25.36a12.86,12.86,0,0,1,16.61,14.22Z" class="G"/><path d="M405.33 309.57a2.79 2.79 0 0 0 3.53 0c3.62-2.93 11.59-10.12 12.7-17.58 1.44-9.67-2.42-15.87-9.55-17.8s-18.21-.27-21.72 5 0 6.25 6.47 14.9c-1.41 6.23 5.24 12.72 8.57 15.48z" class="C"/><path d="M396.79 290.73c-2.3.45-3.25 3.64-3.17 5.69.09 2.29 1.86 3.89 3.85 2.53a6.86 6.86 0 0 0 2.85-4.42 3.08 3.08 0 0 0-3.53-3.8z" class="G"/><path d="M418.84 382.33l-41.57-2.39c-.41 0-.75.18-.73.44l-.54 3.42c0 .63.24.83.62.86l43.1 2.37c.47 0 .84-.25.7-.55l-.86-3.81a.74.74 0 0 0-.72-.34z" class="C"/><path d="M414.14 386.82l-.25-4.88c0-.14.17-.22.39-.24l1.13.07a.42.42 0 0 1 .43.29l.24 4.86c0 .15-.17.23-.39.24l-1.13-.06a.37.37 0 0 1-.42-.28zm-33.84-2.01l.38-4.89a.49.49 0 0 1 .45-.36l1.09.1a.46.46 0 0 1 .38.39l-.33 4.89a.41.41 0 0 1-.43.29l-1.16-.09c-.22-.04-.39-.14-.38-.33zm16.81 1.04l.09-5.15c0-.15.18-.21.41-.22l1.11.14c.23 0 .4.17.41.31v5.11c0 .14-.19.2-.41.2l-1.18-.07c-.25-.03-.44-.17-.43-.32z" class="D"/><g class="G"><path d="M374.73 356.43l-.07-7.5-.24-8.54-.46-8.57c0-.76-.09-1.53-.14-2.3a6.56 6.56 0 0 1 5.73-7h0a6.55 6.55 0 0 1 7.36 6.54l-.12 11.29-.16 9-.68 9.05-.17 1zm-28.16 6.08l-7.69-2.85a2.24 2.24 0 0 0-1.95.2L330.4 364a2.21 2.21 0 0 0-1 1.63h0a2.21 2.21 0 0 0 2.26 2.46l6.59-.19 10 1.07s3-4.73-1.68-6.46z"/><path d="M375.49,355l-29.31,8.06s1.11,6.48,2.08,5.87c.65-.42,17.86-.57,29.08-1.66a9.83,9.83,0,0,0,8.87-10.36h0Z"/></g><use href="#W" class="C"/><use href="#W" class="D"/><path d="M399 311.77a11.86 11.86 0 0 1-3.08-.68 13 13 0 0 1-2.44-1.23h0v-.07a5.78 5.78 0 0 0 3.63-.09 1.37 1.37 0 0 1 1-.14c.35.15.48.57.57.95l.32 1.26z" class="E"/><path d="M390.57 281.38c8.09 33.37 2.21 30.62.2 31.66.88 1.59 3.43 2.44 4.89 1.35a5.85 5.85 0 0 0 2-4.86c0-1.82-1.18-20.91-4-28a2.58 2.58 0 0 0-1.15-1.55c-.6-.32-2.09.76-1.94 1.4zm30.96 3.71c-1.37 1.38-3.65.92-5.5.34a21.12 21.12 0 0 1-5.63-2.43 7.78 7.78 0 0 1-3.43-4.91 6.05 6.05 0 0 1 4.72-6.71 6.14 6.14 0 0 1 4.33-5.54 6.37 6.37 0 0 1 6.72 2.52c6.92 1.48 5 8.31 4.77 9.2a2.38 2.38 0 0 1-2 1.75c.35 2.05-1.9 5.46-3.98 5.78z" class="C"/><defs ><path id="B" d="M100.27 373.13l-.31.32a2.84 2.84 0 0 1-4.09 0l-.3-.32a5.09 5.09 0 0 1-1.43-3.55V263.79a5.13 5.13 0 0 1 1.43-3.55l.3-.32a2.84 2.84 0 0 1 4.09 0l.31.32a5.13 5.13 0 0 1 1.43 3.55v105.79a5.09 5.09 0 0 1-1.43 3.55z"/><path id="C" d="M121.37 373.13l-.3.32a2.85 2.85 0 0 1-4.1 0l-.3-.32a5.09 5.09 0 0 1-1.43-3.55V263.79a5.13 5.13 0 0 1 1.43-3.55l.3-.32a2.85 2.85 0 0 1 4.1 0l.3.32a5.13 5.13 0 0 1 1.43 3.55v105.79a5.09 5.09 0 0 1-1.43 3.55z"/><path id="D" d="M142.47 373.13l-.3.32a2.84 2.84 0 0 1-4.09 0l-.31-.32a5.09 5.09 0 0 1-1.43-3.55V263.79a5.13 5.13 0 0 1 1.43-3.55l.31-.32a2.84 2.84 0 0 1 4.09 0l.3.32a5.13 5.13 0 0 1 1.43 3.55v105.79a5.09 5.09 0 0 1-1.43 3.55z"/><path id="E" d="M359.46,317.06l1.73,19.81a8.36,8.36,0,0,1-8.46,9.27H99.21a10.32,10.32,0,0,1-10.08-9.27L87.4,317.06Z"/><path id="F" d="M96.34 311.46h253.19a4.53 4.53 0 0 0 4.59-5L340.87 155a5.59 5.59 0 0 0-5.46-5H82.22a4.53 4.53 0 0 0-4.59 5l13.25 151.44a5.59 5.59 0 0 0 5.46 5.02z"/><path id="G" d="M76,144.4h5.61a8.36,8.36,0,0,0-8.46,9.27l16,183.2a10.32,10.32,0,0,0,10.08,9.27H93.6a10.32,10.32,0,0,1-10.08-9.27l-16-183.2A8.35,8.35,0,0,1,76,144.4Z"/><path id="H" d="M162.4 271.97h-1.32l-.45-5.19h1.32l.45 5.19z"/><path id="I" d="M332.06 227.36h-100.1l-.71-8.04h100.11l.7 8.04z"/><path id="J" d="M242.61 223.4a2.23 2.23 0 0 1-2.26 2.48 2.76 2.76 0 0 1-2.7-2.48 2.23 2.23 0 0 1 2.26-2.48 2.76 2.76 0 0 1 2.7 2.48z"/><path id="K" d="M271.28 278.57c4.5 7.76 15.29 10.94 24.11 7.1s12.32-13.25 7.82-21-15.3-10.94-24.12-7.1-12.31 13.24-7.81 21z"/><path id="L" d="M307.22 161.08c1.41 16.15-8.18 22.7-20.72 22.7a25.27 25.27 0 0 1-24.69-22.7c-1.1-12.54 7.67-28.54 20.21-28.54-.02 0 23.91 13.75 25.2 28.54z"/><path id="M" d="M217.44 338.16H111.79L98.02 180.69h105.64l13.78 157.47z"/><path id="N" d="M245.96 161.9h-151l-7.71-88.21h151l7.71 88.21z"/><path id="O" d="M170.33 148.87h-49.56l-2.98-34.05h49.56l2.98 34.05z"/><path id="P" d="M170.33 148.87h33.52l-2.01-23.03h-33.53l2.02 23.03z"/><path id="Q" d="M389.21 416l-4-.38c-29.53-3.25-78.37-17.73-84.3-34.44 0 0-7-20 18.23-15.19 7.65 1.46 21.12 4.36 33.24 7.81 5.26 1.47 24.29 9.35 25.28 11.12l16.93.75 24.74 1.11a34 34 0 0 1 1.23 5.73c1.44 11.79-3.84 25.61-31.35 23.49z"/><path id="R" d="M415.34 328.93c-3.41 4.45-.66 17.65-.66 17.65l17-3.71s.32-15.85-3-18.78c-3.78-3.34-9.84.22-13.34 4.84z"/><path id="S" d="M382 372.1h3.1a.57.57 0 0 0 .6-.54v-3a.57.57 0 0 0-.6-.54h-2.22a.59.59 0 0 0-.58.4l-.87 3a.55.55 0 0 0 .57.68z"/><path id="T" d="M373.41 372.1h3.11a.57.57 0 0 0 .59-.54v-3a.57.57 0 0 0-.59-.54h-2.23a.58.58 0 0 0-.57.4l-.88 3a.55.55 0 0 0 .57.68z"/><path id="U" d="M356.26 372.1h3.1a.57.57 0 0 0 .6-.54v-3a.57.57 0 0 0-.6-.54h-2.23a.59.59 0 0 0-.57.4l-.87 3a.55.55 0 0 0 .57.68z"/><path id="V" d="M318.83 372.43a2.49 2.49 0 0 0 2.58 2.36h64.21a2.48 2.48 0 0 0 2.58-2.36 2.23 2.23 0 0 0-.75-1.67 2.7 2.7 0 0 0-1.77-.69h-64.27a3.21 3.21 0 0 0-.71.09 2.41 2.41 0 0 0-1.87 2.27z"/><path id="W" d="M378.24 322.23c-6.34 2.52-8.37 14.76-5.28 21.39 12.6-2.55 17.23.17 17.09.5a29.66 29.66 0 0 0 .45-9 15.55 15.55 0 0 0-4.09-10.12c-2.64-2.66-4.77-4.32-8.17-2.77z"/></defs></svg>