<svg xmlns="http://www.w3.org/2000/svg" viewBox="0 0 750 500" xmlns:v="https://vecta.io/nano"><style><![CDATA[.B{fill:#263238}.C{fill:#ff725e}.D{fill:#fafafa}.E{fill:#455a64}.F{opacity:.3}.G{fill:#fff}.H{fill:#e0e0e0}]]></style><g class="H"><path d="M592.33 197.15a5 5 0 0 1 2.15-.25h.72l-.23.23c0-.83.12-1.42.23-1.42s.2.59.23 1.42v.23h-1a4.8 4.8 0 0 1-2.1-.21z"/><use href="#B"/><use href="#C"/><use href="#B" x="-11.47"/><use href="#C" x="-11.47"/><use href="#D"/><use href="#E"/><use href="#F"/><use href="#B" x="-40.15"/><use href="#F" x="-11.47"/><use href="#B" x="-51.6"/><use href="#C" x="-51.62"/><use href="#D" x="-40.15"/><use href="#E" x="-40.15"/><use href="#D" x="-51.65"/><use href="#E" x="-51.62"/><use href="#F" x="-51.62"/><use href="#B" x="-91.77"/><use href="#G"/><use href="#H"/><use href="#I"/><use href="#J"/><use href="#K"/><use href="#J" y="-11.47"/><use href="#K" y="-11.47"/><use href="#G" y="-40.15"/><use href="#H" y="-40.15"/><use href="#I" y="-40.15"/><use href="#H" y="-51.62"/><path d="M493 130.12c.13 0 .25.64.25 1.43s-.08 1.45-.25 1.45-.25-.64-.25-1.43.15-1.45.25-1.45z"/><use href="#J" y="-51.62"/><use href="#K" y="-51.62"/><use href="#G" y="-80.3"/><path d="M493 107.17c.13 0 .25.65.25 1.44s-.08 1.39-.25 1.39-.25-.64-.25-1.43.15-1.4.25-1.4z"/><use href="#G" y="-91.77"/><use href="#H" y="-91.77"/><use href="#L"/><use href="#M"/><use href="#N"/><ellipse cx="513.83" cy="94.99" rx="1.43" ry=".25"/><use href="#O"/><path d="M526.74 95c0 .14-.64.25-1.44.25s-1.43-.11-1.43-.25.64-.25 1.43-.25 1.44.1 1.44.25z"/><use href="#O" x="11.47"/><use href="#L" x="40.15"/><use href="#M" x="40.2"/><use href="#L" x="51.62"/><use href="#M" x="51.62"/><use href="#N" x="51.62"/><path d="M566.89 95c0 .14-.64.25-1.44.25S564 95.13 564 95s.64-.25 1.43-.25 1.46.1 1.46.25z"/><use href="#O" x="51.62"/><use href="#L" x="80.3"/><use href="#O" x="63.09"/><path d="M589.83 95c0 .14-.64.25-1.43.25s-1.4-.12-1.4-.25.64-.25 1.44-.25 1.39.1 1.39.25zm5.37.36c-.06 0-.12-.14-.17-.37l.17.17a6.07 6.07 0 0 1-1.07.08c-.79 0-1.43-.11-1.43-.25s.64-.25 1.43-.25a6.07 6.07 0 0 1 1.07.08h.19v.13c-.07.27-.13.41-.19.41z"/><use href="#P"/><use href="#Q"/><use href="#R"/><use href="#Q" y="11.47"/><use href="#R" y="11.44"/><use href="#S"/><use href="#T"/><use href="#P" y="40.15"/><use href="#T" y="11.49"/><use href="#P" y="51.62"/><use href="#Q" y="51.62"/><use href="#R" y="51.62"/><use href="#S" y="40.15"/><use href="#R" y="63.09"/><use href="#S" y="51.62"/><use href="#T" y="51.62"/><use href="#P" y="91.77"/><use href="#U"/><use href="#U" x="-102.17" y="1.04"/><use href="#U" y="-101.86"/><use href="#U" x="-102.17" y="-101.12"/><path d="M184.65 154.14a4.8 4.8 0 0 1 2.15-.25h.72l-.23.24c0-.84.12-1.43.23-1.43s.2.59.24 1.43v.23h-.25-.72a5 5 0 0 1-2.14-.22z"/><use href="#V"/><use href="#W"/><use href="#X"/><use href="#Y"/><use href="#X" x="-11.45"/><use href="#Y" x="-11.47"/><use href="#Z"/><use href="#V" x="-40.15"/><use href="#Z" x="-11.5"/><use href="#V" x="-51.62"/><use href="#W" x="-51.62"/><use href="#X" x="-51.62"/><use href="#Y" x="-51.62"/><use href="#X" x="-63.09"/><use href="#Y" x="-63.09"/><use href="#Z" x="-51.62"/><use href="#V" x="-91.77"/><use href="#a"/><use href="#b"/><use href="#a" y="-11.47"/><use href="#b" y="-11.45"/><use href="#c"/><use href="#d"/><use href="#e"/><use href="#d" y="-11.51"/><use href="#e" y="-11.47"/><use href="#a" y="-51.62"/><use href="#b" y="-51.62"/><path d="M85.36 87.1c.14 0 .25.64.25 1.43S85.5 90 85.36 90s-.25-.65-.25-1.44.11-1.46.25-1.46z"/><use href="#b" y="-63.09"/><use href="#c" y="-51.62"/><use href="#d" y="-51.62"/><path d="M85.36 64.16c.14 0 .25.64.25 1.43S85.5 67 85.36 67s-.25-.64-.25-1.43.11-1.41.25-1.41z"/><use href="#a" y="-91.77"/><use href="#e" y="-63.09"/><use href="#f"/><use href="#g"/><path d="M101.85 52c0 .14-.64.25-1.43.25S99 52.11 99 52s.64-.25 1.43-.25 1.42.09 1.42.25z"/><ellipse cx="106.16" cy="51.97" rx="1.43" ry=".25"/><use href="#h"/><use href="#i"/><use href="#j"/><use href="#f" x="40.15"/><use href="#j" x="11.47"/><use href="#f" x="51.62"/><use href="#g" x="51.62"/><use href="#h" x="40.15"/><use href="#i" x="40.15"/><use href="#h" x="51.62"/><use href="#i" x="51.62"/><use href="#j" x="51.62"/><use href="#f" x="91.77"/><path d="M187.52 52.34c-.06 0-.12-.14-.16-.37l.16.17a6.07 6.07 0 0 1-1.07.08c-.79 0-1.43-.11-1.43-.25s.64-.25 1.43-.25a5.93 5.93 0 0 1 1.07.09h.19v.12c-.07.27-.13.41-.19.41z"/><use href="#R" x="-407.68" y="-54.49"/><use href="#S" x="-407.68" y="-65.96"/><use href="#T" x="-407.68" y="-65.96"/><use href="#P" x="-407.68" y="-25.81"/><use href="#Q" x="-407.68" y="-25.83"/><use href="#R" x="-407.68" y="-25.81"/><use href="#Q" x="-407.68" y="-14.34"/><use href="#R" x="-407.68" y="-14.34"/><use href="#S" x="-407.68" y="-25.77"/><use href="#T" x="-407.68" y="-25.81"/><use href="#S" x="-407.68" y="-14.34"/><use href="#T" x="-407.68" y="-14.34"/><use href="#P" x="-407.68" y="25.81"/><use href="#Q" x="-407.68" y="25.81"/><use href="#R" x="-407.68" y="25.81"/><use href="#Q" x="-407.68" y="37.28"/><use href="#R" x="-407.68" y="37.28"/><use href="#U" x="-407.68" y="-43.01"/><use href="#U" x="-509.84" y="-41.98"/><use href="#U" x="-407.68" y="-144.88"/><use href="#U" x="-509.84" y="-144.14"/><path d="M710.25 278.3a3.69 3.69 0 0 1 1.66-.19h.57l-.19.18c0-.65.1-1.11.19-1.11s.15.46.18 1.11v.18h-.76a3.69 3.69 0 0 1-1.65-.17z"/><use href="#k"/><use href="#k" x="-4.46"/><use href="#k" x="-8.92"/><use href="#k" x="-13.38"/><use href="#k" x="-17.79"/><use href="#k" x="-22.3"/><use href="#k" x="-26.79"/><use href="#k" x="-31.22"/><use href="#k" x="-35.68"/><use href="#k" x="-40.14"/><use href="#k" x="-44.6"/><use href="#k" x="-49.06"/><use href="#k" x="-53.52"/><use href="#k" x="-57.98"/><use href="#k" x="-62.44"/><use href="#k" x="-66.9"/><use href="#k" x="-71.36"/><use href="#l"/><path d="M633 270.77c.1 0 .19.5.19 1.12s-.05 1.11-.19 1.11-.2-.5-.2-1.11.13-1.12.2-1.12z"/><use href="#l" y="-8.92"/><use href="#l" y="-13.38"/><use href="#l" y="-17.84"/><use href="#l" y="-22.3"/><use href="#l" y="-26.76"/><use href="#l" y="-31.23"/><use href="#l" y="-35.68"/><use href="#l" y="-40.14"/><use href="#l" y="-44.6"/><use href="#l" y="-49.06"/><use href="#m"/><use href="#m" y="-4.46"/><path d="M633 212.79c.1 0 .19.5.19 1.12s-.05 1.09-.19 1.09-.2-.49-.2-1.11.13-1.1.2-1.1z"/><use href="#m" y="-13.38"/><use href="#m" y="-17.84"/><use href="#m" y="-22.3"/><use href="#n"/><use href="#n" x="4.46"/><use href="#n" x="8.92"/><use href="#n" x="13.38"/><use href="#n" x="17.84"/><path d="M659.24 198.86c0 .11-.5.19-1.11.19s-1.13-.05-1.13-.19.5-.19 1.12-.19 1.12.08 1.12.19z"/><use href="#n" x="26.76"/><use href="#n" x="31.22"/><use href="#n" x="35.68"/><use href="#n" x="40.14"/><use href="#n" x="44.6"/><use href="#n" x="49.06"/><use href="#n" x="53.52"/><use href="#n" x="57.98"/><use href="#n" x="62.44"/><use href="#n" x="66.9"/><use href="#n" x="71.36"/><path d="M712.48 199.15c-.05 0-.1-.11-.13-.29l.13.13a4.63 4.63 0 0 1-.83.06c-.62 0-1.12-.08-1.12-.19s.5-.19 1.12-.19a4.63 4.63 0 0 1 .83.06h.14v.1c-.05.17-.09.32-.14.32z"/><ellipse cx="712.48" cy="202.49" rx=".19" ry="1.12"/><ellipse cx="712.48" cy="206.95" rx=".19" ry="1.12"/><ellipse cx="712.48" cy="211.41" rx=".19" ry="1.12"/><ellipse cx="712.48" cy="215.87" rx=".19" ry="1.11"/><use href="#o"/><use href="#o" y="4.46"/><use href="#o" y="8.92"/><path d="M712.48 234.82c-.11 0-.2-.49-.2-1.11s.09-1.11.2-1.11.19.49.19 1.11-.09 1.11-.19 1.11z"/><ellipse cx="712.48" cy="238.17" rx=".19" ry="1.12"/><ellipse cx="712.48" cy="242.63" rx=".19" ry="1.12"/><ellipse cx="712.48" cy="247.09" rx=".19" ry="1.11"/><ellipse cx="712.48" cy="251.55" rx=".19" ry="1.11"/><ellipse cx="712.48" cy="256.01" rx=".19" ry="1.11"/><use href="#p"/><use href="#p" y="4.42"/><use href="#q"/><use href="#q" y="4.5"/><use href="#r"/><use href="#r" x="-79.44" y="0.81"/><use href="#r" y="-79.2"/><use href="#r" x="-79.44" y="-78.63"/></g><g class="B"><path d="M715.42 425.05c0 .15-153.33.26-342.42.26s-342.45-.11-342.45-.26 153.29-.26 342.45-.26l342.42.26z"/><rect x="579.76" y="258.75" width="115.7" height="166.03" rx="11.55"/></g><path d="M583.41 270.11h108.22v138.66H583.41z" class="G"/><g class="E"><path d="M642.05 416.44a4.44 4.44 0 1 1-4.44-4.44 4.44 4.44 0 0 1 4.44 4.44z"/><rect x="620.19" y="263.53" width="34.85" height="1.83" rx=".91"/><use href="#s"/></g><g class="D"><use href="#t"/><path d="M680.05 340l-1.43-1.4-1.32 1.36v-4.05h2.76zm-1.43-1.57h0l1.25 1.23v-3.69h-2.5v3.63z"/><use href="#u"/><use href="#v"/></g><g class="C"><path d="M593.42 274.54c-3.25.63-6.62-.05-9.89.45h-.12v22.66c10.16 1 20.22 3.56 30.32 5.33 13.49 2.36 28 3.19 40.34-2.7 10-4.74 17.49-13.35 26.71-19.41a56.49 56.49 0 0 1 10.86-5.56v-5.22h-92.41c-.8 2.26-3.33 3.97-5.81 4.45zm29.63 3.85a7 7 0 1 1-7 7 7 7 0 0 1 7-7z"/><use href="#w"/></g><g class="F"><use href="#w"/></g><g class="B"><use href="#x"/><use href="#x" x="3.8"/><path d="M641.61,308.09a.6.6,0,1,0,0,1.2.6.6,0,1,0,0-1.2Z"/></g><circle cx="623.05" cy="285.38" r="6.99" class="C"/><g class="F"><circle cx="623.05" cy="285.38" r="6.99"/></g><use href="#y" class="C"/><path d="M679.59 322.38c0 .15-18.84.26-42.06.26s-42.07-.11-42.07-.26 18.83-.26 42.07-.26l42.06.26zm-20.46 2.9c0 .15-10.09.26-22.53.26s-22.54-.11-22.54-.26 10.09-.26 22.54-.26l22.53.26z" class="B"/><use href="#s" x="-49.33" class="C"/><g class="D"><use href="#t" x="-49.35"/><path d="M630.72 340l-1.43-1.4-1.29 1.33-.05-4.05h2.76zm-1.43-1.57h.05l1.25 1.23v-3.69h-2.5v3.63z"/><use href="#u" x="-49.33"/><use href="#v" x="-49.33"/></g><g class="B"><use href="#z"/><use href="#z" y="2.59"/><path d="M612.32 370.17c0 .14-5.06.26-11.3.26s-11.29-.12-11.29-.26 5.06-.26 11.29-.26 11.3.09 11.3.26z"/></g><use href="#s" x="-49.33" y="42.25" class="C"/><g class="D"><use href="#AA"/><path d="M630.72 382.21l-1.43-1.39-1.29 1.35-.05-4.05h2.76zm-1.43-1.57h.05l1.25 1.23v-3.69h-2.5v3.62zm-9.49-.81c0 .14-4.76.26-10.63.26s-10.63-.12-10.63-.26 4.76-.26 10.63-.26 10.63.12 10.63.26zm-13.06 2.38a32.46 32.46 0 0 1-8.2 0 32.46 32.46 0 0 1 8.2 0z"/></g><path d="M633.07 407.25c0 .15-9.7.26-21.67.26s-21.67-.11-21.67-.26 9.7-.26 21.67-.26l21.67.26z" class="B"/><use href="#s" x="1.16" y="42.25" class="E"/><g class="D"><use href="#AA" x="50.51"/><path d="M681.22 382.21l-1.43-1.39-1.33 1.35v-4.05h2.75zm-1.43-1.57h0l1.26 1.23v-3.69h-2.51v3.62zm-9.49-.81c0 .14-4.76.26-10.63.26S649 380 649 379.83s4.75-.26 10.63-.26 10.67.12 10.67.26zm-13.07 2.38a32.38 32.38 0 0 1-8.19 0 32.38 32.38 0 0 1 8.19 0z"/></g><g class="B"><path d="M683.57 407.25c0 .15-9.71.26-21.67.26s-21.68-.11-21.68-.26 9.71-.26 21.68-.26l21.67.26zM683 365c0 .14-9.7.26-21.67.26s-21.67-.12-21.67-.26 9.7-.26 21.67-.26L683 365z"/><use href="#z" x="49.93" y="2.59"/><path d="M662.24 370.17c0 .14-5.06.26-11.29.26s-11.3-.12-11.3-.26 5.06-.26 11.3-.26 11.29.09 11.29.26z"/></g><g class="F G"><use href="#y"/></g><path d="M559.47 144.8H242.29a9.9 9.9 0 0 0-9.9 9.9v224a9.9 9.9 0 0 0 9.9 9.9H364s7.75 23.95-16.26 36.34h113.85s-27.11-9.29-20.14-36.34h118a9.9 9.9 0 0 0 9.9-9.9v-224a9.9 9.9 0 0 0-9.88-9.9z" class="B"/><path d="M405.11 365.07c4.32 6.17-2.43 12.92-8.6 8.61a2.22 2.22 0 0 1-.53-.53c-4.31-6.17 2.44-12.91 8.6-8.61a2.05 2.05 0 0 1 .53.53z" class="E"/><rect x="239.55" y="158.23" width="322" height="191" rx="3.27" class="D"/><path d="M558.28 349.73H242.82a3.77 3.77 0 0 1-3.77-3.77V161.5a3.77 3.77 0 0 1 3.77-3.77h315.46a3.77 3.77 0 0 1 3.77 3.77V346a3.77 3.77 0 0 1-3.77 3.73zm-315.46-191a2.78 2.78 0 0 0-2.77 2.77V346a2.77 2.77 0 0 0 2.77 2.77h315.46a2.77 2.77 0 0 0 2.77-2.77V161.5a2.78 2.78 0 0 0-2.77-2.77z" class="G"/><path d="M266 165.61a2.58 2.58 0 1 1-2.58-2.57 2.58 2.58 0 0 1 2.58 2.57zm-15.63 0a2.57 2.57 0 1 1-2.57-2.61 2.57 2.57 0 0 1 2.57 2.61zm7.48 0a2.57 2.57 0 1 1-2.57-2.57 2.57 2.57 0 0 1 2.57 2.57z" class="E"/><path d="M461.57 263.08c0 .14-26.73.26-59.7.26s-59.7-.12-59.7-.26 26.72-.26 59.7-.26l59.7.26zm-29.04 4.11c0 .15-14.32.26-32 .26s-32-.11-32-.26 14.32-.26 32-.26l32 .26z" class="B"/><use href="#AB" class="C"/><path d="M282.39 294.74a3.06 3.06 0 1 1-3.06-3.05 3.05 3.05 0 0 1 3.06 3.05zm61.02 2.57l-2.51-2.46-2.33 2.39-.08-7.12 4.84-.05zm-2.51-2.76l.08.07 2.21 2.16-.07-6.49h-4.41l.07 6.37zm-16.69-1.43c0 .15-8.37.26-18.69.26s-18.69-.11-18.69-.26 8.37-.26 18.69-.26l18.69.26zm-22.97 4.19a50.87 50.87 0 0 1-7.21.26 50.66 50.66 0 0 1-7.2-.26 50.66 50.66 0 0 1 7.2-.26 50.87 50.87 0 0 1 7.21.26z" class="D"/><use href="#AB" x="92.43" class="E"/><path d="M439 340.37c0 .15-16.48.26-36.82.26s-36.82-.11-36.82-.26 16.48-.26 36.82-.26l36.82.26z" class="B"/><g class="D"><circle cx="371.76" cy="294.74" r="3.05"/><path d="M435.84 297.31l-2.51-2.46-2.33 2.39-.08-7.12 4.84-.05zm-2.51-2.76l.07.07 2.21 2.16-.07-6.49h-4.4l.07 6.37z"/><use href="#AC"/><use href="#AD"/></g><use href="#AB" x="184.86" class="C"/><path d="M531.4 340.37c0 .15-16.49.26-36.82.26s-36.83-.11-36.83-.26 16.49-.26 36.83-.26l36.82.26z" class="B"/><g class="D"><path d="M467.24 294.74a3.05 3.05 0 1 1-3.05-3.05 3 3 0 0 1 3.05 3.05zm61.03 2.57l-2.51-2.46-2.34 2.39-.07-7.12 4.84-.05zm-2.52-2.76l.08.07 2.21 2.16-.07-6.49h-4.4l.07 6.37z"/><use href="#AC" x="92.43"/><use href="#AD" x="92.43"/></g><path d="M559.05 310.41a10.57 10.57 0 1 1-10.57-10.57 10.57 10.57 0 0 1 10.57 10.57z" class="H"/><path d="M546.88 314.91a9.92 9.92 0 0 1 1.48-1.37l3.76-3.12v.28l-.07-.06-3.7-3.29a10.55 10.55 0 0 1-1.46-1.44 11.79 11.79 0 0 1 1.63 1.24l3.78 3.2.07.07.17.15-.17.14-3.83 3a11.05 11.05 0 0 1-1.66 1.2z" class="B"/><path d="M243.14 310.41A10.57 10.57 0 1 1 253.71 321a10.57 10.57 0 0 1-10.57-10.59z" class="H"/><path d="M255.31 305.91a9.92 9.92 0 0 1-1.48 1.37l-3.76 3.12v-.29l.07.07 3.7 3.28a10.21 10.21 0 0 1 1.46 1.45 11.79 11.79 0 0 1-1.63-1.24l-3.78-3.21-.07-.06-.17-.15.17-.14 3.83-3a11.37 11.37 0 0 1 1.66-1.2z" class="B"/><g class="C"><path d="M259.23 169l-.36 12.48.36-12.48 96.19 3c.7 5.1-4.6 9.2-9.69 10s-10.31-.38-15.43.26c-10.22 1.26-18.09 9.44-27.57 13.44-15.57 6.58-35.28.41-43.86-14.16L257 246.38l.1-3.25c11.05-18.28 34.63-26.59 56-26.62s42.1 6.46 63 10.75 43.45 6.25 63-2.38c15.73-6.94 27.87-20 42.51-29 29.71-18.35 69.94-18 99.34.82l-1.71 59L257 246.38l322.61 9.51 2.24-77.38zm131.89 42.11a10.9 10.9 0 1 1 11.21-10.58 10.89 10.89 0 0 1-11.21 10.58z"/><use href="#AE"/></g><g class="F"><use href="#AE"/></g><path d="M409.75 239.14a1.27 1.27 0 1 0 1.23 1.3 1.27 1.27 0 0 0-1.23-1.3zm8.03.23a1.27 1.27 0 1 0 1.23 1.3 1.26 1.26 0 0 0-1.23-1.3zm8.04.23a1.27 1.27 0 1 0 1.23 1.31 1.26 1.26 0 0 0-1.23-1.31z" class="B"/><use href="#AF" class="C"/><g class="F G"><use href="#AF"/></g><use href="#AG" class="C"/><g class="F"><use href="#AG"/></g><path d="M544.35 216.15a3.55 3.55 0 1 0 5 .14 3.55 3.55 0 0 0-5-.14z" class="C"/><path d="M532.38,256.06c2.67-4.48,3.44-10.45,4.13-15.61.32-2.43.89-5.9-.82-7.42s-2-4.15-4.09-5.41a6.47,6.47,0,0,0-7,.06" class="B"/><path d="M525 271.91h0a7.19 7.19 0 0 1-7.74-6.89l-.28-7.88s-5.93-.55-6.36-6.43-.24-19.43-.24-19.43h0a20.47 20.47 0 0 1 20.69 1.33l-.37 20.67v11.12c-.06 3.73-2 7.23-5.7 7.51z" fill="#ffbe9d"/><path d="M516.45,243.54a3,3,0,0,1,4-.87,3.39,3.39,0,0,1,1.14,4.26,4.45,4.45,0,0,1-2.88,2.18,2.28,2.28,0,0,0-1.77,2.43c.17,1.48,2.63,2,3.73,3.25,1.72,1.9,5.5,2.7,8.05,3s2.2.32,3.65-1.73a7.91,7.91,0,0,0,1.43-4.77l.27-13a18.63,18.63,0,0,0-.3-4.66,6.26,6.26,0,0,0-2.46-3.86c-1.42-.94-3.23-1-4.86-1.55-2-.65-3.76-2-5.67-3s-4.23-1.55-6.14-.59c-1.37.69-2.29,2.05-3.63,2.81-1.9,1.08-4.48.84-5.4,3.63a4.71,4.71,0,0,0,0,3c1.29,3.8,6,5.33,9.38,3.69.07.64-.57,2.07.11,4.1.22.65.3,1.64,1.31,1.66" class="B"/><path d="M517.5 247.21c.06 0 .27.29.74.25a1.35 1.35 0 0 0 1-1.31 1.44 1.44 0 0 0-1-1.43c-.47-.19-.82-.11-.84-.19s.32-.29.94-.17a1.73 1.73 0 0 1 .94.54 1.68 1.68 0 0 1 .45 1.27 1.66 1.66 0 0 1-1.57 1.66.93.93 0 0 1-.67-.35c-.02-.15-.02-.26.01-.27z" fill="#eb996e"/><path d="M534.44,239.7a7.25,7.25,0,0,1,5-3.84,6.18,6.18,0,0,1,5.87,2.14,5.35,5.35,0,0,1,.26,6.13c-1.42,2.07-4.14,2.71-6.62,3a10.17,10.17,0,0,0,7.25,3.48,6.61,6.61,0,0,1-6.72.32l4,3.45a9,9,0,0,1-7.4-16.09" class="B"/><path d="M538.15 246.89a2.31 2.31 0 0 1-2.1 0 5.11 5.11 0 0 1-2.94-4 5.41 5.41 0 0 1 1.62-4.75 3.35 3.35 0 0 1 1.82-1.06 14.93 14.93 0 0 0-1.55 1.22 5.39 5.39 0 0 0-1.38 4.42 5 5 0 0 0 2.58 3.79 4.48 4.48 0 0 0 1.95.38z" class="C"/><g class="E"><path d="M546.66 241a5.61 5.61 0 0 0-1.66-1.1 9 9 0 0 0-4.78-.16 12.38 12.38 0 0 0-4.46 1.9l-1.65 1.21a4.52 4.52 0 0 1 1.43-1.51 11 11 0 0 1 4.58-2.11 8.41 8.41 0 0 1 5 .33c1.25.57 1.59 1.44 1.54 1.44z"/><path d="M544.88 244.93a2.8 2.8 0 0 1-1.43.4 6.76 6.76 0 0 1-6.25-2.92c-.51-.77-.66-1.33-.6-1.35s.33.45.89 1.13a7.9 7.9 0 0 0 2.66 2.06 7.72 7.72 0 0 0 3.28.71 9.05 9.05 0 0 1 1.45-.03zm-8.95 7.88a3.48 3.48 0 0 1-1.53-1 7.66 7.66 0 0 1-2.1-8.15 3.55 3.55 0 0 1 .87-1.6c.07 0-.25.65-.52 1.7a8.24 8.24 0 0 0 2 7.79c.75.81 1.35 1.19 1.28 1.26zm-12.32-23.31a3.07 3.07 0 0 1 2.28-1.22 5.17 5.17 0 0 1 2.83.42 6.5 6.5 0 0 1 2.61 2.33 13.07 13.07 0 0 1 1.82 6 12.78 12.78 0 0 1 .12 2.57 12.21 12.21 0 0 1-.49-2.53 14.25 14.25 0 0 0-1.88-5.72 6.24 6.24 0 0 0-2.39-2.18 4.93 4.93 0 0 0-2.58-.49 5.4 5.4 0 0 0-2.32.82zm-16.53 6.01a1.15 1.15 0 0 1-.82-.27 2.05 2.05 0 0 1-.89-2.14 2.25 2.25 0 0 1 1-1.4 3.24 3.24 0 0 1 1.88-.37 2.55 2.55 0 0 0 1.75-.45 12.77 12.77 0 0 0 1.43-1.54 7.36 7.36 0 0 1 3.68-2.12 7.83 7.83 0 0 1 3.46-.07 6.63 6.63 0 0 1 2.17.85c.46.3.68.51.66.53a11 11 0 0 0-2.9-1 7.57 7.57 0 0 0-3.27.17 7.07 7.07 0 0 0-3.42 2 10.79 10.79 0 0 1-1.51 1.6 2.36 2.36 0 0 1-1 .46 5.3 5.3 0 0 1-1 .06 2.75 2.75 0 0 0-1.64.26 1.82 1.82 0 0 0-.19 3 7.47 7.47 0 0 0 .61.43zm15.71 16.34a7.93 7.93 0 0 1 .77-.48 5 5 0 0 0 1.58-1.79 4.48 4.48 0 0 0 .26-3.42 4.59 4.59 0 0 0-1.06-1.74 8.47 8.47 0 0 0-1.83-1.34l-2-1.2a6.94 6.94 0 0 1-1.64-1.55 7.13 7.13 0 0 1-1.37-3.49 6.18 6.18 0 0 1 .21-2.52 2.08 2.08 0 0 1 .37-.85 9 9 0 0 0-.21 3.32 6.94 6.94 0 0 0 1.38 3.25 10.84 10.84 0 0 0 3.54 2.59 8.87 8.87 0 0 1 1.93 1.43 4.64 4.64 0 0 1 1.15 2 4.74 4.74 0 0 1-.39 3.74 4.62 4.62 0 0 1-1.8 1.78 2.06 2.06 0 0 1-.89.27z"/><path d="M533 243.23s-.26.1-.75.19a11.79 11.79 0 0 1-2.12.08 13.08 13.08 0 0 1-6.57-2.25 10.35 10.35 0 0 1-4.31-5.44 4.51 4.51 0 0 1-.07-2.14 1.66 1.66 0 0 1 .31-.72 5.47 5.47 0 0 0 .12 2.76 10.73 10.73 0 0 0 4.24 5.11 13.91 13.91 0 0 0 6.31 2.31c1.71.2 2.84 0 2.84.1z"/></g><path d="M512.62 442.56l-2.93 6.19 13.11-.16.58-6.55-10.76.52z" class="C"/><g class="B"><path d="M523.05 447.35a8.62 8.62 0 0 1-1.91.15h-4.6l-4.6-.15a9.45 9.45 0 0 1-1.91-.15 7.93 7.93 0 0 1 1.91-.15h4.61l4.59.14a9.45 9.45 0 0 1 1.91.16z"/><path d="M517.43 441.79a9.12 9.12 0 0 1 .06 2.76 9.71 9.71 0 0 1-.36 2.74 9.15 9.15 0 0 1-.06-2.76 9.71 9.71 0 0 1 .36-2.74z"/></g><g opacity=".6" class="G"><path d="M509.71 448.89l13.1-.44.08-1.24-12.52.1-.66 1.43"/></g><path d="M569.58 445.1L549.2 327.87h0c0-.17-.09-.34-.13-.51h0 0c-3.48-13.78-6.22-17.16-6.22-17.16l-33.85.9c-2.65 4.77-3 16.23-3 16.23-.36 1.41 6.6 115.24 6.6 115.24l10.45-.29 5.67-107.7L559 445.34zM456 252.13c-.08-2.14.82-6.23 1.33-6.55s1.1.29.86.9a7.83 7.83 0 0 0-.32 2.13 4.93 4.93 0 0 0 .2 1.71l.41 1.28.23.69 22.39 20 14-.86 2.78 14.28-22.76-2L451.71 258h0l-5.28-4c-2.3-1.5-1.64-1.91-1.36-2.15zm125.72-11.92l-13.94 28.47-14 5.95-5.22-12.57 10.25-2.71 15.95-25.46v-.73-1.32a5.26 5.26 0 0 0-.29-1.72 7.68 7.68 0 0 0-.89-2c-.41-.52 0-1.27.58-1.11s1.72 1.57 2.23 3.64 1.89-.95 2.42-2 2.29-4.38 2.75-4.47c.67-.15 1 .56.41 1.64s-2 4.42-1.39 4.69l1-.06.78 3.86a9.22 9.22 0 0 1-.64 5.9z" fill="#ffbe9d"/><path d="M572.57 446.21l-.05-1.33-13.54.39.12 4.4h.84c3.72.09 18.94.22 21.4-.54 2.75-.83-8.77-2.92-8.77-2.92z" class="C"/><g opacity=".6" class="G"><path d="M564,449.44a4.31,4.31,0,0,0-1.8-2.62A4.81,4.81,0,0,0,559,446l.11,3.5Z"/></g><g opacity=".6" class="G"><path d="M578.2 447.42s4 1 3.56 1.59-15.86 1-22.66.66v-.28l17.95-.33s.37-1.59 1.15-1.64z"/></g><g class="B"><path d="M558.9 449.39h.24.66 2.45l8.09-.08 8.08-.33 2.45-.16.66-.06h.23-.23-.67l-2.44.11-8.08.29-8.09.12h-2.45-.9z"/><path d="M577.06 449.26a4.61 4.61 0 0 1 .43-1.1 5.39 5.39 0 0 1 .8-.9 1.87 1.87 0 0 0-.95.82 1.62 1.62 0 0 0-.28 1.18zm-4.06-1.77s.22-.2.41-.5.31-.54.27-.57-.22.2-.41.5-.27.54-.27.57zm-1.08-.49s.24-.11.47-.31.38-.39.35-.42-.24.11-.46.31-.39.42-.36.42zm-.72-1.19c0 .05.31.08.7.07a1.72 1.72 0 0 0 .7-.09 3.54 3.54 0 0 0-1.4 0zm-.27-.81a1.61 1.61 0 0 0 .8.19 1.45 1.45 0 0 0 .8-.12 3.9 3.9 0 0 0-.8 0 3.69 3.69 0 0 0-.8-.07z"/><path d="M573.45 446.38a2.46 2.46 0 0 0 .87 0 4.66 4.66 0 0 0 .91-.21 2.6 2.6 0 0 0 .53-.22.43.43 0 0 0 .2-.25.31.31 0 0 0-.14-.32 1.66 1.66 0 0 0-2 .48 1.4 1.4 0 0 0-.26.55v.22a2.26 2.26 0 0 1 .37-.7 1.57 1.57 0 0 1 .73-.47 1.46 1.46 0 0 1 1 0c.14.09.09.24-.06.33a2.58 2.58 0 0 1-.48.21 6.57 6.57 0 0 1-.88.24c-.46.11-.79.12-.79.14z"/><path d="M573.68 446.42a.83.83 0 0 0 .08-.57 1.36 1.36 0 0 0-.25-.58.92.92 0 0 0-.74-.39.31.31 0 0 0-.25.38.85.85 0 0 0 .16.36 2.45 2.45 0 0 0 .42.47 1.17 1.17 0 0 0 .51.31s-.18-.14-.43-.38a3.34 3.34 0 0 1-.37-.48c-.13-.16-.22-.47 0-.51s.44.17.58.33a1.3 1.3 0 0 1 .26.51 3.64 3.64 0 0 1 .03.55zm-14.61-.42h1a4.66 4.66 0 0 1 2.2.78 4.17 4.17 0 0 1 1.41 1.74c.22.53.25.89.28.89a.69.69 0 0 0 0-.25 3 3 0 0 0-.16-.67 4 4 0 0 0-1.43-1.84 4.36 4.36 0 0 0-2.28-.76 3.74 3.74 0 0 0-.74 0zm6.57 2.18a11.85 11.85 0 0 0 3.94-.07c0-.05-.89 0-2 0l-1.94.07zm-2.64.06l.17.36c.09.19.15.35.2.34s.06-.19 0-.41-.37-.32-.37-.29z"/><path d="M562 447.12a.77.77 0 0 0 .2.28c.14.12.29.21.32.18s-.06-.16-.2-.29-.32-.2-.32-.17zm-1.47-.49a1.06 1.06 0 0 0 .39.09c.2.09.35.16.38.13s-.08-.2-.33-.27-.45.01-.44.05zm-1.02-.22a.36.36 0 0 0 .18.14c.12.04.21 0 .23 0s-.06-.1-.18-.14-.21-.04-.23 0zm-19.67-161.09l.41-1.5c1-.65 13.27-8.28 13.73-8.35s-5.45-14-5.45-14l-13.92 2a22.3 22.3 0 0 0-3.93-.48l-13.2-.11s-5.91.7-7.79 2.07l-14.8 5.59 3.35 17.22 12.9-2.27c-.63 1.76 0 4.82.52 8.3.67 4.29 1 10.28-1.15 14 0 0-2.73 9.41-2.73 16.89l37.85-4.42s-.11-8.13-7.6-17.78l.35-10.17z"/></g><path d="M512.35 281a21.65 21.65 0 0 1-.57-3.27l.29.12-3.57 2.65-.36.27v-.45l-.29-3.56.41.2-.17.11-3.94 2.62-.27.18-.09-.3a13.09 13.09 0 0 1-.62-3.37l.27.16a5.48 5.48 0 0 0-1.93 1.45 7.91 7.91 0 0 1-.58.71 2.24 2.24 0 0 1 .42-.83 5.16 5.16 0 0 1 1.93-1.67l.24-.12v.28a13.85 13.85 0 0 0 .7 3.24l-.36-.12 3.92-2.66.17-.11.37-.25v.44l.26 3.57-.39-.19 3.65-2.54.26-.19v.31a21.21 21.21 0 0 1 .25 3.32zm18.99-6.5a20.86 20.86 0 0 1-2.25-2.45l.31-.05-1.57 4.17-.15.41-.27-.35-2.17-2.84.44-.05-.07.18-1.9 4.34-.12.29-.25-.2a12.7 12.7 0 0 1-2.34-2.49h.31a5.37 5.37 0 0 0-.83 2.27l-.1.91a2 2 0 0 1-.11-.93 5.16 5.16 0 0 1 .72-2.44l.14-.23.17.21a13.61 13.61 0 0 0 2.34 2.35l-.36.1 1.85-4.36.08-.19.17-.41.27.36 2.15 2.85-.43.06 1.69-4.12.12-.29.19.24a21.75 21.75 0 0 1 1.97 2.66zm-16.19 10.63a20.48 20.48 0 0 1-1 3.18l-.2-.24 4.38-.77.44-.08-.17.41-1.33 3.31-.28-.35h.2l4.7-.58h.31v.31a13.12 13.12 0 0 1-1 3.29l-.17-.25a5.63 5.63 0 0 0 2.38-.44 7.73 7.73 0 0 1 .83-.38 2 2 0 0 1-.75.56 5.16 5.16 0 0 1-2.47.63h-.26l.1-.26a14.61 14.61 0 0 0 .83-3.22l.26.27-4.69.63h-.2l-.45.06.17-.41 1.37-3.3.26.33-4.4.65-.31.05.11-.29a23.46 23.46 0 0 1 1.34-3.11zm22.4-19.07a20.48 20.48 0 0 1-1 3.18l-.2-.24 4.38-.77.43-.08-.16.41-1.34 3.31-.27-.35h.2l4.7-.58h.31v.31a12.71 12.71 0 0 1-1 3.29l-.16-.26a5.45 5.45 0 0 0 2.37-.43 7.37 7.37 0 0 1 .83-.38s-.21.26-.74.56a5.09 5.09 0 0 1-2.47.62h-.27l.1-.26a13.58 13.58 0 0 0 .83-3.22l.27.27-4.7.63h-.2l-.44.06.17-.41 1.36-3.3.27.33-4.4.65h-.32l.12-.28a20.47 20.47 0 0 1 1.33-3.06zm-27.44.48a20.37 20.37 0 0 1 1.34 3l-.31-.05 2.83-3.44.28-.34.14.43 1.13 3.38-.44-.09.14-.15 3.2-3.49.21-.23.16.26a13.08 13.08 0 0 1 1.41 3.18l-.29-.08a5.62 5.62 0 0 0 1.52-1.88 5.65 5.65 0 0 1 .39-.82 2.28 2.28 0 0 1-.21.9 5.13 5.13 0 0 1-1.47 2.08l-.2.18-.09-.26a14.07 14.07 0 0 0-1.46-3h.38l-3.17 3.52-.13.15-.31.33-.13-.43-1.11-3.39.42.08-2.93 3.35-.2.24-.11-.29a21.58 21.58 0 0 1-.99-3.14zm20.09 16.74a20.11 20.11 0 0 1 2.64 2l-.29.1.82-4.37.08-.44.32.31 2.63 2.41-.43.13v-.19l1.11-4.61.08-.3.27.15a13.12 13.12 0 0 1 2.74 2.06l-.3.06a5.53 5.53 0 0 0 .43-2.37 6.67 6.67 0 0 1-.06-.91 2 2 0 0 1 .26.89 5.16 5.16 0 0 1-.29 2.53l-.09.25-.2-.18a14.19 14.19 0 0 0-2.72-1.91l.35-.16-1.08 4.62v.19l-.1.44-.33-.31-2.61-2.43.41-.14-1 4.35-.06.31-.23-.21a23.3 23.3 0 0 1-2.35-2.27zm1.96 8.4a21.39 21.39 0 0 1-2.85 1.71v-.31l3.76 2.37.37.23-.4.2-3.21 1.55v-.45l.16.12 3.87 2.73.26.18-.24.2A13.62 13.62 0 0 1 531 302v-.3a5.44 5.44 0 0 0 2.06 1.27 8.47 8.47 0 0 1 .87.28 2 2 0 0 1-.93-.09 5.25 5.25 0 0 1-2.25-1.19l-.2-.18.25-.13a13.5 13.5 0 0 0 2.77-1.82v.38l-3.9-2.69-.16-.12-.37-.26.4-.19 3.23-1.53v.43l-3.69-2.48-.26-.17.27-.14a21.72 21.72 0 0 1 3.07-1.39zm-20.5 14.52a20.82 20.82 0 0 1 3.14 1.1l-.25.19-.58-4.41-.06-.44.4.18 3.25 1.48-.36.26v-.2l-.37-4.72v-.31l.31.06a12.92 12.92 0 0 1 3.24 1.1l-.26.15a5.6 5.6 0 0 0-.34-2.39 9.15 9.15 0 0 1-.34-.85 2 2 0 0 1 .53.77 5.3 5.3 0 0 1 .52 2.5v.26l-.26-.11a14.17 14.17 0 0 0-3.17-1l.28-.25.42 4.72v.2.44l-.4-.18-3.24-1.51.35-.25.45 4.42v.32l-.28-.13a21.34 21.34 0 0 1-2.98-1.4z" class="D"/><path d="M510.51 265.17a2.35 2.35 0 0 1 1.05-.05 6.16 6.16 0 0 1 2.7 1 7.74 7.74 0 0 1 2.81 3.19 11.17 11.17 0 0 1 1.09 5.09 13.24 13.24 0 0 1-3.45 8.63 12.29 12.29 0 0 1-2.16 1.86 3.49 3.49 0 0 1-.93.48 21.24 21.24 0 0 0 2.82-2.58 13.53 13.53 0 0 0 3.2-8.4 11 11 0 0 0-1-4.87 7.55 7.55 0 0 0-2.58-3.09 7.38 7.38 0 0 0-3.55-1.26zm-2.12 46.42c-9.86 31.11 1.61 69.82-1.39 106.07-.28 3.33-1.56 7.27 1 9.42a6.2 6.2 0 0 0 5.5.89 42.45 42.45 0 0 0 5.36-2.14 21.57 21.57 0 0 1 14.29-.55c3.15 1 6.27 2.71 9.52 2.22 4.33-.66 7.13-4.93 11.11-6.74 3.73-1.7 8-1.07 12.13-1.17s8.78-1.46 10.34-5.25c0 0-28.28-105.61-38.19-111.91l-26.27 1.67z" class="E"/><path d="M537.7 330.92c0 .11-3.74 1.18-8.42 2.39l-8.52 2a87.28 87.28 0 0 1 8.42-2.4l8.52-1.99zm-334.63-89.07l-52.85-.25a11.49 11.49 0 0 1-11.46-11.53L139.32 98a11.5 11.5 0 0 1 11.57-11.43l52.84.25a11.48 11.48 0 0 1 11.46 11.52l-.56 132.12a11.5 11.5 0 0 1-11.56 11.39z" class="B"/><path d="M203.66 91.33h-10.25a2.54 2.54 0 0 0-2.5 2.58v1.85a2.54 2.54 0 0 1-2.49 2.59l-20-.1A2.53 2.53 0 0 1 166 95.6v-1.85a2.54 2.54 0 0 0-2.47-2.61h-3.61-9a8.05 8.05 0 0 0-8.1 8l-.55 129a8 8 0 0 0 8 8.07l52.74.24a8.05 8.05 0 0 0 8.1-8l.54-129a8 8 0 0 0-7.99-8.12z" class="G"/><path d="M203 144.14c0 .14-11.47.26-25.61.26s-25.62-.12-25.62-.26 11.47-.26 25.62-.26l25.61.26zm0 3.15c0 .15-11.47.26-25.61.26s-25.62-.11-25.62-.26 11.47-.26 25.62-.26l25.61.26zm-17.31 2.83c0 .14-4.62.26-10.31.26s-10.31-.12-10.31-.26a100.11 100.11 0 0 1 10.31-.26 100.27 100.27 0 0 1 10.31.26z" class="B"/><path d="M148.78 157.06h54.19v34.69h-54.19z" class="C"/><g class="D"><ellipse cx="154.47" cy="163.94" rx="2.17" ry="2.13"/><path d="M200 165.74l-1.75-1.74-1.65 1.66-.06-5h3.44zm-1.79-1.93l.06.05 1.57 1.51v-4.54h-3.13l.05 4.44zm-11.82-1c0 .15-5.95.26-13.3.26s-13.29-.11-13.29-.26 5.95-.26 13.29-.26 13.3.12 13.3.26zm-16.34 2.93a25.73 25.73 0 0 1-5.12.26 25.88 25.88 0 0 1-5.13-.26 24.56 24.56 0 0 1 5.13-.27 24.42 24.42 0 0 1 5.12.27z"/></g><g class="C"><path d="M163.49 91.14h-3.61-9a8.05 8.05 0 0 0-8.1 8l-.11 24.45 8.13 1.55c14 2.44 28.93 3.31 41.72-2.79 7.09-3.37 13-8.64 19.08-13.64v-9.26a8 8 0 0 0-8-8.07h-10.25a2.54 2.54 0 0 0-2.5 2.58v1.85a2.54 2.54 0 0 1-2.49 2.59l-20-.1a2.53 2.53 0 0 1-2.36-2.7v-1.85a2.54 2.54 0 0 0-2.51-2.61zm4.22 15.73a7.23 7.23 0 1 1-7.22-7.23 7.23 7.23 0 0 1 7.22 7.23z"/><use href="#AH"/></g><g class="B"><use href="#AI"/><use href="#AI" x="3.94"/><use href="#AI" x="7.88"/></g><use href="#AJ" class="C"/><g class="F"><use href="#AJ"/></g><path d="M148.78 236a8.42 8.42 0 0 0 1.52.15l51.67.24V209.2h-53.19zM199 212.82l.06 5.05-1.75-1.71-1.63 1.66-.05-5zM154.37 214a2.13 2.13 0 1 1-2.13 2.13 2.13 2.13 0 0 1 2.13-2.13zm42.97 1.94l.05.06 1.54 1.5-.05-4.53-3.07.03.05 4.45 1.48-1.51z" class="E"/><g class="D"><circle cx="154.37" cy="216.08" r="2.13"/><path d="M197.34 216.16l1.75 1.71-.06-5.05h-3.37l.05 5zm1.54-3.19l.05 4.54-1.54-1.51-.06-.06-1.47 1.51-.05-4.45z"/></g><g class="F"><use href="#AH"/></g><g class="B"><path d="M201.53 195.23c0 .15-11.81.26-26.37.26s-26.38-.11-26.38-.26 11.81-.26 26.38-.26l26.37.26z"/><use href="#AK"/><use href="#AK" y="3.04"/><path d="M176.27 203.58c0 .15-6.15.26-13.74.26s-13.75-.11-13.75-.26 6.16-.26 13.75-.26 13.74.12 13.74.26zM65.82 252.69H308.5a6.74 6.74 0 0 1 6.74 6.74v148.75a14.57 14.57 0 0 1-14.57 14.57h-228a14.57 14.57 0 0 1-14.57-14.57V260.44a7.75 7.75 0 0 1 7.75-7.75z"/><path d="M47.32,410.17H325.94a0,0,0,0,1,0,0v1.16a13.72,13.72,0,0,1-13.72,13.72H61a13.72,13.72,0,0,1-13.72-13.72v-1.16a0,0,0,0,1,0,0Z"/></g><path d="M64.97 259.44h242.64v143.61H64.97zm96.33 150.73l3.46 5.5h48.65l3.21-5.5H161.3z" class="E"/><path d="M73.07 269.01h223.4V403H73.07z" class="G"/><g class="B"><use href="#AL"/><use href="#AL" x="7.65"/><path d="M97.9 275.62a1.88 1.88 0 1 1-1.9-1.88 1.87 1.87 0 0 1 1.9 1.88z"/></g><path d="M58.07 410.29h257.17v.82H58.07z" class="E"/><path d="M238.38 345.6c0 .14-23.81.26-53.17.26s-53.21-.12-53.21-.26 23.8-.26 53.17-.26l53.21.26zm-25.86 3.66c0 .15-12.75.26-28.48.26s-28.49-.11-28.49-.26S168.3 349 184 349l28.52.26z" class="B"/><path d="M89.33 361.66h59.63v38.89H89.33z" class="C"/><g class="D"><path d="M98 369.38a2.39 2.39 0 1 1-2.41-2.38 2.39 2.39 0 0 1 2.41 2.38zm47.73 2.01l-2-1.93-1.82 1.87-.06-5.57h3.79zm-2-2.17l.06.06 1.73 1.69-.05-5.08h-3.45v5z"/><use href="#AM"/><path d="M112.73 371.39a31.25 31.25 0 0 1-5.64.26 31.15 31.15 0 0 1-5.64-.26 30.1 30.1 0 0 1 5.64-.26 30.19 30.19 0 0 1 5.64.26z"/></g><path d="M155.39 361.66h59.63v38.89h-59.63z" class="E"/><g class="D"><use href="#AN"/><path d="M211.79 371.39l-2-1.93-1.79 1.87-.06-5.57h3.79zm-2-2.17l.07.06 1.72 1.69-.05-5.08h-3.44v5z"/><use href="#AM" x="66.06"/><path d="M178.79 371.39a31.15 31.15 0 0 1-5.64.26 31.25 31.25 0 0 1-5.64-.26 30.19 30.19 0 0 1 5.64-.26 30.1 30.1 0 0 1 5.64.26z"/></g><path d="M221.33 361.66h59.63v38.89h-59.63z" class="C"/><g class="D"><use href="#AN" x="66"/><path d="M277.73 371.39l-2-1.93-1.83 1.87-.06-5.57h3.79zm-2-2.17l.06.06 1.73 1.69-.06-5.08h-3.44l.05 5zm-13.02-1.11c0 .14-6.55.26-14.62.26s-14.63-.12-14.63-.26 6.54-.26 14.63-.26 14.62.15 14.62.26zm-17.98 3.28a31.09 31.09 0 0 1-5.63.26 31.15 31.15 0 0 1-5.64-.26 30.1 30.1 0 0 1 5.64-.26 30 30 0 0 1 5.63.26z"/></g><g class="C"><path d="M125.87 287.41c-4.1.79-8.37-.07-12.5.57-8.25 1.26-14.43 8.07-22 11.54a28.61 28.61 0 0 1-18.28 1.67v21.68a64.69 64.69 0 0 1 27.15-6.73c17.31-.52 34.27 4.25 51.33 7.24s35.35 4 51-3.41c12.59-6 22.12-16.87 33.77-24.54 17.49-11.51 39.87-14.87 60.16-9.95v-3.67H133.22c-1.02 2.83-4.22 4.99-7.35 5.6zm37.46 4.86a8.84 8.84 0 1 1-8.84 8.84 8.84 8.84 0 0 1 8.84-8.84z"/><use href="#AO"/></g><g class="B"><path d="M178.42,328.48a.88.88,0,1,0,0,1.76.88.88,0,0,0,0-1.76Z"/><circle cx="184" cy="329.36" r=".88"/><circle cx="189.57" cy="329.36" r=".88"/></g><use href="#AP" class="C"/><g class="F G"><use href="#AP"/></g><circle cx="163.33" cy="301.11" r="8.84" transform="matrix(.707107 -.707107 .707107 .707107 -165.08 203.68)" class="C"/><g class="F"><circle cx="163.33" cy="301.11" r="8.84" transform="matrix(.707107 -.707107 .707107 .707107 -165.08 203.68)"/></g><circle cx="289.66" cy="312.46" r="2.88" class="C"/><g class="F"><use href="#AO"/></g><path d="M287.77 384.83a7.36 7.36 0 0 1 .82-.76l2.08-1.73v.16h0l-2.05-1.82a6.5 6.5 0 0 1-.81-.8 5.71 5.71 0 0 1 .91.69l2.09 1.77h0l.09.09-.09.07-2.12 1.68a6.26 6.26 0 0 1-.92.65zm-204.99-4.98a6.36 6.36 0 0 1-.82.76l-2.08 1.72v-.15h0l2 1.82a5.75 5.75 0 0 1 .81.8 6 6 0 0 1-.9-.69l-2.09-1.77h0l-.1-.08.1-.08 2.12-1.68a5.91 5.91 0 0 1 .96-.65z" class="B"/><defs ><path id="B" d="M586.6 197.15c0-.13.64-.25 1.43-.25s1.43.12 1.43.25-.64.25-1.43.25-1.43-.11-1.43-.25z"/><path id="C" d="M580.86 197.15c0-.13.64-.25 1.43-.25s1.44.12 1.44.25-.64.25-1.44.25-1.43-.11-1.43-.25z"/><path id="D" d="M563.65 197.15c0-.13.65-.25 1.44-.25s1.43.12 1.43.25-.64.25-1.43.25-1.44-.11-1.44-.25z"/><path id="E" d="M557.92 197.15c0-.13.64-.25 1.43-.25s1.44.12 1.44.25-.65.25-1.44.25-1.43-.11-1.43-.25z"/><path id="F" d="M552.18 197.15c0-.13.64-.25 1.44-.25s1.43.12 1.43.25-.64.25-1.43.25-1.44-.11-1.44-.25z"/><path id="G" d="M493 193.21c.13 0 .25.64.25 1.43s-.12 1.44-.25 1.44-.25-.65-.25-1.44.15-1.43.25-1.43z"/><path id="H" d="M493 187.47c.13 0 .25.64.25 1.44s-.12 1.43-.25 1.43-.25-.64-.25-1.43.15-1.44.25-1.44z"/><path id="I" d="M493 181.74c.13 0 .25.64.25 1.43s-.12 1.43-.25 1.43-.25-.64-.25-1.43.15-1.43.25-1.43z"/><path id="J" d="M493 176c.13 0 .25.64.25 1.43s-.12 1.44-.25 1.44-.25-.64-.25-1.44.15-1.43.25-1.43z"/><path id="K" d="M493 170.26c.13 0 .25.65.25 1.44s-.12 1.43-.25 1.43-.25-.64-.25-1.43.15-1.44.25-1.44z"/><path id="L" d="M498.06 95c0 .14-.64.25-1.43.25s-1.44-.11-1.44-.25.64-.25 1.44-.25 1.43.1 1.43.25z"/><path id="M" d="M503.8 95c0 .14-.65.25-1.44.25s-1.43-.11-1.43-.25.64-.25 1.43-.25 1.44.1 1.44.25z"/><path id="N" d="M509.53 95c0 .14-.64.25-1.43.25s-1.44-.11-1.44-.25.65-.25 1.44-.25 1.43.1 1.43.25z"/><path id="O" d="M521 95c0 .14-.64.25-1.43.25s-1.43-.11-1.43-.25.64-.25 1.43-.25 1.43.1 1.43.25z"/><path id="P" d="M595.2 101.09c-.14 0-.25-.64-.25-1.43s.11-1.44.25-1.44.25.65.25 1.44-.11 1.43-.25 1.43z"/><path id="Q" d="M595.2 106.83c-.14 0-.25-.64-.25-1.44s.11-1.43.25-1.43.25.64.25 1.43-.11 1.44-.25 1.44z"/><path id="R" d="M595.2 112.56c-.14 0-.25-.64-.25-1.43s.11-1.43.25-1.43.25.64.25 1.43-.11 1.43-.25 1.43z"/><path id="S" d="M595.2 129.77c-.14 0-.25-.64-.25-1.43s.11-1.44.25-1.44.25.64.25 1.44-.11 1.43-.25 1.43z"/><path id="T" d="M595.2 135.51c-.14 0-.25-.65-.25-1.44s.11-1.43.25-1.43.25.64.25 1.43-.11 1.44-.25 1.44z"/><path id="U" d="M591.42 192.33h7.57v7.57h-7.57z"/><path id="V" d="M178.92 154.14c0-.14.64-.25 1.43-.25s1.44.11 1.44.25-.65.25-1.44.25-1.43-.12-1.43-.25z"/><path id="W" d="M173.18 154.14c0-.14.64-.25 1.44-.25s1.43.11 1.43.25-.64.25-1.43.25-1.44-.12-1.44-.25z"/><path id="X" d="M167.45 154.14c0-.14.64-.25 1.43-.25s1.43.11 1.43.25-.64.25-1.43.25-1.43-.12-1.43-.25z"/><path id="Y" d="M161.71 154.14c0-.14.64-.25 1.43-.25s1.44.11 1.44.25-.64.25-1.44.25-1.43-.12-1.43-.25z"/><path id="Z" d="M144.5 154.14c0-.14.65-.25 1.44-.25s1.43.11 1.43.25-.64.25-1.43.25-1.44-.12-1.44-.25z"/><path id="a" d="M85.36 150.19c.14 0 .25.64.25 1.43s-.11 1.44-.25 1.44-.25-.64-.25-1.44.11-1.43.25-1.43z"/><path id="b" d="M85.36 144.45c.14 0 .25.65.25 1.44s-.11 1.43-.25 1.43-.25-.64-.25-1.43.11-1.44.25-1.44z"/><path id="c" d="M85.36 127.25c.14 0 .25.64.25 1.43s-.11 1.44-.25 1.44-.25-.65-.25-1.44.11-1.43.25-1.43z"/><path id="d" d="M85.36 121.51c.14 0 .25.64.25 1.44s-.11 1.43-.25 1.43-.25-.64-.25-1.43.11-1.44.25-1.44z"/><path id="e" d="M85.36 115.78c.14 0 .25.64.25 1.43s-.11 1.43-.25 1.43-.25-.64-.25-1.43.11-1.43.25-1.43z"/><path id="f" d="M90.38 52c0 .14-.64.25-1.43.25s-1.44-.11-1.44-.25.65-.25 1.44-.25 1.43.09 1.43.25z"/><path id="g" d="M96.12 52c0 .14-.64.25-1.44.25s-1.43-.11-1.43-.25.64-.25 1.43-.25 1.44.09 1.44.25z"/><path id="h" d="M113.32 52c0 .14-.64.25-1.43.25s-1.43-.11-1.43-.25.64-.25 1.43-.25 1.43.09 1.43.25z"/><path id="i" d="M119.06 52c0 .14-.64.25-1.43.25s-1.44-.11-1.44-.25.64-.25 1.44-.25 1.43.09 1.43.25z"/><path id="j" d="M124.8 52c0 .14-.65.25-1.44.25s-1.43-.11-1.43-.25.64-.25 1.43-.25 1.44.09 1.44.25z"/><path id="k" d="M705.79 278.3c0-.11.5-.19 1.11-.19s1.12.08 1.12.19-.5.19-1.12.19-1.11-.08-1.11-.19z"/><path id="l" d="M633 275.23c.1 0 .19.5.19 1.12s-.09 1.11-.19 1.11-.2-.5-.2-1.11.13-1.12.2-1.12z"/><path id="m" d="M633 221.71c.1 0 .19.5.19 1.12s-.09 1.11-.19 1.11-.2-.49-.2-1.11.13-1.12.2-1.12z"/><path id="n" d="M636.94 198.86c0 .11-.5.19-1.11.19s-1.12-.08-1.12-.19.5-.19 1.12-.19 1.11.08 1.11.19z"/><path id="o" d="M712.48 221.45c-.11 0-.2-.5-.2-1.12s.09-1.11.2-1.11.19.49.19 1.11-.09 1.12-.19 1.12z"/><path id="p" d="M712.48 261.58c-.11 0-.2-.49-.2-1.11s.09-1.12.2-1.12.19.5.19 1.12-.09 1.11-.19 1.11z"/><path id="q" d="M712.48 270.5c-.11 0-.2-.5-.2-1.11s.09-1.12.2-1.12.19.5.19 1.12-.09 1.11-.19 1.11z"/><path id="r" d="M709.53 274.55h5.88v5.88h-5.88z"/><path id="s" d="M639.06 332.9h43.34v28.27h-43.34z"/><path id="t" d="M645.35 338.51a1.74 1.74 0 1 1-1.74-1.74 1.73 1.73 0 0 1 1.74 1.74z"/><path id="u" d="M669.13 337.59c0 .14-4.76.26-10.63.26s-10.63-.12-10.63-.26 4.76-.26 10.63-.26 10.63.11 10.63.26z"/><path id="v" d="M656.07,340a32.46,32.46,0,0,1-8.2,0,32.46,32.46,0,0,1,8.2,0Z"/><path id="w" d="M654.07 300.3c-12.37 5.89-26.85 5.06-40.34 2.7-10.1-1.77-20.16-4.33-30.32-5.33v15.86h108.23v-38.2a56.49 56.49 0 0 0-10.86 5.56c-9.22 6.11-16.78 14.67-26.71 19.41zm-20.08 9a.6.6 0 1 1 .61-.6.6.6 0 0 1-.6.59zm3.81 0a.6.6 0 1 1 .61-.6.6.6 0 0 1-.61.59zm3.81 0a.6.6 0 1 1 0-1.2.6.6 0 1 1 0 1.2z"/><path id="x" d="M634 308.09a.6.6 0 1 0 .61.6.6.6 0 0 0-.61-.6z"/><path id="y" d="M593.42 274.54c2.48-.48 5-2.19 5.81-4.43h-15.82V275h.12c3.27-.51 6.64.17 9.89-.46z"/><path id="z" d="M633.07 365c0 .14-9.7.26-21.67.26s-21.67-.12-21.67-.26 9.7-.26 21.67-.26l21.67.26z"/><path id="AA" d="M596 380.75a1.74 1.74 0 1 1-1.74-1.74 1.74 1.74 0 0 1 1.74 1.74z"/><path id="AB" d="M271.33 284.89h76.21v49.71h-76.21z"/><path id="AC" d="M416.64 293.12c0 .15-8.37.26-18.69.26s-18.7-.11-18.7-.26 8.37-.26 18.7-.26l18.69.26z"/><path id="AD" d="M393.67,297.31a100.1,100.1,0,0,1-14.42,0,100.1,100.1,0,0,1,14.42,0Z"/><path id="AE" d="M581 196.65c-29.4-18.84-69.63-19.17-99.34-.82-14.64 9-26.78 22.11-42.51 29-19.54 8.63-42.07 6.67-63 2.38s-41.67-10.78-63-10.75-44.94 8.34-56 26.62l-.1 3.25 322.25 9.31zm-171.28 45a1.27 1.27 0 1 1 1.31-1.23 1.26 1.26 0 0 1-1.36 1.25zm8 .24a1.27 1.27 0 1 1 1.3-1.24 1.27 1.27 0 0 1-1.31 1.26zm8 .23a1.27 1.27 0 1 1 .03.02zM549.2 221.3a3.55 3.55 0 1 1 .03.02z"/><path id="AF" d="M302.73 195.69c9.48-4 17.35-12.18 27.57-13.44 5.12-.64 10.35.57 15.43-.26s10.39-4.93 9.69-10l-96.19-3-.36 12.48v.05h0c8.58 14.58 28.29 20.75 43.86 14.17z"/><path id="AG" d="M391.75 189.32a10.9 10.9 0 1 0 10.58 11.21 10.9 10.9 0 0 0-10.58-11.21z"/><path id="AH" d="M150.84 125.09l-8.13-1.55-.05 12.46h68.87l.11-27.33c-6.09 5-12 10.27-19.08 13.64-12.79 6.09-27.76 5.22-41.72 2.78zm21 6.51a.62.62 0 1 1-.04 0zm3.94 0a.62.62 0 1 1-.04 0zm3.94 0a.62.62 0 1 1-.04 0z"/><path id="AI" d="M171.8 130.36a.62.62 0 1 0 .62.62.62.62 0 0 0-.62-.62z"/><path id="AJ" d="M160.49 99.64a7.23 7.23 0 1 0 7.22 7.23 7.23 7.23 0 0 0-7.22-7.23z"/><path id="AK" d="M201.53 197.9c0 .14-11.81.26-26.37.26s-26.38-.12-26.38-.26 11.81-.26 26.38-.26l26.37.26z"/><path id="AL" d="M82.6 275.62a1.88 1.88 0 1 1-1.87-1.88 1.87 1.87 0 0 1 1.87 1.88z"/><path id="AM" d="M130.71 368.11c0 .14-6.55.26-14.63.26s-14.63-.12-14.63-.26 6.55-.26 14.63-.26 14.63.15 14.63.26z"/><path id="AN" d="M164 369.38a2.39 2.39 0 1 1-2.39-2.39 2.39 2.39 0 0 1 2.39 2.39z"/><path id="AO" d="M236.3 295.43C224.65 303.1 215.12 314 202.53 320c-15.63 7.45-33.93 6.39-51 3.41s-34-7.76-51.33-7.24a64.69 64.69 0 0 0-27.15 6.73v13.82h223.41v-51.24c-20.29-4.92-42.67-1.56-60.16 9.95zm-57.88 34.81a.88.88 0 1 1 .88-.88.88.88 0 0 1-.88.88zm5.58 0a.88.88 0 0 1 0-1.76.88.88 0 0 1 0 1.76zm5.57 0a.88.88 0 1 1 .88-.88.88.88 0 0 1-.88.88zm98.05-19.81a2.88 2.88 0 1 1 0 4.07 2.87 2.87 0 0 1 0-4.07z"/><path id="AP" d="M91.35 299.52c7.59-3.47 13.77-10.28 22-11.54 4.13-.64 8.4.22 12.5-.57 3.14-.61 6.33-2.77 7.35-5.6H73.07v19.38a28.61 28.61 0 0 0 18.28-1.67z"/></defs></svg>